<?xml version="1.0" encoding="UTF-8"?>
<!DOCTYPE svg PUBLIC "-//W3C//DTD SVG 1.1//EN" "http://www.w3.org/Graphics/SVG/1.1/DTD/svg11.dtd">
<!-- Creator: CorelDRAW -->
<svg xmlns="http://www.w3.org/2000/svg" xml:space="preserve" width="850px" height="712px" version="1.1" style="shape-rendering:geometricPrecision; text-rendering:geometricPrecision; image-rendering:optimizeQuality; fill-rule:evenodd; clip-rule:evenodd"
viewBox="0 0 237.97 199.4"
 xmlns:xlink="http://www.w3.org/1999/xlink"
 xmlns:xodm="http://www.corel.com/coreldraw/odm/2003">
 <defs>
  <style type="text/css">
   <![CDATA[
    .fil0 {fill:#9bbdda}
   ]]>
  </style>
 </defs>
 <g id="Слой_x0020_1">
  <metadata id="CorelCorpID_0Corel-Layer"/>
  <g id="_2060304934816">
   <path class="fil0" d="M59.19 188.97l13.63 3.34c18.82,4.71 28.74,7.09 49.68,7.09 22.1,0 30.69,-1.05 49.82,-7.43 1.13,-0.38 2.09,-0.7 3.09,-1.03 2.37,-0.79 1.18,-0.11 2.88,-1.25 0,-3.29 1.25,-10.83 1.22,-15.03l0.23 -11.9c0.02,-1.45 0.26,-2.17 0.25,-3.87 -0.02,-5.43 -0.05,-10.81 -0.94,-15.31 -0.94,-4.73 -2.17,-8.61 -4.07,-12.43 -1.06,-2.13 -3.22,-5.62 -4.87,-7.26 -3.65,-3.62 -6.63,-6.78 -11.03,-9.59 -6.63,-4.24 -14.62,-7.32 -25.42,-7.32l-26.68 0c-13.67,0 -25.7,5.44 -34.39,14.13 -1.39,1.39 -2.57,2.67 -3.74,4.26 -3.7,5.07 -6.27,10.36 -7.54,16.96 -2.19,11.39 -0.79,34.35 -1.5,39.01 -0.39,2.61 -0.09,5.33 -0.62,7.63z"/>
   <path class="fil0" d="M0 112.31l0 40.27c0,2.33 2.71,2.56 4.71,3.06l19.33 4.44c2.17,0.44 4.4,0.84 6.56,1.2 1.17,0.2 2.25,0.35 3.37,0.5l18.18 1.96c0,-7.23 -0.56,-15.15 1.36,-21.94 2.38,-8.43 5.14,-15.64 10.74,-22.49 4.38,-5.37 9.04,-9.23 14.91,-12.74 3.45,-2.07 3.9,-2.23 7.51,-3.65l4.05 -1.52c-0.17,-0.66 -3.94,-4.67 -4.85,-5.82 -2.73,-3.5 -4.34,-6.11 -6,-10.26 -1.62,-4.07 -2.49,-9.17 -2.49,-14l-31.29 0c-11.58,0 -23.47,4.69 -31.35,12.07 -0.59,0.55 -0.86,0.63 -1.46,1.2 -0.46,0.44 -0.92,0.88 -1.32,1.35 -4.8,5.75 -5.33,6.08 -8.73,13.11 -1.66,3.45 -3.23,9.23 -3.23,13.26z"/>
   <path class="fil0" d="M163.25 72.77c0,7.81 -2.37,14.1 -5.83,19.88 -1.03,1.73 -5.96,7.85 -7.51,8.26l0 0.49c2.04,0.04 1.82,0.88 4.19,1.87 1.55,0.65 2.68,1.2 4.14,1.93 2.96,1.48 5.12,2.83 7.78,4.59l5.06 3.92c1.1,1.09 1.73,1.2 3.09,2.97 5.48,7.12 9.23,12.52 11.5,22.46 1.85,8.11 1.36,14.78 1.36,23.14l7.1 -1.14c15.07,-1.87 22.59,-2.72 36.94,-8.42 1.13,-0.45 1.81,-0.81 2.88,-1.25l2.89 -1.23c0.92,-0.48 1.13,-1.7 1.13,-3 0,-0.01 0,-0.02 0,-0.03l0 -24.99c-0.03,-1.77 -0.08,-3.03 -0.14,-3.46 -0.79,-5.19 0.63,-6.76 -2.62,-16.3 -1.05,-3.08 -2.51,-5.85 -4.02,-8.35 -9.07,-15.04 -20.98,-22.79 -40.04,-22.79l-27.9 0 0 1.45z"/>
   <path class="fil0" d="M84.66 68.41c0,8.17 2.6,15.16 6.74,21.39 1.78,2.67 3.85,5.02 6.17,7.17 0.52,0.48 0.7,0.53 1.21,0.98l3.82 2.73c0.88,0.53 1.99,1.22 2.91,1.69 9.04,4.65 19.52,4.17 28.67,0.52 2.75,-1.1 5.41,-2.87 7.73,-4.64l2.37 -2c1.43,-1.43 2.65,-2.73 3.87,-4.38 1.36,-1.84 2.17,-3.18 3.22,-5.27 6.31,-12.59 3.67,-30.22 -6.01,-39.84 -3.88,-3.87 -5.51,-5.2 -10.33,-7.62 -12.73,-6.42 -30,-3.35 -39.27,5.92 -0.96,0.97 -1.16,0.86 -2.09,2.03 -2.09,2.65 -3.09,2.91 -5.45,7.65 -1.8,3.6 -3.56,8.41 -3.56,13.67z"/>
   <path class="fil0" d="M23.77 33.72c0,6.49 0.43,11.49 3.78,17.08 3.17,5.3 3.09,5.15 7.44,9.54 9.49,9.58 25.8,12.36 38.79,7.13 4.2,-1.68 3.51,-1.68 3.98,-4.26 1.39,-7.57 4.43,-14.42 9.38,-19.97 1.28,-1.44 2.61,-2.87 4.17,-4.09 0.51,-0.4 0.73,-0.56 1.26,-0.91 1.35,-0.89 1.06,-0.19 1.06,-4.04 0,-4.87 -1.64,-9.85 -3.31,-13.18 -2.07,-4.12 -3.89,-6.49 -7.06,-9.68 -9.67,-9.73 -24.4,-12.47 -37.79,-7.11 -7.3,2.92 -14.44,8.89 -17.98,15.98 -1.75,3.5 -3.72,8.41 -3.72,13.51z"/>
   <path class="fil0" d="M142.63 34.69c3.58,0.83 8.69,5.96 11.1,8.55 2.82,3.02 5.86,8.82 7.25,12.88 0.91,2.64 2.27,7.79 2.27,11.07 2.57,0.22 5.89,2.91 16.01,2.91 17.72,0 33.48,-15.67 33.48,-32.74 0,-9.9 -2.55,-19.49 -9.4,-26.26 -6.66,-6.59 -14.61,-11.1 -24.8,-11.1 -10.64,0 -19.97,4.53 -25.29,9.88 -1.51,1.52 -2.92,2.78 -4.17,4.57 -1.28,1.86 -2.36,3.48 -3.38,5.6 -2.01,4.19 -3.07,8.5 -3.07,14.64z"/>
  </g>
 </g>
</svg>
