<?xml version="1.0" encoding="UTF-8"?>
<!DOCTYPE svg PUBLIC "-//W3C//DTD SVG 1.1//EN" "http://www.w3.org/Graphics/SVG/1.1/DTD/svg11.dtd">
<!-- Creator: CorelDRAW -->
<svg xmlns="http://www.w3.org/2000/svg" xml:space="preserve" width="2608px" height="2306px" version="1.1" style="shape-rendering:geometricPrecision; text-rendering:geometricPrecision; image-rendering:optimizeQuality; fill-rule:evenodd; clip-rule:evenodd"
viewBox="0 0 669.23 591.63"
 xmlns:xlink="http://www.w3.org/1999/xlink"
 xmlns:xodm="http://www.corel.com/coreldraw/odm/2003">
 <defs>
  <style type="text/css">
   <![CDATA[
    .fil0 {fill:#9ABBD8}
   ]]>
  </style>
 </defs>
 <g id="Слой_x0020_1">
  <metadata id="CorelCorpID_0Corel-Layer"/>
  <path class="fil0" d="M410.41 495.81c-2.05,-4.68 -1.83,-14.22 2.19,-17.18l194.73 -83.15c4.49,-1.87 27.88,-13.77 30.66,-10.76 2.29,2.48 1.04,15.09 -1.48,17.46 -2.69,2.52 -10.69,5.05 -14.64,6.8l-180.68 75.85c-5.12,2.33 -26.63,12.51 -30.78,10.98zm13.74 -142.82c-1.82,-7.51 3.14,-15.23 6.3,-22.28 2.89,-6.45 6,-13.02 9.06,-19.63 4.33,-9.37 13.6,-34.94 21.02,-37.84 6.85,-2.67 8.22,2.26 16.37,11.88 17.39,20.52 38.42,34.53 2.37,45.51l0.33 72.17c0.1,24.87 5.72,30.19 -26.24,40.91 -1.53,0.51 -1.51,0.75 -3.34,0.71 -3.81,-0.08 -4.76,-0.96 -5.5,-5.24l-1.17 -90.66c-7.44,0.64 -10.81,7.44 -19.2,4.47zm119.02 -55.12c-2.9,-7.38 3,-15.62 6.63,-22.99 3.39,-6.87 6.51,-13.79 9.98,-21.14 8.75,-18.56 19.19,-52.51 33.58,-35.92l21.91 25.12c7.02,8.21 12.09,11.13 6.61,19.44 -3.19,4.83 -13.16,8.69 -19.83,11.46l-0.24 69.09c-0.14,22.45 3.39,35.06 -11.7,41.71 -27.45,12.1 -26.45,11.95 -26.47,-9.64l-0.21 -82.58c-6.46,2.37 -12.61,7.1 -20.26,5.45zm126.06 116.07l0 -256.08c-3.66,-7.34 -4.85,-32.2 -32.24,-46.75 -18.98,-10.08 -60.16,-26.08 -81.91,-36.63 -15.08,-7.31 -14.94,-3.21 -28.28,2.99 -18.52,8.6 -35.25,16.97 -53.95,25.29l-53.7 25.26c-52.07,25.6 -109.76,50.87 -162.12,76.29l-0.32 86.25c-7.54,-0.99 -37.75,-16.92 -50.4,-21.2l-0.26 -87.99c9.23,-3.07 93.38,-43.46 107.4,-49.91l178.82 -84.65c-3.89,-2.64 -11.38,-5.3 -15.61,-7.21l-51.25 -22.75c-21.44,-10.2 -48.28,-24.61 -76.98,-11.8 -44.6,19.91 -89.32,40.37 -134.62,59.86 -21.88,9.41 -46.29,21.13 -67.36,29.93 -40.53,16.93 -68.31,26.85 -68.14,77.05 0.05,16.39 0.09,32.78 0.09,49.17 0,16.09 -0.66,87.67 0.47,97.54 5.58,0.13 44.43,-16.03 93.58,0.41 38.75,12.97 72.78,40.63 89.92,74.75 18.96,37.76 22.8,72.12 12.34,113.89 -1.89,7.57 -5.98,14.53 -6.76,21.85l51.74 21.73c59.46,26.92 60.72,19.53 113.03,-2.17l104.09 -44.48c10.78,-4.72 95.37,-39.9 102.98,-44.66 16.85,-10.56 23.01,-24.59 27.76,-41.48 0.1,-0.36 0.42,-1.43 0.54,-1.78l1.14 -2.72z"/>
  <path class="fil0" d="M113.32 487.32c3.47,-1.94 52.18,-57.46 57.88,-64.1 6.17,-7.2 11.96,-15.91 24.34,-14.79 10.27,0.93 19.11,10.83 16.94,22.9 -1.37,7.63 -11.41,17.07 -16.57,23.05 -12.55,14.56 -25.5,28.14 -37.69,42.53 -5.98,7.05 -12.89,14.55 -19.21,21.38 -5.24,5.65 -11.31,16.88 -24.43,15.88 -9.53,-0.72 -19.42,-10.99 -25.11,-15.59 -9.12,-7.36 -39.57,-27.94 -41.04,-39.12 -1.54,-11.68 6.13,-21.3 15.95,-22.65 11.77,-1.62 17.98,6.1 26.77,13.07 3.76,2.98 6.9,5.75 11.28,9.06 3.49,2.65 7.66,6.55 10.89,8.38zm-113.32 -32.95l0 25.85 2.21 7.03c6.43,42.3 39.18,82.59 78.02,96.1 50.69,17.64 99.64,6.97 136.68,-30.96 72.31,-74.05 22.21,-208.64 -86.49,-210.98 -52.85,-1.14 -94.22,25.99 -115.96,67.3 -13.37,25.39 -9.81,37.06 -14.46,45.66z"/>
 </g>
</svg>
