<?xml version="1.0" encoding="UTF-8"?>
<!DOCTYPE svg PUBLIC "-//W3C//DTD SVG 1.1//EN" "http://www.w3.org/Graphics/SVG/1.1/DTD/svg11.dtd">
<!-- Creator: CorelDRAW -->
<svg xmlns="http://www.w3.org/2000/svg" xml:space="preserve" width="2487px" height="2500px" version="1.1" style="shape-rendering:geometricPrecision; text-rendering:geometricPrecision; image-rendering:optimizeQuality; fill-rule:evenodd; clip-rule:evenodd"
viewBox="0 0 340.6 342.37"
 xmlns:xlink="http://www.w3.org/1999/xlink"
 xmlns:xodm="http://www.corel.com/coreldraw/odm/2003">
 <defs>
  <style type="text/css">
   <![CDATA[
    .fil0 {fill:#9ABBD8;fill-rule:nonzero}
   ]]>
  </style>
 </defs>
 <g id="Слой_x0020_1">
  <metadata id="CorelCorpID_0Corel-Layer"/>
  <g id="_2095866236944">
   <g>
    <path class="fil0" d="M315.33 198.51c9.34,-0.89 18,-4.91 24.81,-11.54l0 118.3c0,20.46 -16.65,37.1 -37.11,37.1l-265.91 0c-20.47,0 -37.12,-16.64 -37.12,-37.1l0 -265.62c0,-20.46 16.65,-37.11 37.12,-37.11l118.62 0c-6.38,6.55 -10.63,15.2 -11.56,24.8l-107.07 0c-6.78,0 -12.31,5.52 -12.31,12.31l0 265.62c0,6.78 5.53,12.29 12.31,12.29l265.91 0c6.79,0 12.31,-5.51 12.31,-12.29l0 -106.76zm6.67 -198.51l-126.01 0c-10.27,0 -18.6,8.33 -18.6,18.61 0,10.27 8.33,18.6 18.6,18.6l80.08 0c-0.77,0.56 -1.55,1.13 -2.24,1.83l-131.27 131.25 0 -81.09c0,-10.27 -8.32,-18.6 -18.6,-18.6 -5.14,0 -9.79,2.08 -13.15,5.45 -3.37,3.37 -5.45,8.01 -5.45,13.15l0 126.01c0,10.27 8.32,18.6 18.6,18.6l126 0c10.28,0 18.6,-8.33 18.6,-18.61 0,-10.27 -8.32,-18.6 -18.6,-18.6l-80.06 0c0.77,-0.56 1.54,-1.13 2.23,-1.83l131.26 -131.26 0 81.1c0,10.27 8.32,18.6 18.6,18.6 5.14,0 9.79,-2.08 13.15,-5.45 3.37,-3.37 5.46,-8.01 5.46,-13.15l0 -126.01c0,-10.27 -8.33,-18.6 -18.6,-18.6z"/>
   </g>
  </g>
 </g>
</svg>
