<?xml version="1.0" encoding="UTF-8"?>
<!DOCTYPE svg PUBLIC "-//W3C//DTD SVG 1.1//EN" "http://www.w3.org/Graphics/SVG/1.1/DTD/svg11.dtd">
<!-- Creator: CorelDRAW -->
<svg xmlns="http://www.w3.org/2000/svg" xml:space="preserve" width="1024px" height="701px" version="1.1" style="shape-rendering:geometricPrecision; text-rendering:geometricPrecision; image-rendering:optimizeQuality; fill-rule:evenodd; clip-rule:evenodd"
viewBox="0 0 233.21 159.65"
 xmlns:xlink="http://www.w3.org/1999/xlink"
 xmlns:xodm="http://www.corel.com/coreldraw/odm/2003">
 <defs>
  <style type="text/css">
   <![CDATA[
    .fil0 {fill:#9ABBD8}
   ]]>
  </style>
 </defs>
 <g id="Слой_x0020_1">
  <metadata id="CorelCorpID_0Corel-Layer"/>
  <g id="_2060304749584">
   <path class="fil0" d="M32.11 82.44c-1.68,0 -3.87,-1.74 -3.87,-3.41 0,-2.4 0.04,-1.97 1.36,-4.56 2.25,-4.41 7.75,-2 7.75,1.14 0,2.84 -1.87,6.83 -5.24,6.83zm10.02 -18.67c-2.25,0 -4.04,-0.57 -4.55,-3.2 -0.38,-1.97 0.64,-3.32 1.44,-4.92 1.66,-3.33 7.66,-15.96 9.35,-17.98 2.31,-2.75 7.34,-3.05 10.84,-3.05 1.66,0 3.65,1.8 3.65,3.41 0,1.73 0.04,3.35 -2.43,4.41 -3.07,1.32 -5.42,-0.47 -6.54,1.88l-6.59 13.22c-0.65,1.29 -2.06,4.57 -3.07,5.36 -0.4,0.32 -1.45,0.87 -2.1,0.87zm1.82 -37.12c-0.39,1.7 -20.93,42.1 -22.47,45.17 -1.15,2.31 -7.23,13.63 -7.36,15.18 0.86,0.2 2.61,1.17 3.42,1.59 0.61,0.32 0.97,0.6 1.59,0.92 2.46,1.27 4.93,2.61 7.2,4.18l0.77 0.6c3.1,-2.08 5.62,-3.88 9.79,-3.88 5.81,0 10.54,3.05 12.92,7.82 0.39,0.8 0.6,1.49 0.98,2.21 4.65,-2.47 8.58,-3.34 13.86,-1.34 3.59,1.35 7.93,5.68 8.23,9.31 1.73,-0.04 3.73,-1.14 6.38,-1.14 6.74,0 12.77,5.07 13.95,11.32 0.38,1.98 0.36,3.57 0.12,5.53 4.09,0.1 7.37,2.62 10.01,5.29l11.83 10.95c0.7,0.59 1.28,1.28 1.94,1.93 0.73,0.72 1.29,1.04 2.06,1.81 0.7,0.71 1.24,1.31 1.99,1.88 0.49,0.37 0.52,0.4 0.95,0.88 6.28,6.95 14.08,2.07 14.08,-1.56 0,-3.11 -2.24,-4.41 -4.95,-7.12l-14.24 -14.23c-3.74,-3.69 -1.59,-7.8 2.34,-7.8 2.34,0 5.85,4.37 7.46,5.98l13.43 13.44c3.25,3.24 7.22,7.23 13.04,3.58 1.6,-1.01 2.51,-2.31 2.51,-4.32 0,-2.21 -2.14,-3.63 -3.36,-4.84l-20.5 -20.5c-1.17,-1.17 -3.2,-2.88 -3.2,-4.95 0,-2.1 1.81,-4.1 4.06,-4.1 2.34,0 3.69,1.98 4.95,3.24 8.2,8.2 16.28,16.52 24.59,24.6 5.51,5.35 16.64,0.82 11.91,-6.21 -2.17,-3.22 -4.45,-6.46 -7.01,-9.39l-32 -34.05c-0.79,-0.81 -1.41,-1.18 -2.16,-1.93l-10.48 -10.26c-0.37,-0.37 -0.63,-0.67 -1.03,-1.01l-3.18 -2.97c-0.8,-0.81 -1.41,-1.18 -2.17,-1.93 -1.21,-1.2 -2.96,-3.1 -4.38,-4.05 -1.35,0.72 -3.61,1.63 -5.23,2.05 -6.36,1.66 -2.83,0.34 -7.25,7.34 -4.23,6.71 -10.77,16.12 -20.54,16.12 -5.97,0 -11.04,-2.06 -13.91,-6.82 -2.92,-4.86 -1.01,-10.79 0.45,-15.76 0.83,-2.83 1.6,-5.74 2.5,-8.42 1.91,-5.71 3.59,-10.94 6.17,-15.92 2.47,-4.74 7.89,-7.32 12.83,-9.27 2.63,-1.04 5.05,-2.17 7.52,-3.41 1.65,-0.82 6.08,-2.82 6.99,-4.17 -3.48,-0.81 -4.06,-1.14 -7.97,-1.14 -4.42,0 -7.52,2.01 -11.48,3.33 -3.83,1.28 -7.27,2.38 -11.39,3.41 -6.27,1.58 -12.86,2.85 -19.5,2.82 -1.44,-0.01 -2.08,0.33 -3.31,0.15 -1.25,-0.19 -2.4,-0.14 -3.75,-0.14z"/>
   <path class="fil0" d="M194.04 80.62c0,-2.64 1.79,-4.33 4.1,-4.33 2.45,0 3.23,1.55 4.17,3.12 0.6,1.01 2.43,3.87 2.43,5.08 0,3.88 -4.55,5.34 -7.1,3.01 -0.43,-0.39 -1.01,-1.53 -1.34,-2.08 -0.92,-1.54 -2.26,-3.27 -2.26,-4.8zm-35.53 -39.4c0,-5.9 5.12,-4.07 9.11,-4.09 1.45,-0.01 3.31,-0.03 4.4,0.15 5.23,0.88 7.84,3.68 9.95,7.59 1.6,2.96 9.16,14.94 9.57,16.64 0.61,2.61 -1.47,4.99 -3.42,4.99 -4.02,0 -4.14,-2.19 -7.25,-7.33 -0.95,-1.58 -6.7,-11.68 -7.49,-12.55 -2.1,-2.29 -6.23,-0.75 -11.69,-1.74 -1.78,-0.32 -3.18,-1.6 -3.18,-3.66zm-19.59 -4.1c0,-2.18 1.69,-4.1 3.42,-4.1 10.83,0 8.05,10.2 1.91,8.57 -1.97,-0.52 -5.33,-1.09 -5.33,-4.47zm-67.41 31.66c0,1.62 0.14,2.73 1.91,3.78 4.77,2.82 9.48,0.62 13.05,-2.95l3.26 -4.02c1.25,-1.66 2.68,-3.98 3.65,-5.92 5.15,-10.39 2.91,-6.93 10.29,-8.83 2.69,-0.7 4.58,-1.62 6.6,-2.97 1.96,-1.3 3.63,-2.66 5.13,-4.44 1.27,-1.5 2.87,-4.49 5.08,-4.49 3.77,0 6.63,3.85 1.76,9.06l-3.36 3.7 11.79 11.21c0.34,0.35 0.56,0.6 0.91,0.91l6.83 6.61c0.75,0.75 1.3,1.05 2.05,1.82l9.68 9.68c1.34,1.34 2.32,2.55 3.64,3.87l4.68 4.9c0.34,0.39 0.64,0.65 1.02,1.02l11.85 13.2c0.39,0.46 0.58,0.57 0.98,1.08 1.47,1.87 5.65,6.8 6.7,8.78l40.08 -23c-0.09,-1.07 -3.8,-6.8 -4.55,-8.2l-4.72 -8.04c-4.61,-8.29 -10.49,-17.64 -15.34,-26.11l-9.45 -16.05c-4.45,-7.55 -2.82,-6.15 -6.44,-5.56 -10.39,1.7 -18.23,0.65 -28.28,-1.86l-8.62 -2.53c-3.66,-1.22 -9.83,-3.66 -13.16,-5.29 -3.48,-1.71 -7.98,-1.48 -11.65,-0.33 -4.64,1.47 -7.07,4.64 -11.53,7.61 -3.76,2.5 -8.14,5.08 -12.36,6.76 -3.7,1.47 -5.42,2.07 -8.85,4.13 -1.91,1.15 -2.18,1.09 -3.22,3.16 -1.5,3.03 -2.51,6.07 -3.69,9.29 -1.12,3.1 -2.18,6.36 -3.12,9.64 -0.62,2.17 -2.6,8.61 -2.6,10.38z"/>
   <path class="fil0" d="M189.03 23.69c0.2,0.87 1.93,3.64 2.49,4.56 0.9,1.5 1.68,2.89 2.62,4.45l11.73 19.92c0.47,0.78 0.85,1.5 1.33,2.31l20.98 35.51c0.88,0.87 3.56,1.91 5.03,2.25l0 -92.69c-0.95,0.5 -1.63,0.94 -2.66,1.44l-19.39 10.45c-1.76,1.07 -3.73,1.9 -5.5,2.92l-13.75 7.43c-1,0.5 -1.89,1.21 -2.88,1.45z"/>
   <path class="fil0" d="M0 88.37c1.26,-0.03 3.62,-1.11 4.47,-1.69 1.1,-0.74 5.73,-10.74 6.54,-12.36l16.77 -33.55c2.79,-5.58 5.53,-11.37 8.43,-16.86 -3.06,-1.62 -5.93,-3.19 -9.03,-4.85l-22.55 -12.3c-0.99,-0.53 -3.77,-2.23 -4.63,-2.43l0 84.04z"/>
   <path class="fil0" d="M54.89 138.24c0,2.71 0.43,2.82 2.67,5.07 1.54,1.54 2.11,2.67 4.61,2.67 1.83,0 2.73,-1.24 3.71,-2.22l17.76 -17.75c0.57,-0.58 0.84,-0.96 1.19,-1.78 1.51,-3.6 -0.5,-7.01 -2.83,-8.09 -5.01,-2.3 -7.74,1.47 -10.32,4.05l-14.46 14.46c-0.81,0.82 -2.33,2.12 -2.33,3.59z"/>
   <path class="fil0" d="M74.02 148.95c0,2.47 0.77,2.93 2.79,4.95 5.24,5.25 6.64,1.9 13.78,-5.24 1.49,-1.5 2.82,-2.83 4.32,-4.33 1.35,-1.34 3.25,-3.15 3.25,-5.63 0,-3.41 -2.48,-6.38 -6.61,-6.38 -2.84,0 -3.95,1.56 -5.41,3.02l-8.54 8.54c-0.77,0.77 -1.38,1.39 -2.16,2.16 -0.81,0.79 -1.42,1.37 -1.42,2.91z"/>
   <path class="fil0" d="M41.22 122.98c0,2.53 2.66,4.85 4.49,6.22 3.59,2.69 5.67,-0.32 7.75,-2.4l8.66 -8.66c1.44,-1.44 3.24,-2.84 3.24,-5.63 0,-2.6 -1.65,-4.89 -3.41,-5.7 -5.41,-2.5 -8.52,2.25 -12.93,6.66 -1.5,1.5 -2.83,2.83 -4.33,4.33 -1.29,1.3 -3.47,2.78 -3.47,5.18z"/>
   <path class="fil0" d="M25.74 108.86c0,2.53 0.68,2.85 2.67,4.84 2.16,2.16 4.4,4.41 7.86,0.92 3.51,-3.55 7,-5.82 7,-10.08 0,-1.65 -1,-3.19 -1.87,-4.06 -0.83,-0.84 -2.7,-1.87 -4.28,-1.87 -3.66,0 -6.35,3.74 -9.39,6.78 -0.98,0.98 -1.99,1.6 -1.99,3.47z"/>
   <path class="fil0" d="M98.61 152.36c0.5,0.74 3.01,2.66 3.6,3.24 2.53,2.51 4.17,4.05 8.47,4.05 2.43,0 6.61,-1.93 6.61,-4.1 0,-2.74 -0.96,-2.7 -3.93,-5.64 -0.62,-0.62 -0.98,-0.76 -1.6,-1.36l-4.55 -4.33c-0.61,-0.63 -0.79,-1.12 -1.76,-1.2 -0.42,1.8 -1.74,3.91 -2.8,5.18 -1.16,1.36 -3.14,2.82 -4.04,4.16z"/>
  </g>
 </g>
</svg>
