<?xml version="1.0" encoding="UTF-8"?>
<!DOCTYPE svg PUBLIC "-//W3C//DTD SVG 1.1//EN" "http://www.w3.org/Graphics/SVG/1.1/DTD/svg11.dtd">
<!-- Creator: CorelDRAW -->
<svg xmlns="http://www.w3.org/2000/svg" xml:space="preserve" width="1939px" height="695px" version="1.1" style="shape-rendering:geometricPrecision; text-rendering:geometricPrecision; image-rendering:optimizeQuality; fill-rule:evenodd; clip-rule:evenodd"
viewBox="0 0 166.2 59.59"
 xmlns:xlink="http://www.w3.org/1999/xlink"
 xmlns:xodm="http://www.corel.com/coreldraw/odm/2003">
 <defs>
  <style type="text/css">
   <![CDATA[
    .str0 {stroke:black;stroke-width:0.43;stroke-miterlimit:4}
    .str1 {stroke:black;stroke-width:0.18;stroke-miterlimit:4}
    .fil1 {fill:none}
    .fil0 {fill:black}
   ]]>
  </style>
 </defs>
 <g id="Слой_x0020_1">
  <metadata id="CorelCorpID_0Corel-Layer"/>
  <path class="fil0" d="M20.84 0.77l-1.05 2.57 -1.06 -2.57 -0.99 0 1.9 4.32 0.29 0 1.89 -4.32 -0.98 0zm1.18 2.12c-0.02,1.22 1.03,2.23 2.26,2.2 1.22,0.03 2.28,-0.98 2.26,-2.2 0.02,-1.21 -1.04,-2.22 -2.26,-2.2 -1.23,-0.02 -2.28,0.99 -2.26,2.2zm3.62 0c0,0.82 -0.58,1.4 -1.36,1.4 -0.78,0 -1.36,-0.58 -1.36,-1.4 0,-0.81 0.58,-1.39 1.36,-1.39 0.78,0 1.36,0.59 1.36,1.39zm1.43 0.43l1.62 0 0 -0.73 -1.62 0 0 0.73zm2.4 1.7l0.87 0 0 -1.5 0.73 0c0.88,0 1.53,-0.57 1.53,-1.38 0,-0.81 -0.65,-1.37 -1.53,-1.37l-1.6 0 0 4.25zm0.87 -2.26l0 -1.22 0.73 0c0.39,0 0.64,0.24 0.64,0.6 0,0.37 -0.24,0.62 -0.64,0.62l-0.73 0zm5.5 0.37c0,-0.88 -0.54,-1.37 -1.36,-1.37 -0.56,0 -1.03,0.22 -1.39,0.66l0.45 0.53c0.28,-0.3 0.51,-0.43 0.84,-0.43 0.38,0 0.59,0.2 0.59,0.55l0 0.15 -0.8 0c-0.74,0 -1.2,0.35 -1.2,0.92 0,0.56 0.42,0.95 1.1,0.95 0.41,0 0.74,-0.15 0.97,-0.38l0 0.31 0.8 0 0 -1.89zm-0.87 0.7c0,0.36 -0.29,0.63 -0.67,0.63 -0.27,0 -0.46,-0.14 -0.46,-0.35 0,-0.21 0.17,-0.32 0.45,-0.32l0.68 0 0 0.04zm3.75 0.46c-0.23,0.02 -0.36,0.02 -0.41,0.02 -0.41,0 -0.59,-0.13 -0.59,-0.49l0 -1.25 0.9 0 0 -0.74 -0.9 0 0 -0.8 -0.87 0 0 0.8 -0.5 0 0 0.74 0.5 0 0 1.33c0,0.79 0.47,1.19 1.27,1.19 0.19,0 0.39,-0.02 0.6,-0.07l0 -0.73zm3.43 0.73l0.93 0 -1.89 -4.33 -0.29 0 -1.9 4.33 0.93 0 0.24 -0.56 1.74 0 0.24 0.56zm-0.54 -1.27l-1.13 0 0.56 -1.44 0.57 1.44zm2.05 1.27l0.87 0 0 -4.25 -0.87 0 0 4.25zm5.42 0l-1.21 -1.67c0.47,-0.23 0.75,-0.67 0.75,-1.21 0,-0.81 -0.64,-1.37 -1.53,-1.37l-1.59 0 0 4.25 0.86 0 0 -1.5 0.64 0 1.1 1.5 0.98 0zm-2.72 -3.48l0.73 0c0.39,0 0.64,0.24 0.64,0.6 0,0.37 -0.23,0.61 -0.64,0.61l-0.73 0 0 -1.21z"/>
  <path class="fil0" d="M51.02 1.24c0.01,-0.51 -0.45,-0.97 -0.95,-0.96 -0.51,-0.01 -0.97,0.45 -0.96,0.96 -0.01,0.52 0.45,0.97 0.96,0.96 0.5,0.01 0.96,-0.44 0.95,-0.96zm-0.25 0c0,0.41 -0.32,0.73 -0.7,0.73 -0.39,0 -0.71,-0.32 -0.71,-0.73 0,-0.4 0.32,-0.72 0.71,-0.72 0.38,0 0.7,0.32 0.7,0.72zm-0.46 0.13c0.1,-0.06 0.15,-0.15 0.15,-0.27 0,-0.2 -0.16,-0.33 -0.38,-0.33l-0.39 0 0 0.94 0.26 0 0 -0.28 0.1 0 0.22 0.28 0.29 0 -0.25 -0.34zm-0.36 -0.37l0.13 0c0.06,0 0.11,0.04 0.11,0.11 0,0.06 -0.05,0.1 -0.11,0.1l-0.13 0 0 -0.21z"/>
  <path class="fil0" d="M51.46 3.32l5.79 0 0 -0.73 -5.79 0 0 0.73zm11.53 0.27l-0.54 0 0 -1.19 -0.87 0 0 1.19 -1.03 0 1.13 -2.82 -0.89 0 -1.32 3.32 0 0.23 2.11 0 0 0.7 0.87 0 0 -0.7 0.54 0 0 -0.73zm2.21 -0.27l5.79 0 0 -0.73 -5.79 0 0 0.73zm9.62 -2.55l-1.59 0.52 0.2 0.77 0.81 -0.26 0 3.22 0.87 0 0 -4.25 -0.29 0zm1.23 2.09c0,1.26 0.57,2.23 1.69,2.23 1.11,0 1.68,-0.97 1.68,-2.23 0,-0.65 -0.15,-1.17 -0.44,-1.57 -0.28,-0.4 -0.7,-0.6 -1.24,-0.6 -0.55,0 -0.97,0.2 -1.26,0.6 -0.29,0.4 -0.43,0.92 -0.43,1.57zm2.47 0.01c0,0.94 -0.26,1.42 -0.78,1.42 -0.53,0 -0.79,-0.48 -0.79,-1.42 0,-0.9 0.24,-1.37 0.79,-1.37 0.54,0 0.78,0.47 0.78,1.37zm0.89 2.92l0.92 0 3.36 -5.79 -0.92 0 -3.36 5.79zm5.88 -1.51l0.55 -0.58c0.3,-0.32 0.53,-0.6 0.68,-0.84 0.15,-0.26 0.23,-0.52 0.23,-0.81 0,-0.77 -0.62,-1.36 -1.47,-1.36 -0.91,0 -1.5,0.69 -1.5,1.41 0,0.12 0.01,0.24 0.05,0.36l0.87 0c-0.02,-0.13 -0.03,-0.23 -0.03,-0.31 0,-0.39 0.24,-0.65 0.6,-0.65 0.36,0 0.59,0.26 0.59,0.62 0,0.32 -0.18,0.61 -0.6,1.07l-1.52 1.65 0 0.18 3.13 0 0 -0.74 -1.58 0zm2.28 -1.42c0,1.26 0.56,2.23 1.68,2.23 1.12,0 1.68,-0.97 1.68,-2.23 0,-0.65 -0.14,-1.17 -0.43,-1.57 -0.28,-0.4 -0.7,-0.6 -1.25,-0.6 -0.54,0 -0.96,0.2 -1.25,0.6 -0.29,0.4 -0.43,0.92 -0.43,1.57zm2.47 0.01c0,0.94 -0.27,1.42 -0.79,1.42 -0.52,0 -0.79,-0.48 -0.79,-1.42 0,-0.9 0.25,-1.37 0.79,-1.37 0.54,0 0.79,0.47 0.79,1.37zm1.5 0.02c-0.03,1.22 1.01,2.23 2.25,2.2 0.82,0 1.51,-0.39 1.88,-1.05l-0.66 -0.46c-0.3,0.47 -0.7,0.71 -1.21,0.71 -0.79,0 -1.37,-0.58 -1.37,-1.39 0,-0.81 0.58,-1.4 1.37,-1.4 0.51,0 0.91,0.24 1.21,0.71l0.66 -0.46c-0.38,-0.66 -1.07,-1.06 -1.87,-1.06 -1.24,-0.02 -2.28,0.99 -2.26,2.2zm7.54 2.13l0.94 0 -1.89 -4.33 -0.29 0 -1.9 4.33 0.93 0 0.24 -0.56 1.74 0 0.23 0.56zm-0.54 -1.27l-1.13 0 0.57 -1.44 0.56 1.44zm3.37 -0.43l5.78 0 0 -0.73 -5.78 0 0 0.73zm11.14 -2.55l0 2.54 -2.46 -2.62 -0.29 0 0 4.33 0.87 0 0 -2.55 2.46 2.62 0.29 0 0 -4.32 -0.87 0zm4.65 2.65c0,-0.93 -0.75,-1.66 -1.71,-1.66 -0.6,0 -1.06,0.27 -1.38,0.79l0.58 0.44c0.23,-0.31 0.49,-0.46 0.8,-0.46 0.38,0 0.68,0.23 0.81,0.57l-1.04 0 0 0.62 1.04 0c-0.1,0.36 -0.42,0.61 -0.81,0.61 -0.34,0 -0.59,-0.17 -0.8,-0.47l-0.58 0.44c0.33,0.53 0.79,0.79 1.38,0.79 0.96,0 1.71,-0.74 1.71,-1.67zm0.96 -1.59l0 0.76c-0.02,1.25 -0.15,1.72 -0.51,1.72 -0.04,0 -0.08,0 -0.12,-0.01l0 0.72c0.1,0.03 0.21,0.05 0.33,0.05 0.8,-0.02 1.06,-0.63 1.11,-2.26l0 -0.24 0.86 0 0 2.45 0.86 0 0 -3.19 -2.53 0zm5.1 1.49l5.79 0 0 -0.73 -5.79 0 0 0.73zm11.53 0.27l-0.54 0 0 -1.19 -0.87 0 0 1.19 -1.03 0 1.13 -2.82 -0.9 0 -1.31 3.32 0 0.23 2.11 0 0 0.7 0.87 0 0 -0.7 0.54 0 0 -0.73zm2.21 -0.27l5.79 0 0 -0.73 -5.79 0 0 0.73zm9.23 -2.55l-1 2.31 -1.08 -2.31 -0.97 0 1.58 3.26c-0.14,0.17 -0.34,0.27 -0.59,0.27 -0.13,0 -0.24,-0.01 -0.34,-0.02l0 0.74c0.15,0.04 0.31,0.07 0.48,0.07 0.77,-0.02 1.03,-0.36 1.4,-1.14l1.45 -3.18 -0.93 0zm4.48 2.99c0,-0.44 -0.22,-0.79 -0.61,-0.98 0.26,-0.21 0.42,-0.51 0.42,-0.85 0,-0.77 -0.53,-1.24 -1.4,-1.24 -0.7,0 -1.24,0.35 -1.53,0.93l0.6 0.43c0.21,-0.36 0.51,-0.55 0.88,-0.55 0.38,0 0.6,0.2 0.6,0.5 0,0.29 -0.21,0.49 -0.57,0.49l-0.49 0 0 0.71 0.56 0c0.45,0 0.69,0.21 0.69,0.52 0,0.35 -0.33,0.57 -0.77,0.57 -0.43,0 -0.78,-0.21 -1.06,-0.62l-0.6 0.44c0.3,0.61 0.91,0.98 1.67,0.98 0.97,0 1.61,-0.53 1.61,-1.33zm2.37 -0.44l5.78 0 0 -0.73 -5.78 0 0 0.73zm8.39 1.7l0.87 0 0 -3.46 1.86 0 0 -0.79 -2.73 0 0 4.25z"/>
  <path class="fil0" d="M0.83 14.3l0.28 0 0 -2.11 0.83 0 0 -0.25 -1.94 0 0 0.25 0.83 0 0 2.11zm2.62 -1.78l-1.06 1.27 0 -1.23 -0.27 0 0 1.78 0.1 0 1.06 -1.27 0 1.23 0.27 0 0 -1.78 -0.1 0zm0.7 1.78l0.28 0 0 -1.49 0.84 0 0 1.49 0.27 0 0 -1.74 -1.39 0 0 1.74zm4.42 -0.53c0,-0.19 -0.12,-0.34 -0.32,-0.41 0.11,-0.08 0.18,-0.2 0.18,-0.34 0,-0.28 -0.22,-0.46 -0.56,-0.46l-0.72 0 0 1.74 0.81 0c0.37,0 0.61,-0.21 0.61,-0.53zm-1.15 -0.96l0.45 0c0.19,0 0.29,0.07 0.29,0.23 0,0.14 -0.1,0.23 -0.29,0.23l-0.45 0 0 -0.46zm0.88 0.96c0,0.17 -0.13,0.29 -0.36,0.29l-0.52 0 0 -0.55 0.52 0c0.23,0 0.36,0.1 0.36,0.26zm2.33 -0.26c0.01,-0.07 0.02,-0.14 0.02,-0.2 0,-0.46 -0.34,-0.79 -0.79,-0.79 -0.5,0 -0.89,0.41 -0.89,0.91 0,0.51 0.4,0.91 0.92,0.91 0.27,0 0.51,-0.11 0.69,-0.3l-0.16 -0.19c-0.15,0.16 -0.33,0.24 -0.53,0.24 -0.34,0 -0.61,-0.23 -0.64,-0.58l1.38 0zm-1.37 -0.24c0.06,-0.3 0.3,-0.5 0.59,-0.5 0.29,0 0.51,0.19 0.52,0.5l-1.11 0zm1.87 1.03l0.28 0 0 -0.8 0.85 0 0 0.8 0.27 0 0 -1.74 -0.27 0 0 0.69 -0.85 0 0 -0.69 -0.28 0 0 1.74zm2.36 0l0.27 0 0 -1.49 0.59 0 0 -0.25 -1.44 0 0 0.25 0.58 0 0 1.49zm2.57 -1.78l-1.06 1.27 0 -1.23 -0.27 0 0 1.78 0.1 0 1.06 -1.27 0 1.23 0.27 0 0 -1.78 -0.1 0zm0.84 0.04l-0.01 0.45c-0.01,0.72 -0.09,1.07 -0.32,1.07 -0.02,0 -0.04,-0.01 -0.07,-0.01l0 0.23c0.03,0.01 0.06,0.01 0.09,0.01 0.41,-0.01 0.53,-0.38 0.56,-1.29l0.01 -0.21 0.65 0 0 1.49 0.27 0 0 -1.74 -1.18 0zm2.36 0c-0.37,0 -0.61,0.22 -0.61,0.56 0,0.24 0.15,0.43 0.41,0.51l-0.51 0.67 0.32 0 0.48 -0.64 0.33 0 0 0.64 0.28 0 0 -1.74 -0.7 0zm0.42 0.86l-0.39 0c-0.22,0 -0.36,-0.12 -0.36,-0.31 0,-0.18 0.13,-0.3 0.35,-0.3l0.4 0 0 0.61zm1.24 0.88l0.27 0 0 -1.49 0.59 0 0 -0.25 -1.45 0 0 0.25 0.59 0 0 1.49zm1.11 -0.87c-0.01,0.49 0.41,0.92 0.9,0.91 0.5,0.01 0.93,-0.42 0.92,-0.91 0.01,-0.5 -0.42,-0.92 -0.91,-0.91 -0.5,-0.01 -0.92,0.41 -0.91,0.91zm1.54 0c0,0.37 -0.28,0.65 -0.64,0.65 -0.35,0 -0.62,-0.28 -0.62,-0.65 0,-0.37 0.27,-0.65 0.63,-0.65 0.35,0 0.63,0.28 0.63,0.65zm2.53 0c0,-0.51 -0.36,-0.91 -0.86,-0.91 -0.27,0 -0.52,0.12 -0.65,0.32l0 -0.28 -0.26 0 0 2.38 0.28 0 0 -0.89c0.14,0.18 0.38,0.29 0.63,0.29 0.49,0 0.86,-0.4 0.86,-0.91zm-0.28 0c0,0.38 -0.26,0.66 -0.62,0.66 -0.32,0 -0.6,-0.22 -0.6,-0.66 0,-0.44 0.29,-0.65 0.6,-0.65 0.36,0 0.62,0.28 0.62,0.65zm2.07 -0.2c0,-0.46 -0.27,-0.71 -0.68,-0.71 -0.29,0 -0.55,0.13 -0.7,0.38l0.18 0.15c0.14,-0.18 0.29,-0.27 0.51,-0.27 0.26,0 0.42,0.15 0.42,0.43l0 0.15 -0.55 0c-0.38,0 -0.63,0.19 -0.63,0.49 0,0.3 0.25,0.49 0.61,0.49 0.25,0 0.46,-0.09 0.58,-0.26l0 0.22 0.26 0 0 -1.07zm-0.27 0.4c0,0.27 -0.25,0.48 -0.54,0.48 -0.2,0 -0.36,-0.1 -0.36,-0.27 0,-0.16 0.14,-0.25 0.38,-0.25l0.52 0 0 0.04z"/>
  <path class="fil0" d="M0.26 19.6l0.28 0 0 -1.14 1.32 0 0 1.14 0.28 0 0 -2.36 -0.28 0 0 0.97 -1.32 0 0 -0.97 -0.28 0 0 2.36zm2.38 -0.87c-0.01,0.49 0.41,0.91 0.91,0.9 0.49,0.01 0.92,-0.41 0.91,-0.9 0.01,-0.5 -0.41,-0.92 -0.91,-0.91 -0.5,-0.01 -0.92,0.41 -0.91,0.91zm1.54 0c0,0.36 -0.28,0.65 -0.63,0.65 -0.36,0 -0.63,-0.29 -0.63,-0.65 0,-0.38 0.27,-0.66 0.63,-0.66 0.35,0 0.63,0.28 0.63,0.66zm0.76 0.87l0.28 0 0 -1.18 0.59 0.71 0.11 0 0.59 -0.71 0 1.18 0.28 0 0 -1.78 -0.1 0 -0.82 0.98 -0.83 -0.98 -0.1 0 0 1.78zm3.99 -0.79c0.01,-0.07 0.02,-0.14 0.02,-0.21 0,-0.46 -0.34,-0.78 -0.79,-0.78 -0.5,0 -0.89,0.41 -0.89,0.91 0,0.51 0.4,0.91 0.92,0.91 0.28,0 0.52,-0.12 0.7,-0.31l-0.16 -0.18c-0.16,0.16 -0.34,0.23 -0.54,0.23 -0.34,0 -0.6,-0.22 -0.63,-0.57l1.37 0zm-1.36 -0.24c0.06,-0.3 0.29,-0.5 0.58,-0.5 0.29,0 0.52,0.19 0.52,0.5l-1.1 0zm3.64 0.16c0,-0.51 -0.37,-0.91 -0.86,-0.91 -0.27,0 -0.53,0.12 -0.66,0.32l0 -0.28 -0.26 0 0 2.38 0.28 0 0 -0.89c0.14,0.18 0.38,0.29 0.64,0.29 0.49,0 0.86,-0.4 0.86,-0.91zm-0.28 0c0,0.37 -0.27,0.65 -0.62,0.65 -0.32,0 -0.6,-0.21 -0.6,-0.65 0,-0.44 0.29,-0.66 0.6,-0.66 0.35,0 0.62,0.28 0.62,0.66zm3.19 0.34c0,-0.2 -0.13,-0.34 -0.33,-0.42 0.11,-0.07 0.18,-0.19 0.18,-0.33 0,-0.28 -0.22,-0.46 -0.56,-0.46l-0.72 0 0 1.74 0.81 0c0.37,0 0.62,-0.22 0.62,-0.53zm-1.15 -0.97l0.44 0c0.19,0 0.29,0.08 0.29,0.23 0,0.15 -0.1,0.24 -0.29,0.24l-0.44 0 0 -0.47zm0.87 0.97c0,0.17 -0.13,0.28 -0.36,0.28l-0.51 0 0 -0.54 0.51 0c0.23,0 0.36,0.1 0.36,0.26zm2.33 -0.26c0.02,-0.07 0.02,-0.14 0.02,-0.21 0,-0.46 -0.34,-0.78 -0.79,-0.78 -0.5,0 -0.89,0.41 -0.89,0.91 0,0.51 0.4,0.91 0.92,0.91 0.28,0 0.52,-0.12 0.7,-0.31l-0.16 -0.18c-0.16,0.16 -0.34,0.23 -0.53,0.23 -0.35,0 -0.61,-0.22 -0.64,-0.57l1.37 0zm-1.36 -0.24c0.06,-0.3 0.29,-0.5 0.58,-0.5 0.29,0 0.52,0.19 0.52,0.5l-1.1 0zm1.86 1.03l0.28 0 0 -0.81 0.85 0 0 0.81 0.28 0 0 -1.74 -0.28 0 0 0.69 -0.85 0 0 -0.69 -0.28 0 0 1.74zm2.37 0l0.27 0 0 -1.5 0.58 0 0 -0.24 -1.44 0 0 0.24 0.59 0 0 1.5zm2.57 -1.78l-1.06 1.27 0 -1.23 -0.28 0 0 1.78 0.1 0 1.06 -1.27 0 1.23 0.28 0 0 -1.78 -0.1 0zm0.84 0.04l-0.01 0.45c-0.02,0.72 -0.1,1.06 -0.33,1.06 -0.01,0 -0.04,0 -0.07,0l0 0.23c0.03,0.01 0.06,0.01 0.1,0.01 0.41,-0.01 0.52,-0.38 0.56,-1.29l0 -0.22 0.65 0 0 1.5 0.28 0 0 -1.74 -1.18 0zm2.36 0c-0.37,0 -0.62,0.22 -0.62,0.56 0,0.24 0.16,0.43 0.41,0.51l-0.5 0.67 0.32 0 0.48 -0.64 0.33 0 0 0.64 0.27 0 0 -1.74 -0.69 0zm0.42 0.86l-0.4 0c-0.22,0 -0.35,-0.12 -0.35,-0.31 0,-0.19 0.13,-0.31 0.35,-0.31l0.4 0 0 0.62zm1.23 0.88l0.27 0 0 -1.5 0.59 0 0 -0.24 -1.44 0 0 0.24 0.58 0 0 1.5zm1.11 -0.87c-0.01,0.49 0.41,0.91 0.91,0.9 0.49,0.01 0.92,-0.41 0.91,-0.9 0.01,-0.5 -0.41,-0.92 -0.91,-0.91 -0.5,-0.01 -0.92,0.41 -0.91,0.91zm1.54 0c0,0.36 -0.28,0.65 -0.63,0.65 -0.36,0 -0.63,-0.29 -0.63,-0.65 0,-0.38 0.27,-0.66 0.63,-0.66 0.35,0 0.63,0.28 0.63,0.66zm2.54 0c0,-0.51 -0.37,-0.91 -0.86,-0.91 -0.27,0 -0.53,0.12 -0.66,0.32l0 -0.28 -0.26 0 0 2.38 0.28 0 0 -0.89c0.14,0.18 0.38,0.29 0.64,0.29 0.49,0 0.86,-0.4 0.86,-0.91zm-0.28 0c0,0.37 -0.27,0.65 -0.62,0.65 -0.32,0 -0.61,-0.21 -0.61,-0.65 0,-0.44 0.3,-0.66 0.61,-0.66 0.35,0 0.62,0.28 0.62,0.66zm2.07 -0.2c0,-0.46 -0.27,-0.71 -0.68,-0.71 -0.29,0 -0.55,0.12 -0.71,0.38l0.18 0.15c0.14,-0.19 0.3,-0.28 0.51,-0.28 0.26,0 0.42,0.16 0.42,0.44l0 0.15 -0.55 0c-0.38,0 -0.63,0.19 -0.63,0.49 0,0.3 0.25,0.49 0.61,0.49 0.25,0 0.46,-0.1 0.59,-0.27l0 0.23 0.26 0 0 -1.07zm-0.28 0.4c0,0.27 -0.25,0.48 -0.53,0.48 -0.21,0 -0.36,-0.1 -0.36,-0.28 0,-0.16 0.13,-0.24 0.37,-0.24l0.52 0 0 0.04z"/>
  <path class="fil0" d="M0.26 24.89l0.28 0 0 -2.35 -0.28 0 0 2.35zm0.67 -1.26l1.06 -1.09 -0.36 0 -1.06 1.09 1.16 1.26 0.35 0 -1.15 -1.26zm1.32 0.39c-0.01,0.49 0.41,0.92 0.9,0.91 0.5,0.01 0.93,-0.42 0.92,-0.91 0.01,-0.49 -0.42,-0.91 -0.91,-0.9 -0.5,-0.01 -0.92,0.41 -0.91,0.9zm1.54 0.01c0,0.36 -0.28,0.65 -0.64,0.65 -0.35,0 -0.62,-0.29 -0.62,-0.65 0,-0.38 0.27,-0.66 0.63,-0.66 0.35,0 0.63,0.28 0.63,0.66zm2.06 0.62l0 -1.49 -1.2 0 -0.01 0.48c-0.01,0.53 -0.07,0.84 -0.23,1.01l-0.2 0 0 0.75 0.28 0 0 -0.51 1.36 0 0 0.51 0.28 0 0 -0.75 -0.28 0zm-1.15 0c0.11,-0.16 0.19,-0.52 0.2,-1l0.01 -0.25 0.66 0 0 1.25 -0.87 0zm4.64 -0.63c0,-0.51 -0.37,-0.9 -0.86,-0.9 -0.27,0 -0.53,0.11 -0.66,0.31l0 -0.27 -0.26 0 0 2.38 0.28 0 0 -0.9c0.14,0.19 0.38,0.29 0.64,0.29 0.49,0 0.86,-0.4 0.86,-0.91zm-0.29 0.01c0,0.37 -0.26,0.65 -0.61,0.65 -0.32,0 -0.61,-0.21 -0.61,-0.66 0,-0.44 0.3,-0.65 0.61,-0.65 0.35,0 0.61,0.28 0.61,0.66zm2.07 -0.21c0,-0.45 -0.26,-0.7 -0.68,-0.7 -0.28,0 -0.54,0.12 -0.7,0.38l0.18 0.15c0.14,-0.19 0.3,-0.28 0.51,-0.28 0.26,0 0.42,0.15 0.42,0.44l0 0.15 -0.55 0c-0.38,0 -0.63,0.19 -0.63,0.48 0,0.31 0.25,0.49 0.61,0.49 0.25,0 0.46,-0.09 0.59,-0.26l0 0.22 0.25 0 0 -1.07zm-0.27 0.41c0,0.26 -0.25,0.48 -0.53,0.48 -0.21,0 -0.36,-0.1 -0.36,-0.28 0,-0.16 0.13,-0.25 0.37,-0.25l0.52 0 0 0.05zm2.57 -0.17c0.01,-0.47 -0.4,-0.89 -0.87,-0.88 -0.27,0 -0.52,0.13 -0.67,0.35 0,-0.19 0.02,-0.34 0.06,-0.46 0.03,-0.12 0.11,-0.22 0.23,-0.31 0.12,-0.09 0.3,-0.15 0.55,-0.19 0.26,-0.04 0.44,-0.08 0.55,-0.13l0 -0.26c-0.09,0.04 -0.28,0.08 -0.58,0.14 -0.59,0.1 -0.88,0.33 -0.99,0.67 -0.06,0.17 -0.08,0.39 -0.08,0.66l0 0.3c0,0.58 0.36,0.98 0.89,0.98 0.5,0.01 0.92,-0.4 0.91,-0.87zm-0.28 0c0,0.34 -0.28,0.62 -0.62,0.62 -0.34,0 -0.62,-0.29 -0.62,-0.62 0,-0.35 0.28,-0.63 0.62,-0.63 0.34,0 0.62,0.28 0.62,0.63zm0.64 -0.04c-0.01,0.49 0.41,0.92 0.91,0.91 0.49,0.01 0.92,-0.42 0.91,-0.91 0.01,-0.49 -0.41,-0.91 -0.91,-0.9 -0.5,-0.01 -0.92,0.41 -0.91,0.9zm1.54 0.01c0,0.36 -0.28,0.65 -0.63,0.65 -0.36,0 -0.63,-0.29 -0.63,-0.65 0,-0.38 0.27,-0.66 0.63,-0.66 0.35,0 0.63,0.28 0.63,0.66zm1.77 -0.87l0 0.81c-0.11,0.04 -0.26,0.07 -0.39,0.07 -0.31,0 -0.47,-0.15 -0.47,-0.45l0 -0.43 -0.27 0 0 0.45c0,0.44 0.27,0.68 0.69,0.68 0.18,0 0.33,-0.03 0.44,-0.08l0 0.68 0.27 0 0 -1.73 -0.27 0zm2.42 0.95c0.01,-0.07 0.02,-0.14 0.02,-0.21 0,-0.46 -0.35,-0.78 -0.8,-0.78 -0.49,0 -0.89,0.4 -0.89,0.91 0,0.51 0.41,0.9 0.93,0.9 0.27,0 0.51,-0.11 0.69,-0.3l-0.16 -0.19c-0.16,0.16 -0.33,0.24 -0.53,0.24 -0.34,0 -0.61,-0.23 -0.64,-0.57l1.38 0zm-1.37 -0.24c0.06,-0.3 0.3,-0.5 0.59,-0.5 0.29,0 0.51,0.19 0.51,0.5l-1.1 0zm1.87 1.02l0.27 0 0 -1.49 0.9 0 0 -0.24 -1.17 0 0 1.73zm1.35 -0.87c-0.01,0.49 0.41,0.92 0.91,0.91 0.49,0.01 0.92,-0.42 0.91,-0.91 0.01,-0.49 -0.41,-0.91 -0.91,-0.9 -0.5,-0.01 -0.92,0.41 -0.91,0.9zm1.54 0.01c0,0.36 -0.28,0.65 -0.63,0.65 -0.36,0 -0.63,-0.29 -0.63,-0.65 0,-0.38 0.27,-0.66 0.63,-0.66 0.35,0 0.63,0.28 0.63,0.66zm1.76 0.86l0.28 0 0 -1.73 -0.28 0 0 1.73zm0.65 -0.94l0.74 -0.79 -0.34 0 -0.74 0.79 0.81 0.94 0.35 0 -0.82 -0.94zm1.01 0.07c0,0.49 0.41,0.92 0.91,0.91 0.5,0.01 0.93,-0.42 0.92,-0.91 0.01,-0.49 -0.42,-0.91 -0.92,-0.9 -0.49,-0.01 -0.92,0.41 -0.91,0.9zm1.54 0.01c0,0.36 -0.27,0.65 -0.63,0.65 -0.35,0 -0.62,-0.29 -0.62,-0.65 0,-0.38 0.27,-0.66 0.62,-0.66 0.36,0 0.63,0.28 0.63,0.66zm0.9 -0.87l-0.01 0.45c-0.01,0.71 -0.09,1.06 -0.32,1.06 -0.02,0 -0.04,0 -0.07,-0.01l0 0.23c0.03,0.02 0.06,0.02 0.09,0.02 0.41,-0.02 0.53,-0.39 0.56,-1.29l0.01 -0.22 0.65 0 0 1.49 0.27 0 0 -1.73 -1.18 0zm3.33 0.95c0.01,-0.07 0.02,-0.14 0.02,-0.21 0,-0.46 -0.35,-0.78 -0.8,-0.78 -0.49,0 -0.89,0.4 -0.89,0.91 0,0.51 0.41,0.9 0.93,0.9 0.27,0 0.51,-0.11 0.69,-0.3l-0.16 -0.19c-0.15,0.16 -0.33,0.24 -0.53,0.24 -0.34,0 -0.61,-0.23 -0.64,-0.57l1.38 0zm-1.37 -0.24c0.06,-0.3 0.3,-0.5 0.59,-0.5 0.29,0 0.51,0.19 0.51,0.5l-1.1 0zm1.74 0.15c0,0.51 0.41,0.91 0.91,0.91 0.31,0 0.56,-0.14 0.72,-0.37l-0.2 -0.16c-0.14,0.19 -0.31,0.28 -0.51,0.28 -0.36,0 -0.63,-0.29 -0.63,-0.66 0,-0.36 0.27,-0.65 0.63,-0.65 0.2,0 0.38,0.09 0.52,0.28l0.19 -0.16c-0.15,-0.23 -0.41,-0.37 -0.72,-0.37 -0.49,-0.01 -0.92,0.41 -0.91,0.9zm3.4 -0.2c0,-0.45 -0.27,-0.7 -0.68,-0.7 -0.29,0 -0.55,0.12 -0.7,0.38l0.18 0.15c0.14,-0.19 0.29,-0.28 0.51,-0.28 0.26,0 0.42,0.15 0.42,0.44l0 0.15 -0.55 0c-0.38,0 -0.63,0.19 -0.63,0.48 0,0.31 0.25,0.49 0.61,0.49 0.25,0 0.46,-0.09 0.58,-0.26l0 0.22 0.26 0 0 -1.07zm-0.27 0.41c0,0.26 -0.25,0.48 -0.54,0.48 -0.2,0 -0.36,-0.1 -0.36,-0.28 0,-0.16 0.13,-0.25 0.38,-0.25l0.52 0 0 0.05z"/>
  <path class="fil0" d="M2.33 27.8l-0.99 1.36 -0.98 -1.36 -0.1 0 0 2.39 0.28 0 0 -1.69 0.75 1.02 0.1 0 0.76 -1.02 0 1.69 0.28 0 0 -2.39 -0.1 0zm0.6 1.52c-0.01,0.49 0.41,0.92 0.91,0.91 0.49,0.01 0.92,-0.42 0.91,-0.91 0.01,-0.5 -0.41,-0.91 -0.91,-0.91 -0.5,-0.01 -0.92,0.41 -0.91,0.91zm1.54 0c0,0.37 -0.28,0.65 -0.63,0.65 -0.36,0 -0.63,-0.28 -0.63,-0.65 0,-0.37 0.27,-0.65 0.63,-0.65 0.35,0 0.63,0.28 0.63,0.65zm3.06 1.38l0.27 0 0 -0.75 -0.28 0 0 -1.5 -0.28 0 0 1.5 -0.73 0 0 -1.5 -0.27 0 0 1.5 -0.73 0 0 -1.5 -0.28 0 0 1.74 2.3 0 0 0.51zm0.7 -0.51l0.28 0 0 -0.8 0.85 0 0 0.8 0.28 0 0 -1.74 -0.28 0 0 0.7 -0.85 0 0 -0.7 -0.28 0 0 1.74zm1.89 -0.87c-0.01,0.49 0.41,0.92 0.9,0.91 0.5,0.01 0.93,-0.42 0.92,-0.91 0.01,-0.5 -0.42,-0.91 -0.91,-0.91 -0.5,-0.01 -0.92,0.41 -0.91,0.91zm1.54 0c0,0.37 -0.28,0.65 -0.64,0.65 -0.35,0 -0.62,-0.28 -0.62,-0.65 0,-0.37 0.27,-0.65 0.63,-0.65 0.35,0 0.63,0.28 0.63,0.65zm0.63 0c0,0.5 0.41,0.91 0.92,0.91 0.3,0 0.55,-0.15 0.71,-0.38l-0.2 -0.15c-0.14,0.19 -0.31,0.28 -0.51,0.28 -0.36,0 -0.63,-0.3 -0.63,-0.66 0,-0.36 0.27,-0.65 0.63,-0.65 0.2,0 0.38,0.09 0.52,0.28l0.19 -0.16c-0.15,-0.23 -0.41,-0.38 -0.71,-0.38 -0.5,0 -0.93,0.41 -0.92,0.91zm2.45 0.87l0.27 0 0 -1.49 0.59 0 0 -0.25 -1.44 0 0 0.25 0.58 0 0 1.49zm1.24 0l0.69 0c0.39,0 0.65,-0.23 0.65,-0.57 0,-0.34 -0.26,-0.57 -0.65,-0.57l-0.42 0 0 -0.6 -0.27 0 0 1.74zm0.27 -0.24l0 -0.65 0.4 0c0.24,0 0.38,0.13 0.38,0.32 0,0.2 -0.13,0.33 -0.38,0.33l-0.4 0zm4.04 -0.63c0.01,-0.5 -0.42,-0.91 -0.92,-0.91 -0.3,0 -0.55,0.14 -0.71,0.38l0.19 0.16c0.14,-0.19 0.31,-0.28 0.52,-0.28 0.31,0 0.56,0.21 0.62,0.51l-0.74 0 0 0.24 0.75 0c-0.02,0.16 -0.09,0.3 -0.21,0.4 -0.12,0.1 -0.25,0.16 -0.42,0.16 -0.2,0 -0.38,-0.09 -0.52,-0.28l-0.19 0.15c0.16,0.23 0.41,0.38 0.71,0.38 0.51,0 0.92,-0.41 0.92,-0.91zm0.61 -0.87l-0.01 0.46c-0.01,0.71 -0.09,1.06 -0.32,1.06 -0.02,0 -0.04,-0.01 -0.07,-0.01l0 0.23c0.03,0.01 0.06,0.02 0.09,0.02 0.41,-0.02 0.53,-0.39 0.56,-1.3l0.01 -0.21 0.65 0 0 1.49 0.27 0 0 -1.74 -1.18 0zm1.76 1.56c0,0.13 0.1,0.22 0.23,0.22 0.12,0 0.22,-0.09 0.22,-0.22 0,-0.13 -0.1,-0.23 -0.22,-0.23 -0.13,0 -0.23,0.1 -0.23,0.23zm3.38 -0.06l0 -1.5 -1.2 0 -0.01 0.49c-0.01,0.53 -0.07,0.84 -0.23,1.01l-0.19 0 0 0.75 0.27 0 0 -0.51 1.37 0 0 0.51 0.27 0 0 -0.75 -0.28 0zm-1.15 0c0.11,-0.16 0.19,-0.52 0.2,-1l0.01 -0.25 0.67 0 0 1.25 -0.88 0zm3.29 -0.28c0,-0.2 -0.12,-0.35 -0.33,-0.42 0.12,-0.08 0.18,-0.2 0.18,-0.34 0,-0.28 -0.21,-0.46 -0.56,-0.46l-0.71 0 0 1.74 0.8 0c0.38,0 0.62,-0.21 0.62,-0.52zm-1.15 -0.97l0.45 0c0.19,0 0.28,0.07 0.28,0.23 0,0.14 -0.09,0.23 -0.28,0.23l-0.45 0 0 -0.46zm0.88 0.97c0,0.16 -0.14,0.28 -0.36,0.28l-0.52 0 0 -0.54 0.52 0c0.22,0 0.36,0.1 0.36,0.26zm2.12 -1.26l-1.06 1.27 0 -1.23 -0.27 0 0 1.78 0.1 0 1.06 -1.27 0 1.23 0.27 0 0 -1.78 -0.1 0zm0.71 1.78l0.27 0 0 -1.49 0.9 0 0 -0.25 -1.17 0 0 1.74zm2.82 -1.07c0,-0.46 -0.27,-0.71 -0.68,-0.71 -0.29,0 -0.55,0.13 -0.71,0.39l0.19 0.15c0.14,-0.19 0.29,-0.28 0.5,-0.28 0.26,0 0.42,0.15 0.42,0.44l0 0.15 -0.55 0c-0.37,0 -0.62,0.19 -0.62,0.48 0,0.3 0.25,0.49 0.61,0.49 0.25,0 0.45,-0.09 0.58,-0.26l0 0.22 0.26 0 0 -1.07zm-0.28 0.4c0,0.27 -0.24,0.48 -0.53,0.48 -0.2,0 -0.36,-0.1 -0.36,-0.27 0,-0.16 0.13,-0.25 0.38,-0.25l0.51 0 0 0.04zm1.18 0.67l0.27 0 0 -1.49 0.58 0 0 -0.25 -1.44 0 0 0.25 0.59 0 0 1.49zm2.77 -0.78c0.01,-0.08 0.02,-0.14 0.02,-0.21 0,-0.46 -0.34,-0.79 -0.79,-0.79 -0.5,0 -0.89,0.41 -0.89,0.91 0,0.51 0.4,0.91 0.92,0.91 0.27,0 0.51,-0.11 0.7,-0.3l-0.16 -0.19c-0.16,0.16 -0.34,0.24 -0.54,0.24 -0.34,0 -0.61,-0.23 -0.64,-0.57l1.38 0zm-1.37 -0.25c0.06,-0.3 0.3,-0.5 0.59,-0.5 0.29,0 0.51,0.19 0.52,0.5l-1.11 0zm2.01 -0.71l-0.01 0.46c-0.02,0.71 -0.1,1.06 -0.32,1.06 -0.02,0 -0.05,-0.01 -0.08,-0.01l0 0.23c0.03,0.01 0.06,0.02 0.1,0.02 0.41,-0.02 0.53,-0.39 0.56,-1.3l0 -0.21 0.65 0 0 1.49 0.28 0 0 -1.74 -1.18 0zm2.36 0c-0.37,0 -0.62,0.22 -0.62,0.56 0,0.25 0.16,0.44 0.42,0.51l-0.51 0.67 0.32 0 0.48 -0.63 0.33 0 0 0.63 0.27 0 0 -1.74 -0.69 0zm0.42 0.86l-0.4 0c-0.22,0 -0.35,-0.12 -0.35,-0.3 0,-0.19 0.13,-0.31 0.35,-0.31l0.4 0 0 0.61zm0.9 1.52l0.22 0 0.15 -0.96 -0.33 0 -0.04 0.96zm1.98 -0.64l0.27 0 0 -1.74 -0.27 0 0 1.74zm0.65 -0.95l0.74 -0.79 -0.35 0 -0.73 0.8 0.81 0.94 0.34 0 -0.81 -0.95zm2.93 0.27c0,-0.3 -0.17,-0.53 -0.46,-0.61 0.14,-0.12 0.22,-0.27 0.22,-0.47 0,-0.17 -0.06,-0.32 -0.18,-0.43 -0.12,-0.11 -0.28,-0.16 -0.49,-0.16l-0.81 0 0 2.35 0.97 0c0.46,0 0.75,-0.28 0.75,-0.68zm-0.94 -1.42c0.27,0 0.42,0.13 0.42,0.36 0,0.22 -0.15,0.37 -0.42,0.37l-0.5 0 0 -0.73 0.5 0zm0.65 1.42c0,0.26 -0.18,0.43 -0.49,0.43l-0.66 0 0 -0.87 0.66 0c0.31,0 0.49,0.18 0.49,0.44zm1.07 0.68l0.27 0 0 -1.49 0.58 0 0 -0.25 -1.44 0 0 0.25 0.59 0 0 1.49z"/>
  <path class="fil0" d="M1.65 33.13l0 1.16c-0.16,0.07 -0.38,0.1 -0.56,0.1 -0.43,0 -0.66,-0.21 -0.66,-0.67l0 -0.59 -0.28 0 0 0.61c0,0.6 0.34,0.9 0.93,0.9 0.19,0 0.41,-0.03 0.57,-0.1l0 0.95 0.28 0 0 -2.36 -0.28 0zm2.24 0.58l-1.06 1.27 0 -1.23 -0.28 0 0 1.78 0.1 0 1.06 -1.27 0 1.23 0.28 0 0 -1.78 -0.1 0zm0.57 0.91c0,0.5 0.41,0.91 0.92,0.91 0.3,0 0.55,-0.15 0.71,-0.38l-0.2 -0.15c-0.14,0.18 -0.31,0.27 -0.51,0.27 -0.36,0 -0.63,-0.29 -0.63,-0.65 0,-0.36 0.27,-0.66 0.63,-0.66 0.2,0 0.38,0.1 0.52,0.29l0.19 -0.16c-0.15,-0.23 -0.41,-0.38 -0.71,-0.38 -0.5,-0.01 -0.93,0.41 -0.92,0.91zm2.23 -0.87l-0.01 0.45c-0.01,0.72 -0.09,1.06 -0.32,1.06 -0.02,0 -0.04,0 -0.07,0l0 0.23c0.03,0.01 0.06,0.01 0.09,0.01 0.41,-0.01 0.53,-0.38 0.56,-1.29l0.01 -0.21 0.65 0 0 1.49 0.27 0 0 -1.74 -1.18 0zm1.66 0.87c0,0.49 0.42,0.92 0.91,0.9 0.5,0.02 0.93,-0.41 0.92,-0.9 0.01,-0.5 -0.42,-0.92 -0.91,-0.91 -0.5,-0.01 -0.93,0.41 -0.92,0.91zm1.54 0c0,0.37 -0.27,0.65 -0.63,0.65 -0.35,0 -0.62,-0.28 -0.62,-0.65 0,-0.37 0.27,-0.66 0.63,-0.66 0.35,0 0.62,0.29 0.62,0.66zm1.77 0.87l0.27 0 0 -1.49 0.84 0 0 1.49 0.28 0 0 -1.74 -1.39 0 0 1.74zm1.87 -0.87c-0.01,0.49 0.41,0.92 0.9,0.9 0.5,0.02 0.93,-0.41 0.92,-0.9 0.01,-0.5 -0.42,-0.92 -0.91,-0.91 -0.5,-0.01 -0.92,0.41 -0.91,0.91zm1.54 0c0,0.37 -0.28,0.65 -0.64,0.65 -0.35,0 -0.62,-0.28 -0.62,-0.65 0,-0.37 0.27,-0.66 0.63,-0.66 0.35,0 0.63,0.29 0.63,0.66zm0.9 -0.87l-0.01 0.45c-0.02,0.72 -0.1,1.06 -0.32,1.06 -0.02,0 -0.05,0 -0.08,0l0 0.23c0.03,0.01 0.06,0.01 0.1,0.01 0.41,-0.01 0.53,-0.38 0.56,-1.29l0 -0.21 0.65 0 0 1.49 0.28 0 0 -1.74 -1.18 0zm4.16 0.87c0.01,-0.5 -0.41,-0.92 -0.9,-0.91 -0.43,0 -0.8,0.31 -0.88,0.73l-0.32 0 0 -0.69 -0.28 0 0 1.74 0.28 0 0 -0.8 0.31 0c0.03,0.46 0.42,0.83 0.89,0.83 0.49,0.02 0.91,-0.41 0.9,-0.9zm-0.29 0c0,0.37 -0.26,0.65 -0.61,0.65 -0.35,0 -0.61,-0.28 -0.61,-0.65 0,-0.37 0.26,-0.66 0.61,-0.66 0.35,0 0.61,0.3 0.61,0.66zm0.64 0c0,0.5 0.41,0.91 0.91,0.91 0.31,0 0.56,-0.15 0.72,-0.38l-0.2 -0.15c-0.14,0.18 -0.31,0.27 -0.51,0.27 -0.36,0 -0.63,-0.29 -0.63,-0.65 0,-0.36 0.27,-0.66 0.63,-0.66 0.2,0 0.38,0.1 0.52,0.29l0.19 -0.16c-0.16,-0.23 -0.41,-0.38 -0.72,-0.38 -0.49,-0.01 -0.92,0.41 -0.91,0.91zm1.94 0c-0.01,0.49 0.41,0.92 0.9,0.9 0.5,0.02 0.93,-0.41 0.92,-0.9 0.01,-0.5 -0.42,-0.92 -0.91,-0.91 -0.5,-0.01 -0.92,0.41 -0.91,0.91zm1.54 0c0,0.37 -0.28,0.65 -0.64,0.65 -0.35,0 -0.62,-0.28 -0.62,-0.65 0,-0.37 0.27,-0.66 0.63,-0.66 0.35,0 0.63,0.29 0.63,0.66zm2.18 0.34c0,-0.2 -0.12,-0.34 -0.32,-0.41 0.11,-0.08 0.18,-0.2 0.18,-0.34 0,-0.28 -0.22,-0.46 -0.56,-0.46l-0.72 0 0 1.74 0.81 0c0.37,0 0.61,-0.22 0.61,-0.53zm-1.14 -0.96l0.44 0c0.19,0 0.29,0.07 0.29,0.22 0,0.15 -0.1,0.24 -0.29,0.24l-0.44 0 0 -0.46zm0.87 0.96c0,0.17 -0.13,0.29 -0.36,0.29l-0.51 0 0 -0.55 0.51 0c0.23,0 0.36,0.1 0.36,0.26zm3.28 -0.34c0.01,-0.5 -0.42,-0.92 -0.91,-0.91 -0.31,0 -0.56,0.14 -0.72,0.38l0.19 0.16c0.14,-0.19 0.32,-0.29 0.52,-0.29 0.32,0 0.56,0.22 0.62,0.51l-0.74 0 0 0.25 0.75 0c-0.02,0.16 -0.09,0.29 -0.21,0.4 -0.11,0.1 -0.25,0.15 -0.42,0.15 -0.2,0 -0.37,-0.09 -0.51,-0.27l-0.2 0.15c0.16,0.23 0.41,0.38 0.72,0.38 0.5,0 0.91,-0.41 0.91,-0.91zm0.62 -0.87l-0.01 0.45c-0.02,0.72 -0.1,1.06 -0.32,1.06 -0.02,0 -0.05,0 -0.08,0l0 0.23c0.03,0.01 0.06,0.01 0.1,0.01 0.41,-0.01 0.52,-0.38 0.56,-1.29l0 -0.21 0.65 0 0 1.49 0.28 0 0 -1.74 -1.18 0zm1.76 1.55c0,0.13 0.09,0.23 0.22,0.23 0.12,0 0.22,-0.1 0.22,-0.23 0,-0.12 -0.1,-0.22 -0.22,-0.22 -0.13,0 -0.22,0.1 -0.22,0.22zm3.37 -0.05l0 -1.5 -1.2 0 -0.01 0.49c-0.01,0.52 -0.06,0.84 -0.22,1.01l-0.2 0 0 0.74 0.27 0 0 -0.5 1.37 0 0 0.5 0.28 0 0 -0.74 -0.29 0zm-1.15 0c0.12,-0.16 0.19,-0.52 0.2,-1.01l0.02 -0.24 0.66 0 0 1.25 -0.88 0zm3.29 -0.29c0,-0.2 -0.12,-0.34 -0.32,-0.41 0.11,-0.08 0.18,-0.2 0.18,-0.34 0,-0.28 -0.22,-0.46 -0.56,-0.46l-0.72 0 0 1.74 0.81 0c0.37,0 0.61,-0.22 0.61,-0.53zm-1.15 -0.96l0.45 0c0.19,0 0.29,0.07 0.29,0.22 0,0.15 -0.1,0.24 -0.29,0.24l-0.45 0 0 -0.46zm0.88 0.96c0,0.17 -0.13,0.29 -0.36,0.29l-0.52 0 0 -0.55 0.52 0c0.23,0 0.36,0.1 0.36,0.26zm2.13 -1.25l-1.06 1.27 0 -1.23 -0.28 0 0 1.78 0.1 0 1.06 -1.27 0 1.23 0.28 0 0 -1.78 -0.1 0zm0.7 1.78l0.28 0 0 -1.49 0.89 0 0 -0.25 -1.17 0 0 1.74zm2.82 -1.07c0,-0.46 -0.26,-0.71 -0.68,-0.71 -0.29,0 -0.55,0.13 -0.7,0.38l0.18 0.15c0.14,-0.18 0.3,-0.28 0.51,-0.28 0.26,0 0.42,0.16 0.42,0.44l0 0.15 -0.55 0c-0.38,0 -0.63,0.19 -0.63,0.49 0,0.3 0.25,0.49 0.61,0.49 0.25,0 0.46,-0.09 0.59,-0.27l0 0.23 0.25 0 0 -1.07zm-0.27 0.4c0,0.27 -0.25,0.48 -0.53,0.48 -0.21,0 -0.37,-0.1 -0.37,-0.28 0,-0.16 0.14,-0.24 0.38,-0.24l0.52 0 0 0.04zm1.17 0.67l0.27 0 0 -1.49 0.59 0 0 -0.25 -1.45 0 0 0.25 0.59 0 0 1.49zm2.77 -0.79c0.02,-0.07 0.02,-0.14 0.02,-0.2 0,-0.46 -0.34,-0.79 -0.79,-0.79 -0.5,0 -0.89,0.41 -0.89,0.91 0,0.51 0.4,0.91 0.92,0.91 0.28,0 0.52,-0.12 0.7,-0.3l-0.16 -0.19c-0.16,0.16 -0.34,0.23 -0.53,0.23 -0.35,0 -0.61,-0.22 -0.64,-0.57l1.37 0zm-1.36 -0.24c0.06,-0.3 0.29,-0.5 0.58,-0.5 0.29,0 0.52,0.19 0.52,0.5l-1.1 0zm2 -0.71l-0.01 0.45c-0.01,0.72 -0.1,1.06 -0.32,1.06 -0.02,0 -0.04,0 -0.07,0l0 0.23c0.03,0.01 0.06,0.01 0.09,0.01 0.41,-0.01 0.53,-0.38 0.56,-1.29l0.01 -0.21 0.64 0 0 1.49 0.28 0 0 -1.74 -1.18 0zm2.36 0c-0.37,0 -0.61,0.22 -0.61,0.56 0,0.24 0.15,0.43 0.41,0.51l-0.51 0.67 0.32 0 0.48 -0.64 0.33 0 0 0.64 0.27 0 0 -1.74 -0.69 0zm0.42 0.86l-0.4 0c-0.21,0 -0.35,-0.12 -0.35,-0.31 0,-0.19 0.13,-0.3 0.35,-0.3l0.4 0 0 0.61z"/>
  <path class="fil0" d="M0.26 40.79l0.28 0 0 -2.36 -0.28 0 0 2.36zm0.67 -1.27l1.06 -1.09 -0.36 0 -1.06 1.09 1.16 1.27 0.35 0 -1.15 -1.27zm1.7 -0.47l-0.01 0.45c-0.01,0.72 -0.09,1.06 -0.32,1.06 -0.02,0 -0.04,0 -0.07,-0.01l0 0.24c0.03,0.01 0.06,0.01 0.09,0.01 0.41,-0.01 0.53,-0.38 0.56,-1.29l0.01 -0.22 0.65 0 0 1.5 0.27 0 0 -1.74 -1.18 0zm3.12 -0.04l-1.06 1.27 0 -1.23 -0.27 0 0 1.78 0.1 0 1.06 -1.27 0 1.23 0.27 0 0 -1.78 -0.1 0zm0.71 1.78l0.27 0 0 -1.18 0.6 0.71 0.1 0 0.6 -0.71 0 1.18 0.27 0 0 -1.78 -0.1 0 -0.82 0.98 -0.82 -0.98 -0.1 0 0 1.78zm3.75 -1.07c0,-0.46 -0.27,-0.71 -0.68,-0.71 -0.29,0 -0.55,0.12 -0.7,0.38l0.18 0.15c0.14,-0.19 0.29,-0.28 0.51,-0.28 0.26,0 0.42,0.15 0.42,0.44l0 0.15 -0.55 0c-0.38,0 -0.63,0.19 -0.63,0.49 0,0.3 0.25,0.49 0.61,0.49 0.25,0 0.46,-0.1 0.59,-0.27l0 0.23 0.25 0 0 -1.07zm-0.27 0.4c0,0.27 -0.25,0.48 -0.54,0.48 -0.2,0 -0.36,-0.1 -0.36,-0.28 0,-0.16 0.14,-0.24 0.38,-0.24l0.52 0 0 0.04zm1.17 0.67l0.27 0 0 -1.5 0.59 0 0 -0.24 -1.45 0 0 0.24 0.59 0 0 1.5zm2.57 -1.78l-1.06 1.27 0 -1.23 -0.27 0 0 1.78 0.1 0 1.06 -1.27 0 1.23 0.27 0 0 -1.78 -0.1 0zm1.71 0.04l0 0.81c-0.11,0.04 -0.26,0.07 -0.39,0.07 -0.31,0 -0.47,-0.15 -0.47,-0.44l0 -0.44 -0.27 0 0 0.45c0,0.44 0.27,0.68 0.69,0.68 0.18,0 0.33,-0.03 0.44,-0.08l0 0.69 0.27 0 0 -1.74 -0.27 0zm2.42 0.95c0.01,-0.07 0.02,-0.14 0.02,-0.21 0,-0.46 -0.35,-0.78 -0.79,-0.78 -0.5,0 -0.89,0.4 -0.89,0.91 0,0.51 0.4,0.91 0.92,0.91 0.27,0 0.51,-0.12 0.69,-0.31l-0.16 -0.18c-0.15,0.15 -0.33,0.23 -0.53,0.23 -0.34,0 -0.61,-0.23 -0.64,-0.57l1.38 0zm-1.37 -0.24c0.06,-0.3 0.3,-0.5 0.59,-0.5 0.29,0 0.51,0.19 0.52,0.5l-1.11 0zm1.74 0.15c0,0.51 0.41,0.92 0.92,0.92 0.3,0 0.55,-0.15 0.71,-0.38l-0.2 -0.16c-0.14,0.19 -0.31,0.28 -0.51,0.28 -0.36,0 -0.63,-0.29 -0.63,-0.66 0,-0.36 0.27,-0.65 0.63,-0.65 0.2,0 0.38,0.09 0.52,0.28l0.19 -0.15c-0.15,-0.24 -0.41,-0.38 -0.71,-0.38 -0.5,-0.01 -0.93,0.41 -0.92,0.9zm2.1 0.88l0.27 0 0 -1.74 -0.27 0 0 1.74zm0.64 -0.95l0.74 -0.79 -0.34 0 -0.73 0.79 0.81 0.95 0.34 0 -0.82 -0.95zm1.02 0.07c-0.01,0.49 0.41,0.92 0.91,0.91 0.49,0.01 0.92,-0.42 0.91,-0.91 0.01,-0.49 -0.41,-0.91 -0.91,-0.9 -0.5,-0.01 -0.92,0.41 -0.91,0.9zm1.54 0.01c0,0.36 -0.28,0.65 -0.63,0.65 -0.36,0 -0.63,-0.29 -0.63,-0.65 0,-0.38 0.27,-0.66 0.63,-0.66 0.35,0 0.63,0.28 0.63,0.66zm2.3 0.08c0.01,-0.07 0.02,-0.14 0.02,-0.21 0,-0.46 -0.34,-0.78 -0.79,-0.78 -0.5,0 -0.89,0.4 -0.89,0.91 0,0.51 0.4,0.91 0.92,0.91 0.27,0 0.51,-0.12 0.7,-0.31l-0.16 -0.18c-0.16,0.15 -0.34,0.23 -0.54,0.23 -0.34,0 -0.6,-0.23 -0.64,-0.57l1.38 0zm-1.37 -0.24c0.07,-0.3 0.3,-0.5 0.59,-0.5 0.29,0 0.52,0.19 0.52,0.5l-1.11 0zm4.21 -0.75l-1.06 1.27 0 -1.23 -0.28 0 0 1.78 0.1 0 1.06 -1.27 0 1.23 0.28 0 0 -1.78 -0.1 0zm0.58 0.9c0,0.51 0.4,0.92 0.91,0.92 0.3,0 0.55,-0.15 0.71,-0.38l-0.19 -0.16c-0.14,0.19 -0.31,0.28 -0.52,0.28 -0.36,0 -0.63,-0.29 -0.63,-0.66 0,-0.36 0.27,-0.65 0.63,-0.65 0.21,0 0.38,0.09 0.52,0.28l0.2 -0.15c-0.16,-0.24 -0.42,-0.38 -0.72,-0.38 -0.5,-0.01 -0.92,0.41 -0.91,0.9zm2.09 0.88l0.28 0 0 -1.5 0.83 0 0 1.5 0.28 0 0 -1.74 -1.39 0 0 1.74zm1.87 -0.88c-0.01,0.49 0.41,0.92 0.91,0.91 0.49,0.01 0.92,-0.42 0.91,-0.91 0.01,-0.49 -0.41,-0.91 -0.91,-0.9 -0.5,-0.01 -0.92,0.41 -0.91,0.9zm1.54 0.01c0,0.36 -0.28,0.65 -0.63,0.65 -0.36,0 -0.63,-0.29 -0.63,-0.65 0,-0.38 0.27,-0.66 0.63,-0.66 0.35,0 0.63,0.28 0.63,0.66zm0.9 -0.87l-0.01 0.45c-0.02,0.72 -0.1,1.06 -0.32,1.06 -0.02,0 -0.05,0 -0.07,-0.01l0 0.24c0.02,0.01 0.06,0.01 0.09,0.01 0.41,-0.01 0.53,-0.38 0.56,-1.29l0.01 -0.22 0.64 0 0 1.5 0.28 0 0 -1.74 -1.18 0zm1.79 1.74l0.27 0 0 -0.81 0.85 0 0 0.81 0.28 0 0 -1.74 -0.28 0 0 0.69 -0.85 0 0 -0.69 -0.27 0 0 1.74zm3.54 -0.79c0.01,-0.07 0.02,-0.14 0.02,-0.21 0,-0.46 -0.34,-0.78 -0.79,-0.78 -0.5,0 -0.89,0.4 -0.89,0.91 0,0.51 0.4,0.91 0.92,0.91 0.27,0 0.51,-0.12 0.7,-0.31l-0.16 -0.18c-0.16,0.15 -0.34,0.23 -0.54,0.23 -0.34,0 -0.6,-0.23 -0.64,-0.57l1.38 0zm-1.37 -0.24c0.06,-0.3 0.3,-0.5 0.59,-0.5 0.29,0 0.51,0.19 0.52,0.5l-1.11 0zm1.87 1.03l0.28 0 0 -0.81 0.85 0 0 0.81 0.28 0 0 -1.74 -0.28 0 0 0.69 -0.85 0 0 -0.69 -0.28 0 0 1.74zm3.35 -1.78l-1.06 1.27 0 -1.23 -0.28 0 0 1.78 0.1 0 1.06 -1.27 0 1.23 0.28 0 0 -1.78 -0.1 0zm2.24 0.99c0.01,-0.07 0.02,-0.14 0.02,-0.21 0,-0.46 -0.35,-0.78 -0.8,-0.78 -0.49,0 -0.89,0.4 -0.89,0.91 0,0.51 0.41,0.91 0.93,0.91 0.27,0 0.51,-0.12 0.69,-0.31l-0.16 -0.18c-0.16,0.15 -0.33,0.23 -0.53,0.23 -0.34,0 -0.61,-0.23 -0.64,-0.57l1.38 0zm-1.37 -0.24c0.06,-0.3 0.3,-0.5 0.59,-0.5 0.29,0 0.51,0.19 0.51,0.5l-1.1 0zm4.29 0.5c0,-0.2 -0.12,-0.35 -0.32,-0.42 0.11,-0.07 0.18,-0.19 0.18,-0.33 0,-0.28 -0.22,-0.46 -0.56,-0.46l-0.72 0 0 1.74 0.81 0c0.37,0 0.61,-0.22 0.61,-0.53zm-1.15 -0.97l0.45 0c0.19,0 0.29,0.08 0.29,0.23 0,0.15 -0.1,0.24 -0.29,0.24l-0.45 0 0 -0.47zm0.88 0.97c0,0.17 -0.13,0.28 -0.36,0.28l-0.52 0 0 -0.54 0.52 0c0.23,0 0.36,0.1 0.36,0.26zm2.33 -0.26c0.01,-0.07 0.02,-0.14 0.02,-0.21 0,-0.46 -0.34,-0.78 -0.79,-0.78 -0.5,0 -0.89,0.4 -0.89,0.91 0,0.51 0.4,0.91 0.92,0.91 0.27,0 0.51,-0.12 0.69,-0.31l-0.16 -0.18c-0.15,0.15 -0.33,0.23 -0.53,0.23 -0.34,0 -0.61,-0.23 -0.64,-0.57l1.38 0zm-1.37 -0.24c0.06,-0.3 0.3,-0.5 0.59,-0.5 0.29,0 0.51,0.19 0.52,0.5l-1.11 0zm1.87 1.03l0.28 0 0 -0.81 0.85 0 0 0.81 0.27 0 0 -1.74 -0.27 0 0 0.69 -0.85 0 0 -0.69 -0.28 0 0 1.74zm2.36 0l0.27 0 0 -1.5 0.59 0 0 -0.24 -1.44 0 0 0.24 0.58 0 0 1.5zm2.57 -1.78l-1.06 1.27 0 -1.23 -0.27 0 0 1.78 0.1 0 1.06 -1.27 0 1.23 0.27 0 0 -1.78 -0.1 0zm0.84 0.04l-0.01 0.45c-0.01,0.72 -0.09,1.06 -0.32,1.06 -0.02,0 -0.04,0 -0.07,-0.01l0 0.24c0.03,0.01 0.06,0.01 0.09,0.01 0.41,-0.01 0.53,-0.38 0.56,-1.29l0.01 -0.22 0.65 0 0 1.5 0.27 0 0 -1.74 -1.18 0zm2.37 0c-0.38,0 -0.62,0.21 -0.62,0.55 0,0.25 0.15,0.44 0.41,0.52l-0.51 0.67 0.33 0 0.47 -0.64 0.33 0 0 0.64 0.28 0 0 -1.74 -0.69 0zm0.41 0.86l-0.39 0c-0.22,0 -0.36,-0.12 -0.36,-0.31 0,-0.19 0.13,-0.31 0.35,-0.31l0.4 0 0 0.62zm1.24 0.88l0.27 0 0 -1.5 0.59 0 0 -0.24 -1.45 0 0 0.24 0.59 0 0 1.5zm1.11 -0.88c-0.01,0.49 0.41,0.92 0.91,0.91 0.49,0.01 0.92,-0.42 0.91,-0.91 0.01,-0.49 -0.41,-0.91 -0.91,-0.9 -0.5,-0.01 -0.92,0.41 -0.91,0.9zm1.54 0.01c0,0.36 -0.28,0.65 -0.63,0.65 -0.36,0 -0.63,-0.29 -0.63,-0.65 0,-0.38 0.27,-0.66 0.63,-0.66 0.35,0 0.63,0.28 0.63,0.66zm2.54 -0.01c0,-0.51 -0.37,-0.9 -0.86,-0.9 -0.27,0 -0.53,0.12 -0.66,0.32l0 -0.28 -0.26 0 0 2.38 0.28 0 0 -0.89c0.14,0.18 0.38,0.29 0.64,0.29 0.49,0 0.86,-0.4 0.86,-0.92zm-0.28 0.01c0,0.37 -0.27,0.65 -0.62,0.65 -0.32,0 -0.6,-0.21 -0.6,-0.66 0,-0.43 0.29,-0.65 0.6,-0.65 0.35,0 0.62,0.28 0.62,0.66zm2.07 -0.2c0,-0.46 -0.27,-0.71 -0.68,-0.71 -0.29,0 -0.55,0.12 -0.71,0.38l0.18 0.15c0.14,-0.19 0.3,-0.28 0.51,-0.28 0.26,0 0.42,0.15 0.42,0.44l0 0.15 -0.55 0c-0.37,0 -0.63,0.19 -0.63,0.49 0,0.3 0.26,0.49 0.61,0.49 0.26,0 0.46,-0.1 0.59,-0.27l0 0.23 0.26 0 0 -1.07zm-0.28 0.4c0,0.27 -0.25,0.48 -0.53,0.48 -0.21,0 -0.36,-0.1 -0.36,-0.28 0,-0.16 0.13,-0.24 0.37,-0.24l0.52 0 0 0.04z"/>
  <path class="fil0" d="M0.24 45.07l0.27 0 0 -1.49 0.84 0 0 1.49 0.28 0 0 -1.74 -1.39 0 0 1.74zm1.76 -0.87c-0.01,0.49 0.41,0.92 0.9,0.91 0.5,0.01 0.93,-0.42 0.92,-0.91 0.01,-0.49 -0.42,-0.91 -0.91,-0.91 -0.5,-0.01 -0.92,0.42 -0.91,0.91zm1.54 0.01c0,0.36 -0.28,0.65 -0.64,0.65 -0.35,0 -0.62,-0.29 -0.62,-0.65 0,-0.38 0.27,-0.66 0.63,-0.66 0.35,0 0.63,0.28 0.63,0.66zm1.57 0.86l0.28 0 0 -2.1 1.12 0 0 -0.25 -1.4 0 0 2.35zm1.47 -1.18c-0.01,0.67 0.56,1.24 1.23,1.22 0.66,0.01 1.24,-0.54 1.22,-1.22 0.02,-0.67 -0.56,-1.22 -1.22,-1.21 -0.67,-0.01 -1.24,0.54 -1.23,1.21zm2.16 0c0.01,0.54 -0.41,0.97 -0.93,0.97 -0.53,0 -0.94,-0.42 -0.94,-0.97 0,-0.55 0.41,-0.96 0.94,-0.96 0.52,-0.01 0.94,0.43 0.93,0.96zm0.53 0c-0.02,0.68 0.55,1.23 1.22,1.22 0.42,0 0.78,-0.19 0.98,-0.5l-0.21 -0.17c-0.18,0.26 -0.44,0.42 -0.76,0.42 -0.54,0 -0.94,-0.42 -0.94,-0.97 0,-0.54 0.4,-0.96 0.94,-0.96 0.32,0 0.58,0.16 0.76,0.42l0.21 -0.17c-0.2,-0.31 -0.56,-0.5 -0.98,-0.5 -0.67,-0.01 -1.24,0.54 -1.22,1.21zm3.17 1.18l0.28 0 0 -2.1 0.83 0 0 -0.25 -1.94 0 0 0.25 0.83 0 0 2.1zm2.65 -2.35l-0.76 0.25 0.07 0.24 0.51 -0.17 0 2.03 0.28 0 0 -2.35 -0.1 0zm2.17 1.61c0,-0.49 -0.37,-0.73 -0.81,-0.73 -0.11,0 -0.22,0.01 -0.33,0.03l0 -0.66 1.01 0 0 -0.25 -1.29 0 0 1.12 0.53 0c0.39,0 0.6,0.18 0.6,0.49 0,0.31 -0.23,0.53 -0.55,0.53 -0.28,0 -0.47,-0.15 -0.62,-0.38l-0.19 0.15c0.16,0.28 0.44,0.48 0.82,0.48 0.44,0 0.83,-0.31 0.83,-0.78zm0.95 -1.61l-0.76 0.25 0.07 0.24 0.52 -0.17 0 2.03 0.27 0 0 -2.35 -0.1 0zm2.17 1.61c0,-0.49 -0.37,-0.73 -0.8,-0.73 -0.12,0 -0.23,0.01 -0.34,0.03l0 -0.66 1.01 0 0 -0.25 -1.29 0 0 1.12 0.53 0c0.39,0 0.6,0.18 0.6,0.49 0,0.31 -0.23,0.53 -0.55,0.53 -0.28,0 -0.47,-0.15 -0.61,-0.38l-0.2 0.15c0.16,0.28 0.44,0.48 0.82,0.48 0.44,0 0.83,-0.31 0.83,-0.78zm0.32 -0.46c0,0.36 0.08,0.66 0.22,0.9 0.15,0.23 0.36,0.34 0.65,0.34 0.29,0 0.5,-0.11 0.65,-0.34 0.14,-0.24 0.21,-0.54 0.21,-0.9 0,-0.36 -0.07,-0.65 -0.22,-0.87 -0.14,-0.21 -0.36,-0.32 -0.64,-0.32 -0.29,0 -0.5,0.11 -0.65,0.32 -0.14,0.22 -0.22,0.51 -0.22,0.87zm1.44 0.01c0,0.6 -0.17,0.98 -0.57,0.98 -0.4,0 -0.58,-0.38 -0.58,-0.98 0,-0.59 0.18,-0.95 0.58,-0.95 0.4,0 0.57,0.36 0.57,0.95zm0.57 0.19l1.5 0 0 -0.24 -1.5 0 0 0.24zm3.34 0.25c0,-0.43 -0.36,-0.77 -0.77,-0.77 -0.08,0 -0.14,0.01 -0.2,0.03l0.6 -0.86 -0.33 0 -0.59 0.85c-0.01,0.01 -0.02,0.04 -0.05,0.07 -0.09,0.14 -0.16,0.25 -0.21,0.35 -0.04,0.1 -0.06,0.2 -0.06,0.33 0,0.45 0.36,0.79 0.8,0.79 0.45,0 0.81,-0.34 0.81,-0.79zm-0.28 0c0,0.3 -0.23,0.54 -0.53,0.54 -0.3,0 -0.53,-0.24 -0.53,-0.54 0,-0.3 0.23,-0.54 0.53,-0.54 0.3,0 0.53,0.24 0.53,0.54zm2.14 -0.85c0,-0.45 -0.36,-0.79 -0.8,-0.79 -0.45,0 -0.81,0.34 -0.81,0.79 0,0.43 0.36,0.77 0.77,0.77 0.07,0 0.14,-0.01 0.2,-0.03l-0.6 0.86 0.33 0 0.58 -0.85c0.09,-0.13 0.15,-0.22 0.19,-0.28 0.04,-0.06 0.07,-0.13 0.09,-0.21 0.03,-0.08 0.05,-0.16 0.05,-0.26zm-0.28 0c0,0.3 -0.22,0.53 -0.52,0.53 -0.3,0 -0.54,-0.23 -0.54,-0.53 0,-0.31 0.24,-0.54 0.54,-0.54 0.3,0 0.52,0.23 0.52,0.54zm1.55 1.6l0.27 0 0 -1.49 0.84 0 0 1.49 0.28 0 0 -1.74 -1.39 0 0 1.74zm1.76 -0.87c-0.01,0.49 0.41,0.92 0.91,0.91 0.49,0.01 0.92,-0.42 0.91,-0.91 0.01,-0.49 -0.41,-0.91 -0.91,-0.91 -0.5,-0.01 -0.92,0.42 -0.91,0.91zm1.54 0.01c0,0.36 -0.28,0.65 -0.63,0.65 -0.36,0 -0.63,-0.29 -0.63,-0.65 0,-0.38 0.27,-0.66 0.63,-0.66 0.35,0 0.63,0.28 0.63,0.66zm2.79 -0.88l-0.58 1.39 -0.57 -1.39 -0.3 0 0.72 1.69 -0.09 0.21c-0.09,0.21 -0.21,0.28 -0.39,0.28 -0.05,0 -0.13,-0.01 -0.22,-0.02l0 0.23c0.09,0.02 0.18,0.04 0.27,0.04 0.27,0 0.46,-0.14 0.59,-0.44l0.86 -1.99 -0.29 0zm0.58 1.74l0.27 0 0 -1.17 0.6 0.71 0.1 0 0.6 -0.71 0 1.17 0.27 0 0 -1.78 -0.1 0 -0.82 0.98 -0.82 -0.98 -0.1 0 0 1.78zm2.22 -0.87c-0.01,0.49 0.41,0.92 0.9,0.91 0.5,0.01 0.93,-0.42 0.92,-0.91 0.01,-0.49 -0.42,-0.91 -0.91,-0.91 -0.5,-0.01 -0.92,0.42 -0.91,0.91zm1.54 0.01c0,0.36 -0.28,0.65 -0.64,0.65 -0.35,0 -0.62,-0.29 -0.62,-0.65 0,-0.38 0.27,-0.66 0.63,-0.66 0.35,0 0.63,0.28 0.63,0.66zm0.79 -0.88l-0.01 0.46c-0.02,0.71 -0.1,1.06 -0.32,1.06 -0.02,0 -0.05,-0.01 -0.08,-0.01l0 0.23c0.03,0.01 0.07,0.02 0.1,0.02 0.41,-0.02 0.53,-0.39 0.56,-1.3l0.01 -0.21 0.64 0 0 1.49 0.28 0 0 -1.74 -1.18 0zm2.68 0l0 0.81c-0.1,0.05 -0.26,0.08 -0.38,0.08 -0.32,0 -0.47,-0.15 -0.47,-0.45l0 -0.44 -0.28 0 0 0.46c0,0.44 0.27,0.68 0.69,0.68 0.18,0 0.33,-0.03 0.44,-0.08l0 0.68 0.28 0 0 -1.74 -0.28 0zm2.08 0.67c0,-0.46 -0.27,-0.71 -0.68,-0.71 -0.29,0 -0.55,0.13 -0.71,0.39l0.19 0.15c0.14,-0.19 0.29,-0.28 0.5,-0.28 0.26,0 0.43,0.15 0.43,0.44l0 0.15 -0.55 0c-0.38,0 -0.63,0.19 -0.63,0.48 0,0.3 0.25,0.49 0.61,0.49 0.25,0 0.46,-0.09 0.58,-0.26l0 0.22 0.26 0 0 -1.07zm-0.27 0.4c0,0.27 -0.25,0.48 -0.54,0.48 -0.2,0 -0.36,-0.1 -0.36,-0.27 0,-0.16 0.13,-0.25 0.38,-0.25l0.52 0 0 0.04zm0.75 0.67l0.27 0 0 -0.8 0.86 0 0 0.8 0.27 0 0 -1.74 -0.27 0 0 0.7 -0.86 0 0 -0.7 -0.27 0 0 1.74zm3.23 -1.78l-1.06 1.28 0 -1.24 -0.27 0 0 1.78 0.1 0 1.06 -1.27 0 1.23 0.27 0 0 -1.78 -0.1 0zm2.97 0.91c0.01,-0.49 -0.41,-0.91 -0.89,-0.91 -0.44,0 -0.8,0.31 -0.88,0.74l-0.33 0 0 -0.7 -0.27 0 0 1.74 0.27 0 0 -0.8 0.32 0c0.03,0.47 0.41,0.84 0.88,0.84 0.49,0.01 0.91,-0.42 0.9,-0.91zm-0.28 0.01c0,0.36 -0.27,0.65 -0.62,0.65 -0.34,0 -0.6,-0.29 -0.6,-0.65 0,-0.38 0.25,-0.66 0.61,-0.66 0.34,0 0.61,0.29 0.61,0.66zm2.89 -0.92l-1.07 1.28 0 -1.24 -0.27 0 0 1.78 0.1 0 1.06 -1.27 0 1.23 0.28 0 0 -1.78 -0.1 0zm0.47 0.91c0,0.51 0.4,0.91 0.91,0.91 0.3,0 0.55,-0.14 0.71,-0.38l-0.19 -0.15c-0.14,0.19 -0.32,0.28 -0.52,0.28 -0.36,0 -0.63,-0.29 -0.63,-0.66 0,-0.36 0.27,-0.65 0.63,-0.65 0.2,0 0.38,0.09 0.52,0.28l0.2 -0.16c-0.16,-0.23 -0.42,-0.38 -0.72,-0.38 -0.5,0 -0.92,0.42 -0.91,0.91zm1.98 0.87l0.28 0 0 -1.49 0.83 0 0 1.49 0.28 0 0 -1.74 -1.39 0 0 1.74zm1.76 -0.87c0,0.49 0.42,0.92 0.91,0.91 0.5,0.01 0.93,-0.42 0.92,-0.91 0.01,-0.49 -0.42,-0.91 -0.91,-0.91 -0.5,-0.01 -0.93,0.42 -0.92,0.91zm1.54 0.01c0,0.36 -0.27,0.65 -0.63,0.65 -0.35,0 -0.62,-0.29 -0.62,-0.65 0,-0.38 0.27,-0.66 0.63,-0.66 0.35,0 0.62,0.28 0.62,0.66zm0.8 -0.88l-0.01 0.46c-0.02,0.71 -0.1,1.06 -0.33,1.06 -0.01,0 -0.04,-0.01 -0.07,-0.01l0 0.23c0.03,0.01 0.06,0.02 0.1,0.02 0.41,-0.02 0.52,-0.39 0.56,-1.3l0 -0.21 0.65 0 0 1.49 0.28 0 0 -1.74 -1.18 0zm1.68 1.74l0.27 0 0 -0.8 0.85 0 0 0.8 0.28 0 0 -1.74 -0.28 0 0 0.7 -0.85 0 0 -0.7 -0.27 0 0 1.74zm3.43 -0.78c0.02,-0.07 0.02,-0.14 0.02,-0.21 0,-0.46 -0.34,-0.79 -0.79,-0.79 -0.5,0 -0.89,0.41 -0.89,0.92 0,0.51 0.41,0.9 0.92,0.9 0.28,0 0.52,-0.11 0.7,-0.3l-0.16 -0.19c-0.16,0.16 -0.34,0.24 -0.53,0.24 -0.35,0 -0.61,-0.23 -0.64,-0.57l1.37 0zm-1.36 -0.25c0.06,-0.3 0.29,-0.5 0.58,-0.5 0.29,0 0.52,0.19 0.52,0.5l-1.1 0zm1.76 1.03l0.27 0 0 -0.8 0.86 0 0 0.8 0.27 0 0 -1.74 -0.27 0 0 0.7 -0.86 0 0 -0.7 -0.27 0 0 1.74zm3.24 -1.78l-1.06 1.28 0 -1.24 -0.28 0 0 1.78 0.1 0 1.06 -1.27 0 1.23 0.28 0 0 -1.78 -0.1 0zm2.13 1c0.01,-0.07 0.02,-0.14 0.02,-0.21 0,-0.46 -0.34,-0.79 -0.79,-0.79 -0.5,0 -0.89,0.41 -0.89,0.92 0,0.51 0.4,0.9 0.92,0.9 0.27,0 0.51,-0.11 0.69,-0.3l-0.16 -0.19c-0.15,0.16 -0.33,0.24 -0.53,0.24 -0.34,0 -0.61,-0.23 -0.64,-0.57l1.38 0zm-1.37 -0.25c0.06,-0.3 0.3,-0.5 0.59,-0.5 0.29,0 0.51,0.19 0.52,0.5l-1.11 0zm4.32 -1.32l-0.73 1.55 -0.78 -1.55 -0.31 0 0.94 1.87c-0.1,0.2 -0.21,0.26 -0.36,0.26 -0.07,0 -0.13,-0.01 -0.19,-0.02l0 0.24c0.06,0.03 0.13,0.04 0.19,0.04 0.16,0 0.28,-0.05 0.38,-0.14 0.1,-0.09 0.19,-0.24 0.29,-0.45l0.85 -1.8 -0.28 0zm2.16 1.67c0,-0.27 -0.15,-0.49 -0.41,-0.59 0.18,-0.11 0.28,-0.29 0.28,-0.49 0,-0.36 -0.28,-0.63 -0.72,-0.63 -0.34,0 -0.61,0.16 -0.77,0.42l0.2 0.15c0.14,-0.21 0.33,-0.32 0.57,-0.32 0.29,0 0.43,0.16 0.43,0.39 0,0.23 -0.14,0.38 -0.41,0.38l-0.29 0 0 0.25 0.28 0c0.37,0 0.55,0.18 0.55,0.43 0,0.14 -0.05,0.25 -0.16,0.34 -0.11,0.09 -0.24,0.14 -0.4,0.14 -0.28,0 -0.52,-0.16 -0.69,-0.42l-0.2 0.15c0.19,0.32 0.5,0.52 0.89,0.52 0.48,0 0.85,-0.31 0.85,-0.72z"/>
  <path class="fil0" d="M1.98 49.69c0,-0.3 -0.18,-0.53 -0.47,-0.62 0.15,-0.11 0.23,-0.26 0.23,-0.46 0,-0.18 -0.06,-0.32 -0.18,-0.43 -0.12,-0.11 -0.29,-0.17 -0.49,-0.17l-0.81 0 0 2.36 0.97 0c0.46,0 0.75,-0.29 0.75,-0.68zm-0.94 -1.43c0.27,0 0.41,0.14 0.41,0.37 0,0.22 -0.14,0.37 -0.41,0.37l-0.5 0 0 -0.74 0.5 0zm0.65 1.42c0,0.27 -0.18,0.44 -0.49,0.44l-0.66 0 0 -0.87 0.66 0c0.31,0 0.49,0.17 0.49,0.43zm2.05 -0.38c0,-0.46 -0.27,-0.71 -0.68,-0.71 -0.29,0 -0.55,0.13 -0.71,0.38l0.19 0.15c0.14,-0.18 0.29,-0.27 0.5,-0.27 0.26,0 0.42,0.15 0.42,0.44l0 0.14 -0.54 0c-0.38,0 -0.63,0.19 -0.63,0.49 0,0.3 0.25,0.49 0.61,0.49 0.25,0 0.45,-0.09 0.58,-0.26l0 0.22 0.26 0 0 -1.07zm-0.28 0.4c0,0.27 -0.24,0.48 -0.53,0.48 -0.2,0 -0.36,-0.1 -0.36,-0.27 0,-0.16 0.13,-0.25 0.38,-0.25l0.51 0 0 0.04zm2.64 -0.2c0,-0.51 -0.37,-0.91 -0.86,-0.91 -0.27,0 -0.53,0.12 -0.66,0.32l0 -0.28 -0.26 0 0 2.38 0.28 0 0 -0.89c0.14,0.18 0.38,0.29 0.64,0.29 0.49,0 0.86,-0.4 0.86,-0.91zm-0.29 0c0,0.38 -0.26,0.66 -0.61,0.66 -0.32,0 -0.61,-0.22 -0.61,-0.66 0,-0.44 0.3,-0.65 0.61,-0.65 0.35,0 0.61,0.28 0.61,0.65zm2.11 -0.91l-1.06 1.27 0 -1.23 -0.28 0 0 1.78 0.1 0 1.06 -1.27 0 1.23 0.28 0 0 -1.78 -0.1 0zm2 0.71c0,-0.46 -0.26,-0.71 -0.68,-0.71 -0.29,0 -0.55,0.13 -0.7,0.38l0.18 0.15c0.14,-0.18 0.3,-0.27 0.51,-0.27 0.26,0 0.42,0.15 0.42,0.44l0 0.14 -0.55 0c-0.38,0 -0.63,0.19 -0.63,0.49 0,0.3 0.25,0.49 0.61,0.49 0.25,0 0.46,-0.09 0.59,-0.26l0 0.22 0.25 0 0 -1.07zm-0.27 0.4c0,0.27 -0.25,0.48 -0.53,0.48 -0.21,0 -0.36,-0.1 -0.36,-0.27 0,-0.16 0.13,-0.25 0.37,-0.25l0.52 0 0 0.04zm0.86 0.67l0.27 0 0 -0.8 0.86 0 0 0.8 0.27 0 0 -1.74 -0.27 0 0 0.69 -0.86 0 0 -0.69 -0.27 0 0 1.74zm2.36 0l0.27 0 0 -1.49 0.58 0 0 -0.25 -1.44 0 0 0.25 0.59 0 0 1.49zm3.47 -1.74l-0.57 1.39 -0.58 -1.39 -0.3 0 0.72 1.69 -0.09 0.2c-0.09,0.21 -0.21,0.28 -0.39,0.28 -0.05,0 -0.12,0 -0.21,-0.02l0 0.24c0.09,0.02 0.18,0.03 0.27,0.03 0.26,0 0.45,-0.13 0.59,-0.44l0.85 -1.98 -0.29 0zm0.49 0.87c0,0.5 0.41,0.91 0.91,0.91 0.31,0 0.56,-0.15 0.72,-0.38l-0.2 -0.15c-0.14,0.18 -0.31,0.28 -0.51,0.28 -0.36,0 -0.64,-0.3 -0.64,-0.66 0,-0.36 0.28,-0.65 0.64,-0.65 0.2,0 0.37,0.09 0.51,0.28l0.2 -0.16c-0.16,-0.23 -0.41,-0.38 -0.72,-0.38 -0.49,-0.01 -0.92,0.41 -0.91,0.91zm2.45 0.87l0.27 0 0 -1.49 0.59 0 0 -0.25 -1.45 0 0 0.25 0.59 0 0 1.49zm2.54 -1.07c0,-0.46 -0.27,-0.71 -0.68,-0.71 -0.29,0 -0.55,0.13 -0.71,0.38l0.19 0.15c0.14,-0.18 0.29,-0.27 0.5,-0.27 0.26,0 0.42,0.15 0.42,0.44l0 0.14 -0.55 0c-0.37,0 -0.62,0.19 -0.62,0.49 0,0.3 0.25,0.49 0.61,0.49 0.25,0 0.45,-0.09 0.58,-0.26l0 0.22 0.26 0 0 -1.07zm-0.28 0.4c0,0.27 -0.24,0.48 -0.53,0.48 -0.2,0 -0.36,-0.1 -0.36,-0.27 0,-0.16 0.13,-0.25 0.38,-0.25l0.51 0 0 0.04zm0.86 0.67l0.28 0 0 -0.8 0.85 0 0 0.8 0.28 0 0 -1.74 -0.28 0 0 0.69 -0.85 0 0 -0.69 -0.28 0 0 1.74zm1.88 -0.87c0,0.49 0.42,0.92 0.91,0.91 0.5,0.01 0.93,-0.42 0.92,-0.91 0.01,-0.5 -0.42,-0.92 -0.91,-0.91 -0.5,-0.01 -0.93,0.41 -0.92,0.91zm1.54 0c0,0.37 -0.27,0.65 -0.63,0.65 -0.35,0 -0.62,-0.28 -0.62,-0.65 0,-0.37 0.27,-0.65 0.63,-0.65 0.35,0 0.62,0.28 0.62,0.65zm2.19 0.34c0,-0.19 -0.12,-0.34 -0.32,-0.41 0.11,-0.08 0.18,-0.2 0.18,-0.34 0,-0.28 -0.22,-0.46 -0.56,-0.46l-0.72 0 0 1.74 0.81 0c0.37,0 0.61,-0.21 0.61,-0.53zm-1.15 -0.96l0.45 0c0.19,0 0.29,0.07 0.29,0.23 0,0.14 -0.1,0.23 -0.29,0.23l-0.45 0 0 -0.46zm0.88 0.96c0,0.17 -0.13,0.29 -0.36,0.29l-0.52 0 0 -0.55 0.52 0c0.23,0 0.36,0.1 0.36,0.26zm0.79 0.53l0.28 0 0 -1.74 -0.28 0 0 1.74zm0.65 -0.95l0.74 -0.79 -0.35 0 -0.73 0.8 0.81 0.94 0.35 0 -0.82 -0.95zm2.53 -0.83l-1.06 1.27 0 -1.23 -0.28 0 0 1.78 0.1 0 1.06 -1.27 0 1.23 0.28 0 0 -1.78 -0.1 0zm0.67 0.25c0,0.13 0.1,0.22 0.23,0.22 0.12,0 0.22,-0.09 0.22,-0.22 0,-0.13 -0.1,-0.23 -0.22,-0.23 -0.13,0 -0.23,0.1 -0.23,0.23zm0 1.35c0,0.12 0.1,0.22 0.23,0.22 0.12,0 0.22,-0.1 0.22,-0.22 0,-0.13 -0.1,-0.23 -0.22,-0.23 -0.13,0 -0.23,0.1 -0.23,0.23z"/>
  <path class="fil0" d="M0.26 54.66l0.28 0 0 -2.11 1.11 0 0 -0.25 -1.39 0 0 2.36zm2.42 -1.01l1.5 0 0 -0.23 -1.5 0 0 0.23zm2.96 1.01l0.27 0 0 -1.5 0.9 0 0 -0.24 -1.17 0 0 1.74zm1.35 -0.87c-0.01,0.49 0.41,0.91 0.9,0.9 0.5,0.01 0.93,-0.41 0.92,-0.9 0.01,-0.5 -0.42,-0.92 -0.91,-0.91 -0.5,-0.01 -0.92,0.41 -0.91,0.91zm1.54 0c0,0.36 -0.28,0.65 -0.64,0.65 -0.35,0 -0.62,-0.29 -0.62,-0.65 0,-0.38 0.27,-0.66 0.63,-0.66 0.35,0 0.63,0.28 0.63,0.66zm2.54 0c0,-0.52 -0.37,-0.91 -0.86,-0.91 -0.28,0 -0.53,0.12 -0.66,0.32l0 -0.28 -0.26 0 0 2.38 0.28 0 0 -0.89c0.14,0.18 0.38,0.29 0.64,0.29 0.49,0 0.86,-0.4 0.86,-0.91zm-0.29 0c0,0.37 -0.26,0.65 -0.61,0.65 -0.32,0 -0.61,-0.21 -0.61,-0.65 0,-0.44 0.3,-0.66 0.61,-0.66 0.35,0 0.61,0.28 0.61,0.66zm2.11 -0.91l-1.06 1.27 0 -1.23 -0.28 0 0 1.78 0.1 0 1.06 -1.27 0 1.23 0.28 0 0 -1.78 -0.1 0zm1.88 1.28c0,-0.2 -0.11,-0.36 -0.3,-0.43 0.14,-0.09 0.21,-0.22 0.21,-0.38 0,-0.29 -0.22,-0.47 -0.57,-0.47 -0.29,0 -0.5,0.12 -0.63,0.3l0.18 0.17c0.12,-0.14 0.24,-0.22 0.44,-0.22 0.2,0 0.31,0.09 0.31,0.24 0,0.15 -0.1,0.24 -0.3,0.24l-0.19 0 0 0.25 0.19 0c0.24,0 0.38,0.11 0.38,0.28 0,0.18 -0.14,0.3 -0.38,0.3 -0.21,0 -0.36,-0.09 -0.48,-0.24l-0.18 0.16c0.15,0.21 0.38,0.34 0.66,0.34 0.4,0 0.66,-0.21 0.66,-0.54zm0.37 -0.37c-0.01,0.49 0.41,0.91 0.9,0.9 0.5,0.01 0.93,-0.41 0.92,-0.9 0.01,-0.5 -0.42,-0.92 -0.91,-0.91 -0.5,-0.01 -0.93,0.41 -0.91,0.91zm1.54 0c0,0.36 -0.28,0.65 -0.64,0.65 -0.35,0 -0.62,-0.29 -0.62,-0.65 0,-0.38 0.27,-0.66 0.63,-0.66 0.35,0 0.63,0.28 0.63,0.66zm0.76 0.87l0.28 0 0 -0.81 0.85 0 0 0.81 0.27 0 0 -1.74 -0.27 0 0 0.69 -0.85 0 0 -0.69 -0.28 0 0 1.74zm2.36 0l0.27 0 0 -1.5 0.59 0 0 -0.24 -1.44 0 0 0.24 0.58 0 0 1.5zm2.54 -1.07c0,-0.46 -0.27,-0.71 -0.68,-0.71 -0.29,0 -0.55,0.12 -0.7,0.38l0.18 0.15c0.14,-0.19 0.29,-0.28 0.5,-0.28 0.26,0 0.43,0.15 0.43,0.44l0 0.15 -0.55 0c-0.38,0 -0.63,0.19 -0.63,0.49 0,0.3 0.25,0.49 0.61,0.49 0.25,0 0.46,-0.1 0.58,-0.27l0 0.23 0.26 0 0 -1.07zm-0.27 0.4c0,0.27 -0.25,0.48 -0.54,0.48 -0.2,0 -0.36,-0.1 -0.36,-0.28 0,-0.16 0.13,-0.24 0.38,-0.24l0.52 0 0 0.04zm0.99 -1.07l-0.01 0.45c-0.02,0.72 -0.1,1.06 -0.32,1.06 -0.02,0 -0.05,0 -0.07,-0.01l0 0.24c0.02,0.01 0.06,0.01 0.09,0.01 0.41,-0.01 0.53,-0.38 0.56,-1.29l0.01 -0.22 0.64 0 0 1.5 0.28 0 0 -1.74 -1.18 0zm1.79 1.74l0.68 0c0.4,0 0.65,-0.23 0.65,-0.57 0,-0.35 -0.25,-0.57 -0.65,-0.57l-0.41 0 0 -0.6 -0.27 0 0 1.74zm0.27 -0.25l0 -0.65 0.4 0c0.24,0 0.38,0.13 0.38,0.33 0,0.2 -0.14,0.32 -0.38,0.32l-0.4 0zm1.55 0.25l0.27 0 0 -0.81 0.86 0 0 0.81 0.27 0 0 -1.74 -0.27 0 0 0.69 -0.86 0 0 -0.69 -0.27 0 0 1.74zm2 0l0.69 0c0.4,0 0.65,-0.23 0.65,-0.57 0,-0.35 -0.26,-0.57 -0.65,-0.57l-0.41 0 0 -0.6 -0.28 0 0 1.74zm1.6 0l0.27 0 0 -1.74 -0.27 0 0 1.74zm-1.32 -0.25l0 -0.65 0.4 0c0.24,0 0.38,0.12 0.38,0.33 0,0.21 -0.13,0.32 -0.38,0.32l-0.4 0zm3.53 -1.53l-1.06 1.27 0 -1.23 -0.27 0 0 1.78 0.1 0 1.06 -1.27 0 1.23 0.27 0 0 -1.78 -0.1 0zm-1.12 -0.83c0,0.33 0.22,0.56 0.54,0.56 0.33,0 0.55,-0.23 0.55,-0.56l0 -0.11 -0.24 0 0 0.1c0,0.23 -0.11,0.36 -0.31,0.36 -0.19,0 -0.3,-0.13 -0.3,-0.36l0 -0.1 -0.24 0 0 0.11z"/>
  <path class="fil0" d="M1.98 58.26c0,-0.3 -0.18,-0.53 -0.47,-0.61 0.15,-0.11 0.23,-0.27 0.23,-0.47 0,-0.17 -0.06,-0.32 -0.18,-0.43 -0.12,-0.11 -0.29,-0.16 -0.49,-0.16l-0.81 0 0 2.35 0.97 0c0.46,0 0.75,-0.28 0.75,-0.68zm-0.94 -1.42c0.27,0 0.41,0.13 0.41,0.36 0,0.23 -0.14,0.37 -0.41,0.37l-0.5 0 0 -0.73 0.5 0zm0.65 1.42c0,0.26 -0.18,0.43 -0.49,0.43l-0.66 0 0 -0.87 0.66 0c0.31,0 0.49,0.18 0.49,0.44zm1.6 -0.32l1.49 0 0 -0.24 -1.49 0 0 0.24zm4.38 0.48c0,-0.2 -0.13,-0.35 -0.33,-0.42 0.12,-0.07 0.18,-0.2 0.18,-0.34 0,-0.28 -0.21,-0.46 -0.56,-0.46l-0.72 0 0 1.74 0.81 0c0.38,0 0.62,-0.21 0.62,-0.52zm-1.15 -0.97l0.45 0c0.18,0 0.28,0.07 0.28,0.23 0,0.15 -0.1,0.23 -0.28,0.23l-0.45 0 0 -0.46zm0.87 0.97c0,0.17 -0.13,0.28 -0.36,0.28l-0.51 0 0 -0.54 0.51 0c0.23,0 0.36,0.1 0.36,0.26zm2.33 -0.26c0.02,-0.07 0.02,-0.14 0.02,-0.21 0,-0.46 -0.34,-0.79 -0.79,-0.79 -0.5,0 -0.89,0.41 -0.89,0.92 0,0.51 0.41,0.9 0.92,0.9 0.28,0 0.52,-0.11 0.7,-0.3l-0.16 -0.19c-0.16,0.16 -0.34,0.24 -0.53,0.24 -0.35,0 -0.61,-0.23 -0.64,-0.57l1.37 0zm-1.36 -0.25c0.06,-0.3 0.3,-0.5 0.58,-0.5 0.29,0 0.52,0.19 0.52,0.5l-1.1 0zm3.64 0.16c0,-0.51 -0.36,-0.91 -0.86,-0.91 -0.27,0 -0.52,0.12 -0.66,0.32l0 -0.28 -0.25 0 0 2.39 0.27 0 0 -0.9c0.14,0.19 0.38,0.29 0.64,0.29 0.49,0 0.86,-0.4 0.86,-0.91zm-0.28 0.01c0,0.37 -0.27,0.65 -0.62,0.65 -0.32,0 -0.6,-0.22 -0.6,-0.66 0,-0.44 0.29,-0.65 0.6,-0.65 0.35,0 0.62,0.28 0.62,0.66zm1.09 0.86l0.27 0 0 -1.49 0.59 0 0 -0.25 -1.45 0 0 0.25 0.59 0 0 1.49zm2.57 -1.78l-1.06 1.28 0 -1.24 -0.27 0 0 1.78 0.1 0 1.06 -1.27 0 1.23 0.27 0 0 -1.78 -0.1 0zm0.7 1.78l0.28 0 0 -1.74 -0.28 0 0 1.74zm0.65 -0.95l0.74 -0.79 -0.34 0 -0.73 0.8 0.8 0.94 0.35 0 -0.82 -0.95zm2.5 -0.12c0,-0.46 -0.27,-0.71 -0.68,-0.71 -0.29,0 -0.55,0.13 -0.71,0.39l0.18 0.15c0.15,-0.19 0.3,-0.28 0.51,-0.28 0.26,0 0.42,0.15 0.42,0.44l0 0.15 -0.55 0c-0.37,0 -0.62,0.19 -0.62,0.48 0,0.3 0.25,0.49 0.61,0.49 0.25,0 0.45,-0.09 0.58,-0.26l0 0.22 0.26 0 0 -1.07zm-0.28 0.4c0,0.27 -0.24,0.48 -0.53,0.48 -0.2,0 -0.36,-0.1 -0.36,-0.27 0,-0.16 0.13,-0.25 0.38,-0.25l0.51 0 0 0.04zm1 -1.07l-0.01 0.46c-0.02,0.71 -0.1,1.06 -0.33,1.06 -0.01,0 -0.04,-0.01 -0.07,-0.01l0 0.23c0.03,0.01 0.06,0.02 0.1,0.02 0.41,-0.02 0.52,-0.39 0.56,-1.3l0 -0.21 0.65 0 0 1.49 0.28 0 0 -1.74 -1.18 0zm1.78 1.74l0.69 0c0.4,0 0.65,-0.23 0.65,-0.57 0,-0.34 -0.25,-0.57 -0.65,-0.57l-0.41 0 0 -0.6 -0.28 0 0 1.74zm0.28 -0.24l0 -0.65 0.39 0c0.25,0 0.39,0.13 0.39,0.33 0,0.19 -0.14,0.32 -0.38,0.32l-0.4 0zm1.54 0.24l0.28 0 0 -0.8 0.85 0 0 0.8 0.28 0 0 -1.74 -0.28 0 0 0.7 -0.85 0 0 -0.7 -0.28 0 0 1.74zm2.01 0l0.69 0c0.4,0 0.65,-0.22 0.65,-0.57 0,-0.34 -0.26,-0.57 -0.65,-0.57l-0.41 0 0 -0.6 -0.28 0 0 1.74zm1.6 0l0.27 0 0 -1.74 -0.27 0 0 1.74zm-1.32 -0.24l0 -0.65 0.39 0c0.25,0 0.39,0.11 0.39,0.33 0,0.21 -0.14,0.32 -0.38,0.32l-0.4 0zm3.53 -1.54l-1.06 1.28 0 -1.24 -0.28 0 0 1.78 0.1 0 1.06 -1.27 0 1.23 0.28 0 0 -1.78 -0.1 0zm-1.12 -0.83c0,0.34 0.22,0.57 0.54,0.57 0.33,0 0.54,-0.23 0.54,-0.57l0 -0.11 -0.23 0 0 0.1c0,0.24 -0.11,0.37 -0.31,0.37 -0.2,0 -0.31,-0.13 -0.31,-0.37l0 -0.1 -0.23 0 0 0.11z"/>
  <line class="fil1 str0" x1="130.19" y1="7.36" x2="136.68" y2= "7.36" />
  <line class="fil1 str0" x1="159.71" y1="7.36" x2="166.2" y2= "7.36" />
  <line class="fil1 str0" x1="143.35" y1="7.36" x2="151.61" y2= "7.36" />
  <line class="fil1 str0" x1="108.84" y1="7.36" x2="123.52" y2= "7.36" />
  <line class="fil1 str0" x1="16.74" y1="7.36" x2="51.67" y2= "7.36" />
  <line class="fil1 str0" x1="58.27" y1="7.36" x2="65.24" y2= "7.36" />
  <line class="fil1 str0" x1="72.35" y1="7.36" x2="101.59" y2= "7.36" />
  <polyline class="fil1 str1" points="29.35,13.45 33.61,13.45 33.61,7.58 "/>
  <polyline class="fil1 str1" points="34.86,18.93 61.67,18.93 61.67,7.58 "/>
  <polyline class="fil1 str1" points="37.4,24.23 86.88,24.23 86.88,7.36 "/>
  <polyline class="fil1 str1" points="51.17,29.7 116.09,29.7 116.09,7.36 "/>
  <polyline class="fil1 str1" points="52.5,34.56 133.35,34.56 133.35,7.36 "/>
  <polyline class="fil1 str1" points="77.9,44.13 147.39,44.13 147.39,7.36 "/>
  <polyline class="fil1 str1" points="33.7,49.75 162.87,49.75 162.87,7.36 "/>
 </g>
</svg>
