<svg xmlns="http://www.w3.org/2000/svg" viewBox="0 0 127 72.66"><path d="M0,9.05c0,4.87,2.84,6.87,6,10.06l19.77,19.83c1.36,1.36,2.61,2.7,3.97,4.06l11.86,11.86c1.36,1.33,2.58,2.67,3.94,4.03.58.58,11.07,11.19,11.91,11.83,3.39,2.52,8.52,2.67,12.06.03.93-.7,12.38-12.29,13.91-13.8.7-.7,1.25-1.36,1.94-2.06l3.94-3.94,9.91-9.91c.17-.17.32-.29.46-.46l1.48-1.57c1.36-1.33,2.64-2.61,3.97-3.97,2.67-2.67,5.28-5.28,7.94-7.94l2.38-2.46c.17-.17.32-.32.52-.49l8.87-8.99c3.04-3.45,2.81-9.04-.46-12.32-3.28-3.28-8.2-3.74-11.8-1.16-1.28.93-8.49,8.32-9.91,9.74l-1.16,1.25c-.78.9-4.38,4.38-5.36,5.33l-26.09,26.29c-.49.49-6.17,6.26-6.55,6.52-.43-.29-1.25-1.19-1.65-1.59-.55-.58-1.04-1.07-1.62-1.62-.78-.81-2.52-2.46-3.22-3.3l-14.7-14.73c-.35-.32-.46-.49-.78-.84-.72-.9-9.54-9.54-10.67-10.67l-13.04-13.13C14.9,1.95,13.51.03,8.75.03c-1.25,0-2.67.43-3.54.87C2.2,2.41,0,5.6,0,9.05Z" fill="currentColor"/></svg>