<svg xmlns="http://www.w3.org/2000/svg" viewBox="0 0 175.35 127"><path d="M111.71,127c4.92,0,6.89-2.84,10.08-5.96l19.86-19.81c1.33-1.33,2.66-2.61,4.05-3.94l11.81-11.87c1.39-1.33,2.72-2.61,4.05-3.94.58-.58,11.23-11.06,11.81-11.93,2.55-3.42,2.66-8.51.06-12.05-.69-.93-12.34-12.39-13.84-13.9-.69-.69-1.33-1.27-2.03-1.97-1.33-1.33-2.61-2.61-3.94-3.94l-9.9-9.9c-.17-.17-.29-.35-.46-.46l-1.56-1.51c-1.39-1.33-2.66-2.61-4-3.94-2.66-2.72-5.27-5.33-7.93-7.99l-2.49-2.37c-.17-.17-.29-.29-.46-.52l-8.98-8.86c-3.47-3.07-9.09-2.78-12.34.46-3.3,3.3-3.76,8.22-1.16,11.81.93,1.27,8.28,8.46,9.73,9.9l1.22,1.16c.93.81,4.4,4.4,5.39,5.39l23.51,23.34H9.32c-5.15,0-9.32,4.17-9.32,9.32s4.17,9.27,9.32,9.27h134.82l-11.87,11.93c-.35.29-.52.46-.87.75-.87.75-9.56,9.5-10.66,10.66l-13.15,13.03c-2.95,2.95-4.86,4.34-4.86,9.09,0,1.27.41,2.66.87,3.53,1.51,3.07,4.69,5.21,8.11,5.21h0Z" fill="currentColor"/></svg>