<svg xmlns="http://www.w3.org/2000/svg" viewBox="0 0 136.96 149.9"><path d="M108.28.13c-13.43,1.49-20.15,11.94-29.85,21.64L14.25,85.95c-4.48,3.73-8.21,7.46-11.19,14.93-12.69,29.1,16.42,58.21,45.52,46.27,10.45-3.73,19.4-15.67,27.61-23.88,2.99-2.24,44.03-42.54,44.78-44.78,1.49-4.48-2.24-7.46-5.97-5.22l-51.49,51.49c-6.72,6.72-17.16,20.15-34.33,15.67-11.94-2.99-22.39-14.93-20.15-30.6,2.24-11.19,13.43-20.15,22.39-29.1,17.16-17.16,33.58-34.33,51.49-51.49,4.48-4.48,8.21-8.21,12.69-12.69,3.73-3.73,8.21-8.96,17.16-7.46,14.93,1.49,20.9,19.4,10.45,29.85-14.93,16.42-35.07,35.07-50.75,51.49-3.73,3.73-23.88,23.88-26.12,25.37-6.72,4.48-14.18-1.49-13.43-8.96.75-4.48,7.46-9.7,11.94-14.18l44.03-44.78c2.24-3.73-.75-8.21-4.48-6.72-1.49.75-47.01,46.27-51.49,51.49-4.48,4.48-9.7,8.21-8.21,17.16.75,7.46,5.22,12.69,11.19,14.93,8.21,2.99,14.93-.75,18.66-5.22L118.73,55.36c10.45-8.96,20.15-17.16,17.91-32.84-1.49-12.69-13.43-23.88-28.36-22.39h0Z" fill="currentColor" fill-rule="evenodd"/></svg>