<svg xmlns="http://www.w3.org/2000/svg" viewBox="0 0 856.95 854.99"><path d="M320,59.39c66.45-3.2,132.23,17.71,182.36,57.64l18.53,15.5c9.9,8.4,16.77,17.65,25.08,26.93,2.47,2.73,5.11,6.17,7.55,9.46,32.15,43.4,51.15,92.94,54.47,150.82,2.44,42.58-5.84,82.22-19.79,117.46-18.03,45.55-51.45,87.89-89.74,116.37-93.38,69.45-214.66,72.86-313.77,11.04-16.89-10.51-21.32-15.71-33.92-26.11-7.9-6.52-6.43-5.9-13.19-12.8l-23.76-27.34c-32.57-42.55-50.98-94.06-54.5-150.82-3.64-58.41,13.8-116.58,43.4-162.83,4.32-6.75,9.37-13.83,14.21-19.82,2.94-3.64,5.08-6.11,7.63-9.43,7.46-9.75,16.62-17.77,25.81-26.16,44.72-40.88,105.95-66.86,169.61-69.92ZM617.73,508.89c15.33-24.2,27.99-53.39,36.38-81.96,27.78-94.5,10.16-205.67-47.07-284.67-7.72-10.69-26.11-34.56-35.94-42.9l-9.84-9.9c-19.23-16.71-34.33-29.07-56.97-42.49C448.38,13.85,382.84-3.54,314.33.6,210.67,6.86,118.79,59.16,60.29,142.29-1.91,230.62-18.88,354.01,23.03,455.68c13.54,32.8,22.96,49.07,42.11,76.17,14.3,20.23,22.17,25.9,37.38,42.37,4.64,5.05,6.43,5.84,10.28,9.43,45.31,42.29,111.68,71.97,176.51,80.81,80.37,10.92,155.55-7.55,222.35-48.39l23.61-16.03c4.38,3.02,66.6,66.19,72.47,72,24.34,24.17,47.72,48.01,72.12,72.15,24.34,24.05,48.04,47.78,72.12,72.15,21.2,21.44,37.35,44.61,68.89,37.26,17.8-4.17,32.1-19.35,35.24-37.38,4.11-23.7-7.61-36.3-20.56-49.39l-162.21-162.18c-23.96-23.76-48.31-47.4-71.53-71.59l15.92-24.17h0Z" fill="currentColor" fill-rule="evenodd"/></svg>