<?xml version="1.0" encoding="UTF-8"?><svg id="a" xmlns="http://www.w3.org/2000/svg" width="312.98" height="78.4" xmlns:xlink="http://www.w3.org/1999/xlink" viewBox="0 0 312.98 78.4"><defs><clipPath id="b"><rect x="44.2" y="38.2" width="224.58" height="8" fill="none"/></clipPath><clipPath id="c"><rect x="44.2" y="38.2" width="224.58" height="8" fill="none"/></clipPath><clipPath id="d"><rect width="312.98" height="78.4" fill="none"/></clipPath></defs><g clip-path="url(#b)"><g clip-path="url(#c)"><g opacity=".41"><g clip-path="url(#d)"><path d="M261.31,38.73l6.94,6.94M257.3,38.73l6.94,6.94M253.29,38.73l6.94,6.94M249.28,38.73l6.94,6.94M245.27,38.73l6.94,6.94M241.26,38.73l6.94,6.94M237.25,38.73l6.94,6.94M233.24,38.73l6.94,6.94M229.23,38.73l6.94,6.94M225.22,38.73l6.94,6.94M221.2,38.73l6.94,6.94M217.19,38.73l6.94,6.94M213.18,38.73l6.94,6.94M209.17,38.73l6.94,6.94M205.16,38.73l6.94,6.94M201.15,38.73l6.94,6.94M197.14,38.73l6.94,6.94M193.13,38.73l6.94,6.94M189.12,38.73l6.94,6.94M185.11,38.73l6.94,6.94M181.1,38.73l6.94,6.94M177.09,38.73l6.94,6.94M173.07,38.73l6.94,6.94M169.06,38.73l6.94,6.94M165.05,38.73l6.94,6.94M161.04,38.73l6.94,6.94M157.03,38.73l6.94,6.94M153.02,38.73l6.94,6.94M149.01,38.73l6.94,6.94M145,38.73l6.94,6.94M140.99,38.73l6.94,6.94M136.98,38.73l6.94,6.94M132.97,38.73l6.94,6.94M128.96,38.73l6.94,6.94M124.94,38.73l6.94,6.94M120.93,38.73l6.94,6.94M116.92,38.73l6.94,6.94M112.91,38.73l6.94,6.94M108.9,38.73l6.94,6.94M104.89,38.73l6.94,6.94M100.88,38.73l6.94,6.94M96.87,38.73l6.94,6.94M92.86,38.73l6.94,6.94M88.85,38.73l6.94,6.94M84.84,38.73l6.94,6.94M80.83,38.73l6.94,6.94M76.81,38.73l6.94,6.94M72.8,38.73l6.94,6.94M68.79,38.73l6.94,6.94M64.78,38.73l6.94,6.94M60.77,38.73l6.94,6.94M56.76,38.73l6.94,6.94M52.75,38.73l6.94,6.94M48.74,38.73l6.94,6.94M44.73,38.73l6.94,6.94" fill="none" stroke="#fff" stroke-width="1.5"/></g></g></g></g></svg>