<?xml version="1.0" encoding="UTF-8"?>
<!DOCTYPE svg PUBLIC "-//W3C//DTD SVG 1.1//EN" "http://www.w3.org/Graphics/SVG/1.1/DTD/svg11.dtd">
<!-- Creator: CorelDRAW -->
<svg xmlns="http://www.w3.org/2000/svg" xml:space="preserve" width="2298px" height="2625px" version="1.1" style="shape-rendering:geometricPrecision; text-rendering:geometricPrecision; image-rendering:optimizeQuality; fill-rule:evenodd; clip-rule:evenodd"
viewBox="0 0 1860.4 2125.49"
 xmlns:xlink="http://www.w3.org/1999/xlink"
 xmlns:xodm="http://www.corel.com/coreldraw/odm/2003">
 <defs>
  <style type="text/css">
   <![CDATA[
    .fil1 {fill:#6D7892}
    .fil0 {fill:#9ABBD8}
    .fil2 {fill:#FEFEFE;fill-rule:nonzero}
   ]]>
  </style>
 </defs>
 <g id="Слой_x0020_1">
  <metadata id="CorelCorpID_0Corel-Layer"/>
  <path class="fil0" d="M131.15 2125.49l1596.47 0c72.14,0 131.15,-59.02 131.15,-131.15l0 -1399.36 -594.95 -594.95 -1132.67 0c-72.13,0 -131.15,59.02 -131.15,131.15l0 1863.16c0,72.13 59.02,131.15 131.15,131.15z"/>
  <path class="fil1" d="M1394.95 596.61l465.45 0 -596.6 -596.61 0 465.45c0,72.14 59.02,131.16 131.15,131.16z"/>
  <path class="fil2" d="M452.66 1006.18l137.64 0c25.52,0 48.28,4.9 68.26,14.7 19.98,9.81 35.61,23.68 46.89,41.63 11.29,17.94 16.93,38.57 16.93,61.88 0,23.31 -5.64,43.93 -16.93,61.88 -11.28,17.94 -26.91,31.91 -46.89,41.9 -19.98,9.99 -42.74,14.98 -68.26,14.98l-62.72 0 0 129.31 -74.92 0 0 -366.28zm137.64 171.48c17.38,0 30.98,-4.9 40.79,-14.7 9.8,-9.81 14.7,-22.66 14.7,-38.57 0,-15.54 -4.99,-28.12 -14.98,-37.74 -9.99,-9.62 -23.5,-14.43 -40.51,-14.43l-62.72 0 0 105.44 62.72 0z"/>
  <path id="_1" class="fil2" d="M782.32 1006.18l119.87 0c38.85,0 73.45,7.58 103.78,22.75 30.34,15.17 53.93,36.44 70.76,63.82 16.84,27.38 25.26,59.2 25.26,95.46 0,35.52 -8.42,67.24 -25.26,95.18 -16.83,27.93 -40.42,49.76 -70.76,65.49 -30.33,15.72 -64.93,23.58 -103.78,23.58l-119.87 0 0 -366.28zm119.32 298.57c24.42,0 45.97,-4.81 64.65,-14.43 18.69,-9.61 33.12,-23.21 43.29,-40.79 10.18,-17.57 15.26,-38.01 15.26,-61.32 0,-35.52 -11.19,-63.45 -33.57,-83.8 -22.39,-20.35 -52.26,-30.53 -89.63,-30.53l-44.4 0 0 230.87 44.4 0z"/>
  <polygon id="_2" class="fil2" points="1165.25,1006.18 1406.12,1006.18 1406.12,1073.88 1240.18,1073.88 1240.18,1165.45 1376.15,1165.45 1376.15,1233.16 1240.18,1233.16 1240.18,1372.46 1165.25,1372.46 "/>
 </g>
</svg>
