<?xml version="1.0" encoding="UTF-8"?>
<!DOCTYPE svg PUBLIC "-//W3C//DTD SVG 1.1//EN" "http://www.w3.org/Graphics/SVG/1.1/DTD/svg11.dtd">
<!-- Creator: CorelDRAW -->
<svg xmlns="http://www.w3.org/2000/svg" xml:space="preserve" width="2298px" height="2625px" version="1.1" style="shape-rendering:geometricPrecision; text-rendering:geometricPrecision; image-rendering:optimizeQuality; fill-rule:evenodd; clip-rule:evenodd"
viewBox="0 0 1668.79 1906.58"
 xmlns:xlink="http://www.w3.org/1999/xlink"
 xmlns:xodm="http://www.corel.com/coreldraw/odm/2003">
 <defs>
  <style type="text/css">
   <![CDATA[
    .fil1 {fill:#6D7892}
    .fil0 {fill:#9ABBD8}
    .fil2 {fill:#FEFEFE;fill-rule:nonzero}
   ]]>
  </style>
 </defs>
 <g id="Слой_x0020_1">
  <metadata id="CorelCorpID_0Corel-Layer"/>
  <path class="fil0" d="M117.65 1906.58l1432.03 0c64.71,0 117.65,-52.94 117.65,-117.65l0 -1255.23 -533.67 -533.68 -1016.01 0c-64.71,0 -117.65,52.94 -117.65,117.65l0 1671.26c0,64.71 52.94,117.65 117.65,117.65z"/>
  <path class="fil1" d="M1251.28 535.16l417.51 0 -535.16 -535.16 0 417.51c0,64.71 52.94,117.65 117.65,117.65z"/>
  <path class="fil2" d="M616.86 1231.1l-85.12 -115.99 -49.29 0 0 115.99 -67.2 0 0 -328.56 123.46 0c22.9,0 43.31,4.4 61.23,13.2 17.92,8.79 31.94,21.24 42.06,37.33 10.13,16.1 15.19,34.6 15.19,55.51 0,20.91 -5.15,39.49 -15.44,55.76 -10.28,16.26 -24.39,28.87 -42.31,37.83l93.09 128.93 -75.67 0zm-134.41 -175.23l56.26 0c15.59,0 27.79,-4.31 36.59,-12.94 8.79,-8.63 13.19,-20.08 13.19,-34.35 0,-13.94 -4.48,-25.22 -13.44,-33.85 -8.96,-8.63 -21.08,-12.95 -36.34,-12.95l-56.26 0 0 94.09z"/>
  <polygon id="_1" class="fil2" points="733.85,902.54 949.91,902.54 949.91,963.28 801.06,963.28 801.06,1045.42 923.02,1045.42 923.02,1106.15 801.06,1106.15 801.06,1231.1 733.85,1231.1 "/>
  <path id="_2" class="fil2" d="M1161.48 1188.29l-134.41 0 -18.42 42.81 -72.19 0 146.86 -334.53 22.4 0 146.36 334.53 -72.18 0 -18.42 -42.81zm-67.21 -166.27l-43.8 111.01 87.61 0 -43.81 -111.01z"/>
 </g>
</svg>
