<?xml version="1.0" encoding="UTF-8"?>
<!DOCTYPE svg PUBLIC "-//W3C//DTD SVG 1.1//EN" "http://www.w3.org/Graphics/SVG/1.1/DTD/svg11.dtd">
<!-- Creator: CorelDRAW -->
<svg xmlns="http://www.w3.org/2000/svg" xml:space="preserve" width="480px" height="514px" version="1.1" style="shape-rendering:geometricPrecision; text-rendering:geometricPrecision; image-rendering:optimizeQuality; fill-rule:evenodd; clip-rule:evenodd"
viewBox="0 0 24.06 25.79"
 xmlns:xlink="http://www.w3.org/1999/xlink"
 xmlns:xodm="http://www.corel.com/coreldraw/odm/2003">
 <defs>
  <style type="text/css">
   <![CDATA[
    .fil0 {fill:#9ABBD8}
   ]]>
  </style>
 </defs>
 <g id="Слой_x0020_1">
  <metadata id="CorelCorpID_0Corel-Layer"/>
  <path class="fil0" d="M5.19 25.79c0.1,-0.04 1.16,-1.15 1.3,-1.3 0.2,-0.2 0.14,-0.16 0.5,-0.16l7.04 0c0.89,0 1.58,0.05 2.37,-0.21 0.62,-0.22 1.25,-0.66 1.55,-1.02l1.8 -2.06c0.58,-0.64 1.26,-1.48 1.81,-2.07 0.11,-0.13 0.2,-0.23 0.3,-0.35 0.51,-0.59 1.16,-1.29 1.65,-1.89 0.05,-0.06 0.09,-0.09 0.15,-0.16 0.61,-0.78 0.49,-1.72 -0.08,-2.3 -0.56,-0.59 -1.7,-0.54 -2.33,0.07l-0.91 1.01c-0.57,0.67 -1.25,1.37 -1.82,2.04 -0.18,0.22 -0.16,0.08 -0.2,0.44 -0.02,0.18 -0.06,0.35 -0.11,0.52 -0.22,0.67 -0.66,1.18 -1.11,1.49 -0.63,0.41 -1.15,0.52 -2.06,0.52 -0.85,0 -1.71,0.01 -2.57,0 -0.93,-0.01 -0.9,-1.22 -0.03,-1.22 0.86,0 1.72,0 2.57,0 0.44,0 0.79,0.02 1.14,-0.17 1.1,-0.58 1.16,-1.81 0.51,-2.49 -0.58,-0.6 -1.02,-0.52 -2.04,-0.52l-3.87 0c-0.44,0 -0.57,-0.09 -1.03,-0.25 -1.47,-0.53 -2.93,-0.45 -4.31,0.15 -0.57,0.25 -1.19,0.66 -1.54,1.02l-2.59 2.56c-0.19,0.18 -0.45,0.45 -0.65,0.65 -0.18,0.17 -0.49,0.45 -0.63,0.63 0.06,0.09 0.24,0.24 0.33,0.33l1.61 1.59c0.22,0.2 0.45,0.4 0.65,0.62l2.6 2.53z"/>
  <path class="fil0" d="M16.4 7.53c-0.17,1.31 -1.25,2.38 -2.76,2.22 -1.28,-0.13 -2.39,-1.29 -2.22,-2.78 0.15,-1.22 1.3,-2.36 2.76,-2.18 1.45,0.17 2.38,1.48 2.22,2.74zm-0.99 -5.77c-0.19,-0.3 -0.05,-1.19 -0.46,-1.53 -0.2,-0.18 -0.4,-0.22 -0.76,-0.22 -0.23,0 -0.76,-0.03 -0.95,0.02 -0.63,0.16 -0.63,0.79 -0.71,1.25 -0.08,0.45 -0.02,0.49 -0.2,0.55 -0.38,0.12 -0.49,0.14 -0.88,0.33 -0.43,0.19 -0.29,0.25 -0.65,-0.01 -0.4,-0.28 -0.84,-0.71 -1.34,-0.55 -0.29,0.1 -0.39,0.25 -0.56,0.42 -0.17,0.17 -0.33,0.31 -0.49,0.49 -0.66,0.7 0.29,1.44 0.55,1.95 -0.07,0.19 -0.22,0.43 -0.31,0.65 -0.09,0.24 -0.15,0.49 -0.24,0.71 -0.36,0.09 -1.09,0.13 -1.35,0.27 -0.15,0.09 -0.28,0.24 -0.36,0.44 -0.08,0.21 -0.08,1.28 0,1.5 0.19,0.49 0.61,0.5 1.01,0.57 0.38,0.07 0.66,0.04 0.73,0.2l0.21 0.64c0.07,0.16 0.27,0.53 0.3,0.66 -0.01,0.07 -0.62,0.8 -0.72,1.12 -0.18,0.61 0.31,0.94 0.56,1.18 0.22,0.22 0.6,0.76 1.2,0.52 0.2,-0.08 0.39,-0.24 0.56,-0.35 0.76,-0.52 0.36,-0.41 1.21,-0.06 0.22,0.09 0.47,0.16 0.71,0.24 0.05,0.3 0.16,1.15 0.27,1.34 0.25,0.44 0.6,0.42 1.19,0.42 0.63,0 0.92,0.02 1.18,-0.42 0.13,-0.23 0.23,-1.02 0.28,-1.34 0.25,-0.08 0.48,-0.14 0.71,-0.24 0.21,-0.08 0.47,-0.24 0.66,-0.3 0.18,0.1 0.39,0.27 0.54,0.39 0.15,0.12 0.34,0.29 0.55,0.36 0.62,0.18 0.96,-0.31 1.2,-0.55 0.78,-0.77 0.72,-0.97 0.17,-1.75 -0.52,-0.75 -0.42,-0.35 -0.07,-1.2 0.09,-0.21 0.18,-0.48 0.24,-0.72 1.45,-0.25 1.79,-0.09 1.79,-1.45 0,-1.07 -0.16,-1.2 -1.08,-1.35 -0.95,-0.16 -0.57,0.03 -0.92,-0.83 -0.09,-0.22 -0.23,-0.45 -0.31,-0.65 0.11,-0.21 0.34,-0.5 0.48,-0.7 0.16,-0.22 0.34,-0.47 0.27,-0.86 -0.07,-0.33 -0.32,-0.51 -0.49,-0.68 -0.14,-0.14 -0.41,-0.45 -0.59,-0.55 -0.59,-0.31 -1.06,0.15 -1.57,0.53 -0.18,0.12 -0.16,0.18 -0.37,0.06 -0.35,-0.19 -1.15,-0.48 -1.19,-0.5z"/>
 </g>
</svg>
