<?xml version="1.0" encoding="UTF-8"?>
<!DOCTYPE svg PUBLIC "-//W3C//DTD SVG 1.1//EN" "http://www.w3.org/Graphics/SVG/1.1/DTD/svg11.dtd">
<!-- Creator: CorelDRAW -->
<svg xmlns="http://www.w3.org/2000/svg" xml:space="preserve" width="1600px" height="1600px" version="1.1" style="shape-rendering:geometricPrecision; text-rendering:geometricPrecision; image-rendering:optimizeQuality; fill-rule:evenodd; clip-rule:evenodd"
viewBox="0 0 90.3 90.3"
 xmlns:xlink="http://www.w3.org/1999/xlink"
 xmlns:xodm="http://www.corel.com/coreldraw/odm/2003">
 <defs>
  <style type="text/css">
   <![CDATA[
    .fil0 {fill:#9ABBD8;fill-rule:nonzero}
   ]]>
  </style>
 </defs>
 <g id="Слой_x0020_1">
  <metadata id="CorelCorpID_0Corel-Layer"/>
  <g id="_2060316958096">
   <g>
    <g>
     <path class="fil0" d="M68.7 15.42c0,-2.12 -0.83,-4.11 -2.33,-5.61l-7.48 -7.48c-1.48,-1.48 -3.58,-2.33 -5.66,-2.33l-0.46 0 0 15.87 15.93 0 0 -0.45 0 0z"/>
    </g>
   </g>
   <g>
    <g>
     <path class="fil0" d="M48.31 54.59c0.51,-1.54 1.39,-2.97 2.54,-4.13l17.92 -17.84 0 -11.46 -18.59 0c-1.46,0 -2.56,-1.18 -2.56,-2.64l0 -18.52 -39.68 0c-4.38,0 -7.94,3.56 -7.94,7.94l0 74.42c0,4.38 3.56,7.94 7.94,7.94l52.82 0c4.38,0 8.01,-3.56 8.01,-7.94l0 -19.74 -2.91 2.83c-1.18,1.17 -2.56,2.02 -4.11,2.54l-8.42 2.81 -1.28 0.07c-2.12,0 -4.12,-1.03 -5.36,-2.76 -1.24,-1.71 -1.58,-3.94 -0.9,-5.95l2.52 -7.57zm-35.08 -6.97l26.37 0c1.46,0 2.64,1.18 2.64,2.64 0,1.47 -1.18,2.65 -2.64,2.65l-26.37 0c-1.46,0 -2.65,-1.18 -2.65,-2.65 0,-1.46 1.19,-2.64 2.65,-2.64zm-2.65 -7.94c0,-1.46 1.19,-2.64 2.65,-2.64l26.37 0c1.46,0 2.64,1.18 2.64,2.64 0,1.46 -1.18,2.65 -2.64,2.65l-26.37 0c-1.46,0 -2.65,-1.19 -2.65,-2.65zm0 21.17c0,-1.47 1.19,-2.65 2.65,-2.65l26.37 0c1.46,0 2.64,1.18 2.64,2.65 0,1.46 -1.18,2.64 -2.64,2.64l-26.37 0c-1.46,0 -2.65,-1.18 -2.65,-2.64zm39.6 13.22c1.46,0 2.64,1.19 2.64,2.65 0,1.46 -1.18,2.64 -2.64,2.64l-15.87 0c-1.47,0 -2.65,-1.18 -2.65,-2.64 0,-1.46 1.18,-2.65 2.65,-2.65l15.87 0zm-36.95 -42.32c-1.46,0 -2.65,-1.19 -2.65,-2.65 0,-1.46 1.19,-2.65 2.65,-2.65l36.95 0c1.46,0 2.64,1.19 2.64,2.65 0,1.46 -1.18,2.65 -2.64,2.65l-36.95 0z"/>
    </g>
   </g>
   <g>
    <g>
     <path class="fil0" d="M53.11 56.93l-2.31 6.91c-0.34,1.03 0.64,2.01 1.68,1.67l6.9 -2.31 -6.27 -6.27z"/>
    </g>
   </g>
   <g>
    <g>
     <path class="fil0" d="M73.65 35.15l-17.42 17.42 7.51 7.52c3.94,-3.94 11.6,-11.6 17.42,-17.43l-7.51 -7.51z"/>
    </g>
   </g>
   <g>
    <g>
     <path class="fil0" d="M88.74 27.56c-0.93,-0.93 -2.3,-1.47 -3.75,-1.47 -1.45,0 -2.82,0.54 -3.75,1.48l-3.85 3.84 7.51 7.51c2.11,-2.1 3.56,-3.56 3.85,-3.84 2.07,-2.07 2.07,-5.44 -0.01,-7.52z"/>
    </g>
   </g>
   <g>
    <g>
     <g>
      <path class="fil0" d="M88.75 35.08c0,0 0,0 0,0 0.01,-0.01 0.01,-0.01 0.01,-0.02 0,0.01 0,0.01 -0.01,0.02z"/>
      <path class="fil0" d="M88.76 35.06c0.01,-0.01 0.02,-0.02 0.03,-0.02 -0.01,0 -0.02,0.01 -0.03,0.02z"/>
      <path class="fil0" d="M88.79 35.04c0.02,-0.02 0.02,-0.02 0,0l0 0z"/>
     </g>
    </g>
   </g>
  </g>
 </g>
</svg>
