<?xml version="1.0" encoding="UTF-8"?>
<!DOCTYPE svg PUBLIC "-//W3C//DTD SVG 1.1//EN" "http://www.w3.org/Graphics/SVG/1.1/DTD/svg11.dtd">
<!-- Creator: CorelDRAW -->
<svg xmlns="http://www.w3.org/2000/svg" xml:space="preserve" width="2299px" height="2429px" version="1.1" style="shape-rendering:geometricPrecision; text-rendering:geometricPrecision; image-rendering:optimizeQuality; fill-rule:evenodd; clip-rule:evenodd"
viewBox="0 0 239.24 252.85"
 xmlns:xlink="http://www.w3.org/1999/xlink"
 xmlns:xodm="http://www.corel.com/coreldraw/odm/2003">
 <defs>
  <style type="text/css">
   <![CDATA[
    .fil0 {fill:#9ABBD8}
   ]]>
  </style>
 </defs>
 <g id="Слой_x0020_1">
  <metadata id="CorelCorpID_0Corel-Layer"/>
  <path class="fil0" d="M172.11 36.43c1.39,-1.94 2.98,-3.29 4.71,-5.03 1.57,-1.57 2.66,-2.96 4.72,-4.49l9.44 9.52c-0.85,1.44 -3.27,3.59 -4.61,4.96 -1.64,1.67 -2.97,3.68 -5.12,4.67l-9.14 -9.63zm-7.61 116.32c-8.94,2.08 -20.3,10.4 -26.06,17.21 -15.79,18.67 -19.47,42.02 -4.98,63.17 5.52,8.04 11.4,13.3 19.17,18.57 2.09,1.41 1.63,1.13 4.63,1.13 -0.07,-13.3 -0.11,-26.6 -0.16,-39.9 -0.08,-18.45 -2.74,-15.78 24.32,-15.85 6.32,-0.02 13.78,-0.32 19.97,0.03 6.54,0.37 4.99,6.06 5.02,14.95 0.04,13.49 0.16,27.01 0.1,40.49 3.85,-0.01 5.15,-1.2 7.55,-3.07l6.02 -4.84c11.68,-11.44 21.2,-26.51 18.79,-45.01 -1.38,-10.59 -7.9,-23.25 -13.39,-29.02 -6.17,-6.5 -16.63,-15.07 -26.13,-16.99 0.73,-13.69 2.47,-28.02 3.68,-41.73 1.24,-13.91 2.61,-27.89 3.71,-41.74 0.93,-11.71 4.46,-30.98 1.35,-41.3 -7.9,-26.18 -44.93,-25.57 -53.01,-0.53 -2.23,6.9 -1.14,12.92 -0.43,20l7.97 83.17c0.6,6.66 1.83,14.7 1.88,21.26z"/>
  <path class="fil0" d="M89.7 6.24c-8.31,2.36 -12.6,2.47 -21.17,7.94 -13.86,8.84 -24.12,22.92 -26.66,39.72 -0.29,1.89 -0.2,5.32 -0.56,6.76 -0.62,2.5 -5.88,4.63 -7.45,7.43 9.49,17.53 63.94,16.65 85.1,14.77 6.12,-0.55 20.46,-3 26.44,-5.67 0.98,-0.44 0.68,-0.24 1.46,-0.86 -0.53,-8.66 -1.77,-17.49 -2.56,-26.05 -1.09,-11.81 -0.2,-15.38 -6.11,-22.67 -10.53,-12.99 -19.85,-17.48 -35.94,-21.3l-0.07 -6.31 -12.48 0 0 6.24z"/>
  <path class="fil0" d="M53.82 111.98c4.68,19.37 20.06,40.09 42.16,40.19 22.59,0.1 37.33,-20.84 42.36,-39.85l1 -0.43c5.93,-2.18 7.69,-5.46 7.91,-13.01 0.09,-3.39 0.67,-7.54 -1.59,-9.36 -2.24,-1.81 -5.97,-2.42 -9.16,-1.77 -20.2,4.18 -40.22,5.09 -61.31,3.24 -8.71,-0.77 -23.37,-5.49 -28.55,-1.56 -2.26,1.71 -1.72,6.12 -1.62,9.46 0.21,7.01 2.27,12.15 8.8,13.09z"/>
  <path class="fil0" d="M52.07 154.82l-0.07 59.41 58.06 -0.04c0.51,-16.57 3.47,-31.73 12.56,-44.02 3.27,-4.43 6.68,-7.99 11.18,-11.36 2.2,-1.65 4.98,-2.75 7.18,-4.42 -1.63,-0.9 -10.88,-3.25 -12.9,-3.17 -0.22,0.07 -6.28,5.46 -16.73,8.55 -24.64,7.31 -40.35,-8.62 -43.57,-8.89 -1.28,-0.1 -13.34,2.1 -15.71,3.94z"/>
  <path class="fil0" d="M35.1 252.65c0.68,-29.24 -0.45,-61.88 0.06,-91.33l0.06 -1.83c-3.89,1.22 -21.77,12.29 -25.74,15.07 -1.71,1.2 -4.17,2.93 -5.67,4.33 -0.82,0.77 -2.05,1.93 -2.63,2.56 -2.35,2.51 -0.52,20.01 -0.15,23.67 1.41,13.67 3.36,20.22 10.5,30.26 4.73,6.65 13.68,14.06 23.57,17.27z"/>
 </g>
</svg>
