<?xml version="1.0" encoding="UTF-8"?>
<!DOCTYPE svg PUBLIC "-//W3C//DTD SVG 1.1//EN" "http://www.w3.org/Graphics/SVG/1.1/DTD/svg11.dtd">
<!-- Creator: CorelDRAW -->
<svg xmlns="http://www.w3.org/2000/svg" xml:space="preserve" width="549px" height="549px" version="1.1" style="shape-rendering:geometricPrecision; text-rendering:geometricPrecision; image-rendering:optimizeQuality; fill-rule:evenodd; clip-rule:evenodd"
viewBox="0 0 26.92 26.92"
 xmlns:xlink="http://www.w3.org/1999/xlink"
 xmlns:xodm="http://www.corel.com/coreldraw/odm/2003">
 <defs>
  <style type="text/css">
   <![CDATA[
    .fil0 {fill:#9ABBD8}
   ]]>
  </style>
 </defs>
 <g id="Слой_x0020_1">
  <metadata id="CorelCorpID_0Corel-Layer"/>
  <g id="_3052216785328">
   <path class="fil0" d="M8.09 19.46c0,-0.4 0.46,-0.63 0.88,-0.63l4.93 0c1.25,0 1,1.27 0.38,1.27l-5.69 0c-0.34,0 -0.5,-0.34 -0.5,-0.64zm-8.09 -12.89l0 12.64c0,1.22 1.31,2.4 3.16,2.4l16.81 0c0.77,0 1.27,-0.2 1.75,-0.52 1.7,-1.12 1.16,-3.31 1.16,-5.8 -0.68,-0.15 -1.19,-0.7 -1.55,0.23 -0.74,1.95 -0.89,1.09 -1.11,1.92l-17.57 0c0.3,-0.53 0.13,-8.93 0.13,-10.24 0,-0.48 0.04,-0.04 -0.13,-0.37 1.82,0 3.63,-0.01 5.44,0 1.55,0 1.22,0.2 2.05,-0.61 0.56,-0.55 0.97,-0.49 1.35,-0.67 0.88,-0.4 0.3,-0.81 0.14,-1.51 -2.36,0 -4.72,0 -7.08,0 -1.25,0 -2.35,-0.15 -3.21,0.34 -0.66,0.37 -1.34,1.21 -1.34,2.19z"/>
   <path class="fil0" d="M18.96 4.04c2.03,0 3.92,1.9 3.92,3.92 0,3.71 -4.37,5.45 -6.86,2.95 -2.53,-2.54 -0.74,-6.87 2.94,-6.87zm-5.06 -2.14c-0.65,0 -1.26,0.96 -1.26,1.26 0,0.41 0.63,1.23 0.63,1.77 0,2.66 -2.53,0.84 -2.53,3.41 0,0.93 0.83,0.87 1.48,1.18 2.01,0.92 0.42,3.06 0.42,3.5 0,0.46 0.8,1.26 1.26,1.26 0.58,0 2.49,-1.63 3.51,0.42 0.55,1.12 0.01,1.48 1.68,1.48 1.46,0 0.64,-2.53 2.78,-2.53 0.77,0 1.24,0.63 2.02,0.63 0.21,0 1.14,-0.67 1.14,-1.26 0,-0.57 -1.55,-2.33 0.25,-3.41 1.44,-0.88 1.64,0.16 1.64,-2.03 0,-0.87 -2.53,-0.73 -2.53,-2.52 0,-0.87 0.64,-1.11 0.64,-2.03 0,-0.21 -0.68,-1.13 -1.27,-1.13 -0.52,0 -2.36,1.52 -3.39,-0.28 -0.84,-1.44 0.14,-1.62 -2.04,-1.62 -0.81,0 -0.52,1.59 -1.6,2.2 -1.51,0.84 -1.84,-0.3 -2.83,-0.3z"/>
   <path class="fil0" d="M8.72 24.14l0 1.39c-2.01,0 -4.04,-0.37 -4.04,0.76 0,0.29 0.33,0.63 0.63,0.63l12.26 0c0.83,0 0.83,-1.39 0,-1.39l-3.41 0c0,-2.99 -0.15,-2.65 -4.18,-2.65 -0.63,0 -1.26,0.63 -1.26,1.26z"/>
   <path class="fil0" d="M16.43 7.71l0 0.76c0,0.87 1.15,2.02 2.02,2.02 1.19,0 2.18,-0.17 2.7,-1.61 0.66,-1.85 -1.06,-3.77 -3.12,-3.12 -0.73,0.23 -1.6,1.11 -1.6,1.95z"/>
  </g>
 </g>
</svg>
