<?xml version="1.0" encoding="UTF-8"?>
<!DOCTYPE svg PUBLIC "-//W3C//DTD SVG 1.1//EN" "http://www.w3.org/Graphics/SVG/1.1/DTD/svg11.dtd">
<!-- Creator: CorelDRAW -->
<svg xmlns="http://www.w3.org/2000/svg" xml:space="preserve" width="611px" height="579px" version="1.1" style="shape-rendering:geometricPrecision; text-rendering:geometricPrecision; image-rendering:optimizeQuality; fill-rule:evenodd; clip-rule:evenodd"
viewBox="0 0 33.3 31.56"
 xmlns:xlink="http://www.w3.org/1999/xlink"
 xmlns:xodm="http://www.corel.com/coreldraw/odm/2003">
 <defs>
  <style type="text/css">
   <![CDATA[
    .fil0 {fill:#9ABBD8}
   ]]>
  </style>
 </defs>
 <g id="Слой_x0020_1">
  <metadata id="CorelCorpID_0Corel-Layer"/>
  <g id="_3016513124368">
   <path class="fil0" d="M20.62 6.42c-0.35,0.23 -0.81,0.77 -1.13,1.09l-14.12 14.12c-0.64,0.63 -0.73,0.97 0.05,2.28 0.54,0.9 2.74,3.11 3.98,2.78 0.45,-0.12 1.94,-1.76 2.36,-2.17 0.77,-0.78 13.27,-13.19 13.54,-13.58 -0.83,0.19 -1.29,-0.03 -1.84,-0.38 -0.54,-0.33 -1.5,-1.16 -1.9,-1.67 -0.35,-0.44 -0.69,-0.96 -0.89,-1.49 -0.2,-0.57 -0.1,-0.47 -0.05,-0.98z"/>
   <path class="fil0" d="M17.62 21.11c0.11,0.17 0.78,0.93 1.01,0.93 0.42,0 2.2,-2.38 2.62,-2.38 0.19,0 0.48,0.29 0.48,0.48 0,0.42 -2.38,2.2 -2.38,2.62 0,0.24 0.6,0.71 0.77,0.89l1.67 1.66c1.1,1.11 0.6,1.19 2.65,-0.87 0.49,-0.49 1.24,-1.39 1.81,-1.68 0.01,0.01 0.04,0.01 0.04,0.03l0.18 0.14c0.51,0.52 -0.23,0.9 -1.43,2.11 -2.05,2.05 -1.98,1.55 -0.87,2.65l1.66 1.67c0.18,0.17 0.65,0.77 0.89,0.77 0.42,0 2.2,-2.38 2.62,-2.38 0.19,0 0.48,0.29 0.48,0.48 0,0.42 -2.38,2.19 -2.38,2.61 0,0.14 0.42,0.72 0.79,0.72 0.28,0 3.42,-3.31 3.87,-3.75 1.71,-1.71 1.87,-0.86 -1.35,-4.08 -0.66,-0.66 -7.59,-7.51 -7.83,-7.87l-5.3 5.25z"/>
   <path class="fil0" d="M1.67 5.07c0.11,0.22 0.51,0.8 0.79,0.8 0.42,0 2.2,-2.38 2.61,-2.38 0.22,0 0.39,0.25 0.48,0.39 -0.17,0.74 -2.38,2.24 -2.38,2.7 0,0.25 2.12,2.23 2.44,2.56 0.18,0.17 0.65,0.77 0.89,0.77 0.42,0 2.2,-2.38 2.62,-2.38 0.22,0 0.38,0.26 0.47,0.4 -0.17,0.74 -2.37,2.23 -2.37,2.69 0,0.24 0.56,0.68 0.73,0.86 0.52,0.52 2.18,2.24 2.52,2.47l5.25 -5.21c-0.27,-0.39 -6.8,-6.84 -7.65,-7.69 -1.52,-1.52 -0.76,-1.66 -3.85,1.43 -0.85,0.85 -1.79,1.71 -2.55,2.59z"/>
   <path class="fil0" d="M24.66 2.61c0,1.34 2.58,4.29 4.36,4.29 0.52,0 0.99,-0.63 1.29,-0.93 1.76,-1.75 0.04,-3.07 -1.23,-4.29 -0.74,-0.7 -1.11,-1.13 -2.2,-1.13 -0.6,0 -2.22,1.59 -2.22,2.06z"/>
   <path class="fil0" d="M23.87 3.17c-0.29,0.19 -2.26,2.14 -2.37,2.39 -0.24,0.51 0.22,1.39 0.45,1.75 0.14,0.23 0.33,0.47 0.51,0.68l1.19 1.19c0.48,0.43 1.76,1.28 2.51,0.88 0.2,-0.11 2.24,-2.15 2.39,-2.37 -1.64,0.38 -3.45,-1.5 -4.23,-2.75 -0.17,-0.27 -0.28,-0.47 -0.4,-0.8 -0.2,-0.56 -0.09,-0.45 -0.05,-0.97z"/>
   <path class="fil0" d="M3.57 27.2zm0 0zm0 0c0.07,-0.31 0.33,-0.66 0.53,-1.06 0.2,-0.42 0.38,-0.71 0.58,-1.08 -0.13,-0.24 -0.22,-0.35 -0.35,-0.61 -0.13,-0.27 -0.15,-0.43 -0.37,-0.58l-3.96 7.69c0.34,-0.08 0.63,-0.32 0.95,-0.48l1.88 -0.98c0.68,-0.33 4.56,-2.44 4.86,-2.51 -0.18,-0.24 -0.6,-0.37 -0.89,-0.54 -0.34,-0.22 -0.21,-0.18 -0.91,0.17l-1.39 0.75c-0.33,0.14 -0.17,0.05 -0.54,0.02 0.04,-0.42 0.29,-0.61 0.32,-1.03 -0.21,0.11 -0.4,0.21 -0.71,0.24z"/>
   <polygon class="fil0" points="23.87,3.17 23.95,3.17 23.88,3.08 "/>
   <polygon class="fil0" points="20.62,6.42 20.7,6.42 20.63,6.33 "/>
  </g>
 </g>
</svg>
