<?xml version="1.0" encoding="UTF-8"?>
<!DOCTYPE svg PUBLIC "-//W3C//DTD SVG 1.1//EN" "http://www.w3.org/Graphics/SVG/1.1/DTD/svg11.dtd">
<!-- Creator: CorelDRAW -->
<svg xmlns="http://www.w3.org/2000/svg" xml:space="preserve" width="1528px" height="314px" version="1.1" style="shape-rendering:geometricPrecision; text-rendering:geometricPrecision; image-rendering:optimizeQuality; fill-rule:evenodd; clip-rule:evenodd"
viewBox="0 0 272.53 56"
 xmlns:xlink="http://www.w3.org/1999/xlink"
 xmlns:xodm="http://www.corel.com/coreldraw/odm/2003">
 <defs>
  <style type="text/css">
   <![CDATA[
    .fil2 {fill:#9BBEDE}
    .fil1 {fill:#6D7995}
    .fil0 {fill:#6D7995;fill-rule:nonzero}
   ]]>
  </style>
 </defs>
 <g id="Слой_x0020_1">
  <metadata id="CorelCorpID_0Corel-Layer"/>
  <g id="_1726120231872">
   <path class="fil0" d="M246.84 48.08l-8.77 0 0 -39.88 18.22 0c5.06,0 8.93,1.35 11.63,4.04 2.28,2.28 3.42,5.36 3.42,9.23 0,6.12 -2.85,10.24 -8.55,12.37l9.74 14.24 -10.25 0 -8.66 -12.76 -2.74 0 1.66 -3.91c0.93,-2.18 2.75,-3.61 5.08,-4 1.09,-0.19 2.13,-0.58 3.06,-1.41 1.18,-1.04 1.77,-2.44 1.77,-4.18 0,-1.87 -0.61,-3.28 -1.82,-4.25 -1.22,-0.97 -2.91,-1.45 -5.07,-1.45l-8.72 0c0,12.29 0,19.44 0,31.96z"/>
   <polygon class="fil0" points="219.32,48.08 219.32,8.2 228.09,8.2 228.09,48.08 "/>
   <polygon class="fil0" points="82.57,48.08 82.57,16.29 70.43,16.29 70.43,8.2 103.47,8.2 103.47,16.29 91.34,16.29 91.34,48.08 "/>
   <path class="fil0" d="M30.65 48.08l17.09 -40.17 8.09 0 17.1 40.17 -9.18 0 -3.64 -8.94 -12.28 0 1.45 -3.56c1.05,-2.59 3.44,-4.19 6.23,-4.19l1.46 0 -5.3 -12.94c-5.58,13.63 -6.92,17 -12.07,29.63l-8.95 0z"/>
   <path class="fil0" d="M8.77 28.31l6.95 0c2.17,0 3.87,-0.57 5.1,-1.71 1.24,-1.14 1.86,-2.62 1.86,-4.44 0,-1.94 -0.63,-3.43 -1.89,-4.47 -1.25,-1.05 -3,-1.57 -5.24,-1.57l-6.78 0 0 12.19zm-8.77 19.77l0 -39.88 16.29 0c4.71,0 8.44,1.27 11.17,3.82 2.74,2.54 4.1,5.9 4.1,10.08 0,4.45 -1.52,7.89 -4.55,10.34 -3.04,2.45 -6.9,3.68 -11.57,3.68l-6.67 0 0 11.96 -8.77 0z"/>
   <path class="fil0" d="M170.24 48.08l17.09 -40.17 8.09 0 17.09 40.17 -9.17 0 -3.65 -8.94 -12.27 0 1.44 -3.56c1.06,-2.59 3.44,-4.19 6.24,-4.19l1.46 0 -5.3 -12.94c-5.58,13.63 -6.93,17 -12.08,29.63l-8.94 0z"/>
   <path class="fil1" d="M155.81 4.66c-1.16,7.3 -4.92,13.64 -10.24,18.32 0.86,1.19 1.3,2.7 1.3,4.44 0,0.86 -0.76,3.61 -1.27,4.38 6.77,3.01 14.36,3.42 21.3,1.36 2.34,-11.33 -2.72,-22.28 -10.46,-28.5 -0.18,-0.15 -0.37,-0.28 -0.56,-0.42 -0.03,0.14 -0.05,0.28 -0.07,0.42z"/>
   <path class="fil1" d="M110.13 23.45c-0.03,0.24 -0.05,0.47 -0.08,0.7 0.14,-0.05 0.27,-0.1 0.4,-0.15 6.88,-2.7 14.25,-2.67 20.98,-0.45 0.59,-1.36 1.68,-2.5 3.17,-3.38 0.75,-0.44 3.5,-1.18 4.42,-1.12 -0.84,-7.37 -4.32,-14.12 -9.62,-19.05 -10.95,3.72 -17.83,13.63 -19.27,23.45z"/>
   <path class="fil2" d="M133.58 25.22c-1.19,2.72 0.16,5.92 2.88,7.11 2.83,1.24 5.99,0 7.17,-2.72 1.24,-2.82 0,-5.98 -2.83,-7.21 -0.71,-0.31 -1.46,-0.46 -2.2,-0.46 -2.09,0 -4.11,1.19 -5.02,3.28z"/>
   <path class="fil2" d="M119.55 48.89c8.66,7.67 20.67,8.72 29.92,5.1 0.22,-0.09 0.43,-0.18 0.65,-0.28 -0.12,-0.09 -0.23,-0.17 -0.34,-0.26 -5.75,-4.65 -9.39,-11.06 -10.8,-18 -1.46,0.16 -2.99,-0.22 -4.5,-1.08 -0.75,-0.43 -2.76,-2.45 -3.17,-3.28 -5.97,4.38 -10.11,10.75 -11.76,17.8z"/>
  </g>
 </g>
</svg>
