<svg width="0" height="0" class="hidden">
  <symbol xmlns="http://www.w3.org/2000/svg" viewBox="0 0 127 72.66" id="ic_arr_ver">
    <path d="M0,9.05c0,4.87,2.84,6.87,6,10.06l19.77,19.83c1.36,1.36,2.61,2.7,3.97,4.06l11.86,11.86c1.36,1.33,2.58,2.67,3.94,4.03.58.58,11.07,11.19,11.91,11.83,3.39,2.52,8.52,2.67,12.06.03.93-.7,12.38-12.29,13.91-13.8.7-.7,1.25-1.36,1.94-2.06l3.94-3.94,9.91-9.91c.17-.17.32-.29.46-.46l1.48-1.57c1.36-1.33,2.64-2.61,3.97-3.97,2.67-2.67,5.28-5.28,7.94-7.94l2.38-2.46c.17-.17.32-.32.52-.49l8.87-8.99c3.04-3.45,2.81-9.04-.46-12.32-3.28-3.28-8.2-3.74-11.8-1.16-1.28.93-8.49,8.32-9.91,9.74l-1.16,1.25c-.78.9-4.38,4.38-5.36,5.33l-26.09,26.29c-.49.49-6.17,6.26-6.55,6.52-.43-.29-1.25-1.19-1.65-1.59-.55-.58-1.04-1.07-1.62-1.62-.78-.81-2.52-2.46-3.22-3.3l-14.7-14.73c-.35-.32-.46-.49-.78-.84-.72-.9-9.54-9.54-10.67-10.67l-13.04-13.13C14.9,1.95,13.51.03,8.75.03c-1.25,0-2.67.43-3.54.87C2.2,2.41,0,5.6,0,9.05Z" fill="currentColor"></path>
  </symbol>
  <symbol xmlns="http://www.w3.org/2000/svg" viewBox="0 0 175.35 127" id="ic_arrow_hor">
    <path d="M111.71,127c4.92,0,6.89-2.84,10.08-5.96l19.86-19.81c1.33-1.33,2.66-2.61,4.05-3.94l11.81-11.87c1.39-1.33,2.72-2.61,4.05-3.94.58-.58,11.23-11.06,11.81-11.93,2.55-3.42,2.66-8.51.06-12.05-.69-.93-12.34-12.39-13.84-13.9-.69-.69-1.33-1.27-2.03-1.97-1.33-1.33-2.61-2.61-3.94-3.94l-9.9-9.9c-.17-.17-.29-.35-.46-.46l-1.56-1.51c-1.39-1.33-2.66-2.61-4-3.94-2.66-2.72-5.27-5.33-7.93-7.99l-2.49-2.37c-.17-.17-.29-.29-.46-.52l-8.98-8.86c-3.47-3.07-9.09-2.78-12.34.46-3.3,3.3-3.76,8.22-1.16,11.81.93,1.27,8.28,8.46,9.73,9.9l1.22,1.16c.93.81,4.4,4.4,5.39,5.39l23.51,23.34H9.32c-5.15,0-9.32,4.17-9.32,9.32s4.17,9.27,9.32,9.27h134.82l-11.87,11.93c-.35.29-.52.46-.87.75-.87.75-9.56,9.5-10.66,10.66l-13.15,13.03c-2.95,2.95-4.86,4.34-4.86,9.09,0,1.27.41,2.66.87,3.53,1.51,3.07,4.69,5.21,8.11,5.21h0Z" fill="currentColor"></path>
  </symbol>
  <symbol xmlns="http://www.w3.org/2000/svg" viewBox="0 0 395 411.9" id="ic_big_arrow">
    <polygon points="0 172.75 244.14 172.75 298.09 115.24 175.33 0 121.33 57.51 244.14 172.75 324.65 172.75 341.06 157.39 395 214.9 185.1 411.9 131.1 354.34 240.58 251.61 0 251.61 0 172.75" fill="currentColor" fill-rule="evenodd"></polygon>
  </symbol>
  <symbol xmlns="http://www.w3.org/2000/svg" viewBox="0 0 1751.7 1752.01" id="ic_circle_text">
    <path d="M531.92,1661.99c-4.98-3.92-8.25-8.65-9.76-14.09-1.46-5.48-1.06-11.22,1.31-17.16,2.01-5.13,4.98-9.21,8.86-12.33,3.92-3.07,8.5-4.88,13.84-5.43,5.33-.5,10.97.4,16.91,2.72l37.94,15-36.28,92.08-31.7-12.48c-8-3.17-13.49-7.85-16.5-14.09s-3.22-12.78-.55-19.57c1.51-3.82,3.67-6.94,6.39-9.41,2.77-2.47,5.94-4.23,9.56-5.23ZM557.68,1708.74l11.27-28.63-19.67-7.75c-5.18-2.06-9.71-2.31-13.54-.81-3.82,1.46-6.59,4.43-8.3,8.81-1.76,4.38-1.71,8.35,0,12.03,1.76,3.62,5.28,6.49,10.57,8.55l19.67,7.8h0ZM560.35,1625.91c-6.09-2.36-11.37-2.67-15.95-.86-4.58,1.76-7.9,5.23-9.91,10.37-2.01,5.08-1.96,9.86.15,14.34,2.16,4.43,6.24,7.8,12.28,10.21l25.96,10.21,13.38-34.02-25.91-10.27h0ZM444.11,1591.9l50.07,28.83c3.02-6.59,3.42-13.08,1.26-19.37-2.11-6.29-6.29-11.27-12.53-14.84-7.2-4.13-15.3-4.98-24.35-2.57l-1.96-10.11c5.28-1.56,10.67-2.11,16.05-1.61,5.43.55,10.67,2.26,15.7,5.13,6.24,3.57,11.07,8.3,14.49,14.14,3.47,5.84,5.23,12.13,5.28,18.87s-1.71,13.13-5.23,19.32c-3.47,6.04-8.1,10.82-13.89,14.24s-11.98,5.18-18.62,5.28-12.98-1.56-18.92-4.98c-5.38-3.12-9.61-7.15-12.63-12.08-3.02-4.98-4.53-10.37-4.58-16.15,0-5.79,1.56-11.42,4.78-17.01,1.41-2.42,3.07-4.78,5.08-7.09h0ZM456.95,1635.27c5.28,3.02,10.82,4.03,16.66,2.92,5.84-1.11,10.87-4.08,15.15-8.86l-40.2-23.1c-3.17,5.69-3.87,11.17-2.11,16.5,1.71,5.28,5.23,9.46,10.52,12.53h0ZM399.88,1612.23l-9.41-6.69,16.91-23.7-29.24-20.78-16.86,23.7-9.41-6.69,42.32-59.53,9.41,6.69-19.57,27.52,29.24,20.78,19.57-27.52,9.41,6.69-42.37,59.53ZM321.69,1540.93l18.57,16.1-6.74,7.85-45.79-39.7,6.74-7.8,18.62,16.1,41.01-47.4,8.65,7.45-41.06,47.4h0ZM227.64,1467.61l54.04-51.53,7.95,8.35-37.34,35.63,69.29-4.53,2.92,3.07-54.09,51.53-7.95-8.35,37.44-35.73-69.39,4.63-2.87-3.07h0ZM173.05,1399.08l57.41-45.14,7.15,9.06-49.26,38.75,16.76,21.34,7.25-5.28c10.32-7.6,19.02-13.23,26.07-16.86,7.04-3.67,13.13-5.38,18.27-5.18,5.08.15,9.41,2.52,12.93,6.99.86,1.11,1.51,2.21,1.91,3.42l-7.65,6.04c-.6-1.06-1.11-1.91-1.61-2.57-2.92-3.67-7.85-4.03-14.89-1.06-6.99,2.97-16.5,8.96-28.48,17.96l-15.25,11.42-30.59-38.9ZM125.19,1327.93l61.49-39.45,6.24,9.76-22.44,14.39,7.45,11.62,33.31,2.52,7.3,11.37-35.27-2.72c1.61,5.38,1.61,10.42.1,15s-4.43,8.3-8.81,11.07c-5.99,3.87-12.03,4.93-18.17,3.27-6.09-1.66-11.27-5.79-15.5-12.33,0,0-15.7-24.51-15.7-24.51ZM140.14,1332.05l9.06,14.14c2.52,3.87,5.43,6.29,8.76,7.25,3.32.96,6.69.35,10.06-1.81,3.27-2.11,5.18-4.93,5.74-8.4.55-3.52-.4-7.2-2.92-11.07l-8.96-14.04-21.74,13.94h0ZM147.13,1214.41l26.67,52.08-65.01,33.31-5.23-10.32,55.9-28.63-16-31.25-55.9,28.63-5.28-10.27,55.95-28.63-5.43-10.57,27.93-14.29,5.23,10.27s-18.82,9.66-18.82,9.66ZM43.88,1158.4l69.49-27.42,4.23,10.77-48,18.92,65.87,21.89,1.56,3.92-69.49,27.37-4.23-10.72,48.1-18.97-65.97-21.89-1.56-3.87h0ZM99.33,1074.47c1.56,6.84,1.36,13.49-.65,19.88-2.01,6.44-5.48,11.93-10.42,16.55s-10.77,7.75-17.51,9.26c-6.79,1.61-13.44,1.41-19.93-.6-6.44-2.01-11.98-5.48-16.55-10.42-4.58-4.93-7.65-10.82-9.26-17.66-1.56-6.79-1.36-13.44.65-19.93,2.01-6.44,5.43-12.03,10.32-16.61,4.88-4.63,10.77-7.75,17.56-9.31,6.74-1.56,13.33-1.31,19.78.65,6.49,2.01,12.03,5.54,16.66,10.52,4.68,4.98,7.75,10.87,9.36,17.66h0ZM88.91,1076.88c-1.11-4.78-3.27-8.86-6.49-12.28-3.27-3.37-7.2-5.79-11.72-7.15-4.58-1.36-9.36-1.46-14.34-.3-5.08,1.16-9.36,3.37-12.98,6.54-3.57,3.17-6.04,6.99-7.5,11.47-1.41,4.53-1.56,9.16-.45,13.94,1.11,4.83,3.27,8.96,6.54,12.33,3.22,3.37,7.15,5.69,11.77,6.99,4.58,1.26,9.41,1.36,14.49.15,4.98-1.11,9.21-3.27,12.73-6.44,3.52-3.22,6.04-6.99,7.45-11.42,1.46-4.48,1.61-9.06.5-13.84ZM12.28,1026.82l-1.46-11.42,28.83-3.67-4.48-35.58-28.88,3.67-1.46-11.47,72.46-9.21,1.46,11.47-33.46,4.23,4.53,35.58,33.46-4.23,1.46,11.42-72.46,9.21ZM1.51,935.74l-.3-11.52,29.08-.75-.91-35.83-29.08.75-.3-11.57,73.01-1.81.3,11.52-33.71.86.86,35.83,33.76-.86.3,11.57s-73.01,1.81-73.01,1.81ZM76.99,816.99c-.55,6.94-2.72,13.23-6.54,18.72-3.82,5.54-8.81,9.76-14.89,12.73s-12.58,4.18-19.47,3.62c-6.94-.5-13.23-2.72-18.82-6.54-5.59-3.82-9.81-8.81-12.68-14.89-2.92-6.09-4.08-12.58-3.57-19.57.55-6.99,2.72-13.28,6.54-18.82,3.82-5.59,8.76-9.86,14.84-12.83,6.04-2.92,12.53-4.13,19.52-3.62,6.84.55,13.08,2.72,18.67,6.54,5.59,3.82,9.81,8.86,12.78,14.99,2.92,6.14,4.13,12.68,3.62,19.67h0ZM66.37,816.18c.35-4.93-.5-9.46-2.57-13.69-2.11-4.23-5.13-7.65-9.11-10.32-3.92-2.67-8.45-4.18-13.54-4.58-5.18-.35-9.96.4-14.34,2.36-4.33,2.01-7.9,4.93-10.57,8.76-2.72,3.87-4.23,8.25-4.63,13.13-.35,4.98.5,9.56,2.57,13.74,2.11,4.18,5.13,7.55,9.16,10.16,4.03,2.62,8.6,4.13,13.79,4.53,5.08.35,9.81-.45,14.09-2.42,4.33-1.96,7.85-4.88,10.52-8.65,2.72-3.82,4.23-8.15,4.63-13.03ZM60.38,689.23l-10.16,56.86c7.2.55,13.44-1.21,18.62-5.38,5.23-4.13,8.45-9.76,9.71-16.86,1.46-8.15-.45-16.05-5.79-23.7l8.86-5.28c3.27,4.43,5.59,9.31,6.89,14.54,1.36,5.28,1.51,10.77.5,16.5-1.26,7.04-4.08,13.23-8.4,18.47-4.33,5.18-9.66,8.96-15.95,11.27-6.34,2.36-12.98,2.87-19.93,1.66-6.89-1.26-12.93-4.03-18.11-8.3-5.18-4.28-8.96-9.51-11.32-15.7-2.31-6.24-2.87-12.73-1.66-19.52,1.06-6.09,3.47-11.42,7.09-15.95,3.67-4.53,8.2-7.75,13.64-9.71,5.43-2.01,11.27-2.42,17.61-1.31,2.72.5,5.54,1.31,8.4,2.42ZM23.9,715.95c-1.06,5.99-.1,11.57,2.92,16.66,2.97,5.13,7.45,8.86,13.44,11.22l8.15-45.59c-6.44-1.06-11.82.15-16.25,3.57-4.43,3.42-7.2,8.15-8.25,14.14ZM122.22,603.69c-2.21,6.59-5.89,12.13-10.97,16.5-5.08,4.43-10.97,7.3-17.56,8.65-6.64,1.36-13.23.91-19.78-1.31-6.64-2.21-12.18-5.89-16.61-11.02-4.48-5.08-7.35-10.92-8.65-17.56-1.26-6.59-.81-13.23,1.46-19.88,2.21-6.59,5.89-12.18,10.97-16.61,5.13-4.43,10.97-7.35,17.56-8.71,6.54-1.36,13.18-.96,19.78,1.31,6.54,2.21,12.08,5.89,16.5,10.97,4.43,5.08,7.35,10.97,8.65,17.66,1.36,6.64.91,13.33-1.36,19.98ZM112.16,600.27c1.56-4.68,1.86-9.26.86-13.89-.96-4.63-3.02-8.71-6.19-12.23-3.22-3.57-7.2-6.19-12.03-7.8-4.93-1.66-9.76-2.06-14.49-1.26-4.68.86-8.86,2.77-12.43,5.84s-6.14,6.94-7.7,11.57c-1.61,4.73-1.91,9.41-.91,13.94,1.01,4.58,3.12,8.6,6.34,12.13,3.27,3.52,7.35,6.14,12.28,7.8,4.83,1.61,9.56,2.01,14.24,1.16,4.63-.81,8.76-2.77,12.33-5.79,3.52-3.02,6.09-6.84,7.7-11.47h0ZM94.05,483.93c3.02-5.84,7.3-10.52,12.78-13.99,5.48-3.52,11.47-5.38,17.96-5.74,6.54-.3,12.73,1.06,18.62,4.08,5.94,3.02,10.67,7.35,14.14,12.98,3.47,5.59,5.33,11.72,5.59,18.37s-1.21,13.08-4.38,19.32c-3.42,6.54-7.9,11.62-13.59,15.1-5.69,3.52-12.03,5.23-19.02,5.18-6.99-.05-14.04-1.86-21.18-5.54l-11.32-5.79c-9.96-5.13-17.66-10.32-23.05-15.6-5.38-5.28-8.71-11.93-9.96-19.98-1.31-8-.05-18.01,3.72-29.99,3.67-12.03,5.69-20.23,5.99-24.56l9.91,5.03c-.35,5.03-2.26,12.73-5.79,23.15-3.42,9.96-4.63,18.06-3.62,24.3,1.01,6.24,3.47,11.17,7.3,14.69,3.87,3.57,9.26,7.09,16.2,10.67-2.67-4.88-4.03-10.11-4.08-15.7s1.21-10.92,3.77-16ZM149.3,513.92c2.21-4.28,3.17-8.71,2.97-13.28-.2-4.63-1.61-8.86-4.08-12.73-2.52-3.87-5.94-6.89-10.21-9.11-4.28-2.16-8.71-3.17-13.28-2.92-4.63.2-8.86,1.56-12.73,4.08s-6.89,5.94-9.11,10.21c-2.11,4.18-3.07,8.55-2.87,13.18.2,4.58,1.56,8.86,4.08,12.78,2.47,3.87,5.89,6.94,10.11,9.16,4.23,2.11,8.6,3.07,13.23,2.77,4.63-.25,8.91-1.61,12.83-4.13,3.92-2.47,6.94-5.79,9.06-10.01h0ZM203.99,440c-3.77,5.89-8.65,10.37-14.69,13.38-5.99,3.07-12.33,4.43-19.12,4.13-6.74-.3-13.03-2.31-18.82-6.04-5.89-3.77-10.42-8.65-13.49-14.69-3.12-5.99-4.48-12.38-4.13-19.12.35-6.74,2.36-13.03,6.14-18.92,3.82-5.89,8.71-10.37,14.74-13.49,5.99-3.07,12.38-4.48,19.07-4.23,6.74.25,13.03,2.31,18.92,6.09,5.84,3.72,10.27,8.55,13.33,14.59,3.12,6.04,4.48,12.43,4.18,19.22-.35,6.79-2.36,13.18-6.14,19.07h0ZM194.99,434.21c2.67-4.13,4.08-8.5,4.23-13.23.2-4.68-.86-9.16-3.07-13.38-2.21-4.23-5.48-7.7-9.76-10.42-4.38-2.82-8.96-4.38-13.74-4.73s-9.31.55-13.49,2.67c-4.23,2.11-7.65,5.23-10.27,9.36-2.72,4.23-4.13,8.65-4.28,13.33-.15,4.63.96,9.06,3.22,13.28,2.31,4.18,5.64,7.7,10.01,10.52,4.33,2.77,8.81,4.28,13.54,4.58,4.73.3,9.21-.6,13.38-2.67,4.18-2.06,7.6-5.18,10.21-9.31h0ZM203.89,312.29c4.53-5.23,9.86-8.81,15.95-10.77,6.14-1.96,12.43-2.21,18.82-.75,6.44,1.46,12.33,4.48,17.71,9.16,5.33,4.63,9.21,10.06,11.57,16.25,2.36,6.24,3.02,12.48,1.91,18.87-1.06,6.34-3.82,12.08-8.25,17.21-3.52,4.08-7.7,7.25-12.43,9.41-4.73,2.16-9.51,3.17-14.34,2.92l28.33,24.56-7.55,8.76-75.63-65.52,7.09-8.15,8.81,7.65c-1.31-4.88-1.26-9.91.2-15.2,1.46-5.28,4.08-10.06,7.8-14.39h0ZM252.45,356.57c3.22-3.72,5.23-7.85,6.04-12.38s.35-9.01-1.31-13.44c-1.71-4.48-4.53-8.4-8.45-11.77-3.92-3.42-8.25-5.64-12.88-6.69-4.63-1.06-9.16-.86-13.59.55-4.38,1.41-8.2,3.98-11.37,7.65-2.92,3.32-4.83,7.09-5.84,11.32-1.06,4.23-.75,8.6.75,13.08,1.51,4.48,4.58,8.76,9.21,12.73,4.63,4.03,9.26,6.49,13.94,7.4,4.68.96,9.01.6,13.03-.96,4.03-1.61,7.55-4.13,10.47-7.5h0ZM291.4,223.83l31.4,85.09c2.42,6.59,3.17,12.33,2.26,17.26-.91,4.93-3.37,9.31-7.45,13.18-2.67,2.57-5.74,4.78-9.16,6.69l-6.74-7.04c3.12-2.26,5.43-4.13,6.94-5.59,2.72-2.62,4.48-5.43,5.23-8.5s.3-6.84-1.36-11.32l-3.22-9.01-70.75-30.34,9.01-8.6,57.62,25.46-22.69-58.77,8.91-8.5h0ZM396.16,219.65l19.37,24.66-9.06,7.15-13.08-16.61-45.19,35.47,13.08,16.61-9.06,7.15-19.37-24.66,6.49-5.08c.5-4.83-.81-10.42-3.92-16.66-3.17-6.24-8.05-13.74-14.69-22.54l-12.33-16.4,39.6-31.15,38.85,49.41,9.31-7.35ZM329.44,218.5c6.14,8.15,10.87,15.55,14.19,22.19,3.27,6.59,5.03,11.98,5.28,16.15l28.88-22.69-32.46-41.31-21.94,17.26,6.04,8.4h0ZM444.42,201.39c-5.89,3.77-12.18,5.84-18.92,6.09-6.69.25-13.08-1.16-19.07-4.23-6.04-3.12-10.92-7.55-14.64-13.33-3.77-5.94-5.79-12.23-6.09-19.02-.3-6.74,1.11-13.08,4.23-19.07,3.12-5.99,7.6-10.87,13.49-14.64s12.23-5.84,19.02-6.09c6.74-.3,13.13,1.06,19.12,4.13,5.99,3.02,10.87,7.5,14.64,13.38,3.72,5.84,5.74,12.08,6.04,18.87.3,6.74-1.16,13.13-4.28,19.17-3.12,6.09-7.65,10.97-13.54,14.74h0ZM438.68,192.43c4.13-2.62,7.25-6.04,9.36-10.27s3.02-8.71,2.77-13.44c-.25-4.78-1.76-9.31-4.53-13.59-2.82-4.38-6.29-7.75-10.52-10.01-4.18-2.31-8.65-3.37-13.33-3.22-4.73.2-9.11,1.61-13.23,4.23-4.23,2.72-7.35,6.14-9.46,10.32-2.06,4.18-2.92,8.65-2.62,13.44.35,4.78,1.91,9.36,4.73,13.74,2.77,4.28,6.19,7.55,10.37,9.81,4.18,2.26,8.6,3.32,13.28,3.17s9.06-1.51,13.18-4.18h0ZM516.93,113.93c4.53-.6,8.55-.15,12.13,1.41,3.52,1.56,6.24,4.18,8.15,7.95,2.97,5.79,3.32,11.57,1.01,17.36-2.31,5.79-6.99,10.47-14.04,14.09l-30.14,15.45-33.31-65.01,26.82-13.74c6.39-3.32,12.33-4.33,17.66-3.17,5.38,1.16,9.41,4.38,12.13,9.66,1.31,2.57,1.91,5.23,1.86,8.05-.1,2.77-.86,5.43-2.26,7.95h0ZM484.57,126.46l16.71-8.55c3.57-1.81,5.84-3.98,6.79-6.44,1.01-2.47.81-5.08-.6-7.8-2.92-5.74-7.95-6.74-15.1-3.12l-16.66,8.55,8.86,17.36ZM518.89,145.99c4.23-2.16,7.04-4.88,8.4-8,1.36-3.17,1.26-6.34-.35-9.46-1.56-3.02-3.92-4.78-7.2-5.33-3.27-.5-6.99.3-11.27,2.52l-19.22,9.86,10.37,20.28,19.27-9.86ZM564.68,56.02c8-3.17,15.35-3.32,22.04-.5,6.74,2.87,11.82,8.76,15.35,17.66l16.5,41.87-10.01,3.98-3.47-8.81c-1.21,4.33-3.42,8.15-6.64,11.47-3.17,3.32-7.25,5.94-12.18,7.9-6.99,2.72-13.38,3.27-19.12,1.56-5.79-1.71-9.81-5.48-12.13-11.32-2.31-5.79-1.86-11.27,1.26-16.45,3.07-5.23,8.3-9.26,15.65-12.18l21.49-8.45-2.31-5.89c-2.16-5.59-5.33-9.26-9.41-11.02-4.08-1.76-8.71-1.66-13.79.35-4.13,1.61-7.4,3.98-9.81,7.04-2.47,3.02-4.38,6.94-5.74,11.67l-9.41-3.07c1.06-6.24,3.57-11.52,7.4-15.9,3.87-4.38,8.65-7.7,14.34-9.91h0ZM584.15,120.07c3.72-1.46,6.84-3.62,9.36-6.49s4.13-6.14,4.93-9.76c.75-3.67.45-7.2-.91-10.62l-.65-1.71-20.23,8c-4.73,1.86-8.05,4.13-9.91,6.74s-2.16,5.48-.96,8.65c1.36,3.47,3.77,5.59,7.2,6.39,3.42.75,7.15.4,11.17-1.21h0ZM622.19,38.15l11.12-3.17,7.95,27.98,34.47-9.76-7.95-28.03,11.12-3.12,19.98,70.25-11.12,3.17-9.21-32.46-34.47,9.76,9.21,32.51-11.12,3.12-19.98-70.25h0ZM774.15,5.14l9.41,74.07-11.47,1.46-6.49-51.17-37.49,58.42-4.18.55-9.41-74.12,11.47-1.46,6.54,51.33,37.44-58.57,4.18-.5h0ZM872.38,40.87l-57.72,1.46c.86,7.2,3.87,12.93,8.96,17.21,5.13,4.28,11.27,6.29,18.47,6.14,8.3-.2,15.65-3.72,22.09-10.47l6.94,7.6c-3.67,4.13-8,7.35-12.88,9.71s-10.21,3.62-16.05,3.77c-7.2.2-13.79-1.31-19.72-4.53-5.99-3.17-10.77-7.65-14.29-13.33-3.57-5.74-5.43-12.13-5.59-19.22-.2-6.99,1.31-13.49,4.43-19.42,3.17-5.89,7.55-10.62,13.13-14.19,5.64-3.52,11.88-5.38,18.77-5.59,6.19-.15,11.88,1.11,17.06,3.77,5.18,2.67,9.26,6.49,12.28,11.42s4.63,10.57,4.78,16.96c.1,2.82-.15,5.74-.65,8.71ZM838.92,10.53c-6.14.15-11.37,2.21-15.75,6.19-4.43,3.92-7.2,9.11-8.35,15.45l46.34-1.21c-.25-6.49-2.52-11.57-6.74-15.2s-9.41-5.38-15.5-5.23ZM968.79,80.87c-6.94-.86-13.08-3.37-18.42-7.45-5.33-4.13-9.31-9.31-11.93-15.5-2.62-6.24-3.52-12.78-2.67-19.62.91-6.94,3.37-13.13,7.5-18.47,4.13-5.38,9.26-9.36,15.5-11.98,6.24-2.57,12.83-3.42,19.78-2.52,6.94.86,13.08,3.37,18.47,7.45,5.38,4.13,9.36,9.26,12.03,15.45,2.62,6.19,3.52,12.73,2.62,19.67-.86,6.89-3.32,12.98-7.45,18.37-4.13,5.38-9.31,9.36-15.6,11.98-6.29,2.67-12.88,3.52-19.83,2.62ZM970.15,70.31c4.83.65,9.41,0,13.74-1.86s7.9-4.73,10.77-8.55c2.87-3.77,4.63-8.25,5.23-13.28.65-5.18.15-9.96-1.61-14.44-1.76-4.43-4.48-8.1-8.2-11.02-3.72-2.87-8-4.63-12.88-5.28-4.93-.6-9.56,0-13.84,1.91-4.28,1.86-7.8,4.73-10.62,8.6s-4.53,8.4-5.18,13.54c-.65,5.08-.1,9.81,1.66,14.24,1.76,4.38,4.48,8.05,8.1,10.92,3.67,2.87,7.95,4.63,12.83,5.23h0ZM1054.43,29.75l-23.95-5.54,2.31-10.11,59.02,13.64-2.31,10.11-23.95-5.54-14.09,61.09-11.12-2.57,14.09-61.09ZM1194.37,59.14c6.39,2.52,11.57,6.34,15.45,11.47,3.87,5.13,6.19,10.97,6.94,17.51.75,6.54-.15,13.08-2.77,19.72-2.62,6.59-6.44,12.03-11.52,16.3s-10.77,6.99-17.11,8.1c-6.34,1.11-12.68.4-19.02-2.11-5.03-1.96-9.36-4.83-12.98-8.55-3.62-3.77-6.14-7.95-7.55-12.58l-13.74,34.87-10.77-4.23,36.73-93.09,10.01,3.98-4.28,10.87c4.13-2.87,8.96-4.48,14.44-4.88,5.43-.35,10.82.5,16.15,2.62h0ZM1168.7,119.62c4.58,1.81,9.11,2.36,13.64,1.61,4.53-.75,8.65-2.67,12.28-5.74,3.62-3.07,6.39-7.04,8.3-11.88,1.91-4.83,2.57-9.61,2.01-14.34s-2.21-8.96-4.98-12.63c-2.82-3.67-6.49-6.44-11.07-8.2-4.08-1.66-8.3-2.21-12.58-1.76-4.33.45-8.35,2.11-12.08,5.08-3.77,2.92-6.74,7.2-8.96,12.88-2.26,5.69-3.02,10.87-2.36,15.6s2.42,8.71,5.23,12.03c2.87,3.22,6.39,5.69,10.57,7.35ZM1247.4,166.92c-6.19-3.22-11.12-7.65-14.74-13.28-3.62-5.69-5.59-11.93-5.94-18.67-.35-6.74,1.01-13.18,4.18-19.32,3.17-6.24,7.6-11.17,13.33-14.84,5.69-3.67,11.88-5.64,18.62-5.94,6.74-.35,13.23,1.11,19.42,4.28,6.24,3.22,11.17,7.65,14.84,13.33s5.69,11.93,6.09,18.62c.35,6.69-1.06,13.18-4.23,19.42-3.17,6.14-7.6,11.02-13.28,14.69-5.69,3.62-11.93,5.64-18.72,5.99s-13.33-1.11-19.57-4.28h0ZM1252.28,157.41c4.38,2.26,8.91,3.22,13.59,2.92,4.68-.25,9.06-1.71,13.03-4.38,3.98-2.62,7.15-6.19,9.46-10.72,2.36-4.63,3.47-9.36,3.37-14.14-.15-4.78-1.46-9.16-3.98-13.13-2.52-3.98-5.94-7.09-10.32-9.31-4.43-2.31-9.01-3.27-13.64-2.97-4.68.3-8.96,1.81-12.93,4.53-3.98,2.67-7.15,6.34-9.51,10.97-2.31,4.53-3.42,9.16-3.27,13.89.15,4.78,1.46,9.11,3.92,13.08,2.47,3.92,5.89,7.04,10.27,9.26h0ZM1325.9,213.87c-5.89-3.77-10.42-8.65-13.49-14.69-3.07-5.99-4.48-12.38-4.18-19.17.25-6.74,2.31-13.08,6.09-18.97,3.77-5.89,8.65-10.37,14.64-13.38,5.99-3.07,12.38-4.43,19.12-4.13,6.79.25,13.08,2.31,18.97,6.09,5.43,3.47,9.51,7.8,12.38,12.98,2.82,5.23,4.33,10.77,4.43,16.66l-10.47,1.11c-.7-9.81-4.68-17.06-11.93-21.69-4.23-2.72-8.71-4.13-13.44-4.23-4.73-.15-9.21.96-13.38,3.22-4.23,2.31-7.65,5.59-10.37,9.76-2.72,4.33-4.28,8.86-4.63,13.64-.3,4.78.55,9.26,2.67,13.54,2.06,4.23,5.23,7.7,9.41,10.42,7.25,4.63,15.45,5.23,24.51,1.81l3.47,9.86c-5.43,2.36-11.07,3.32-16.96,2.97-5.84-.4-11.47-2.31-16.86-5.79h0ZM1390.21,262.88c-5.28-4.58-9.01-10.06-11.22-16.45-2.16-6.39-2.67-12.93-1.41-19.57s4.18-12.63,8.76-17.91c4.63-5.28,10.06-9.01,16.45-11.17,6.34-2.16,12.88-2.62,19.52-1.36s12.63,4.18,17.91,8.76c4.83,4.23,8.25,9.11,10.32,14.64,2.06,5.54,2.77,11.27,2.06,17.16l-10.57-.45c.7-9.81-2.16-17.56-8.71-23.2-3.77-3.27-8-5.28-12.63-6.09-4.68-.81-9.26-.35-13.74,1.31-4.48,1.66-8.4,4.38-11.67,8.15-3.32,3.87-5.48,8.15-6.49,12.83s-.81,9.26.65,13.74c1.46,4.53,4.08,8.4,7.85,11.67,6.49,5.64,14.49,7.4,24,5.28l2.01,10.32c-5.74,1.51-11.42,1.71-17.21.45-5.74-1.21-11.02-3.87-15.9-8.1h0ZM1524.61,286.18l-54.04,51.58-8-8.35,37.34-35.63-69.24,4.48-2.92-3.02,54.04-51.53,8,8.35-37.49,35.73,69.39-4.63,2.92,3.02ZM1583.53,357.83l-58.77,46.14-7.09-9.06,40.56-31.9-69.39-2.11-2.62-3.27,58.77-46.19,7.09,9.11-40.66,31.95,69.49,2.06,2.62,3.27ZM1574.78,328.49c-4.23-5.33-5.89-11.02-5.03-16.96s4.08-11.12,9.66-15.5l3.62-2.87,6.04,7.65-3.42,2.72c-3.82,3.02-6.14,6.24-6.79,9.61-.7,3.42.2,6.74,2.72,9.96,2.62,3.32,5.64,5.03,9.11,5.13,3.47.15,7.15-1.31,11.02-4.33l3.42-2.67,5.99,7.65-3.62,2.87c-5.59,4.38-11.37,6.29-17.36,5.74-5.99-.6-11.12-3.57-15.35-9.01h0ZM1555.66,453.54c-3.77-5.89-5.84-12.23-6.14-18.97-.25-6.79,1.11-13.18,4.23-19.17,3.07-6.04,7.55-10.92,13.44-14.69,5.94-3.77,12.23-5.84,18.92-6.09,6.74-.25,13.08,1.16,19.12,4.23,6.04,3.07,10.92,7.6,14.69,13.49,3.47,5.38,5.38,11.02,5.79,16.96.4,5.89-.55,11.57-2.92,17.01l-10.01-3.37c3.47-9.26,2.92-17.51-1.76-24.71-2.67-4.23-6.14-7.4-10.42-9.46-4.23-2.11-8.76-2.97-13.54-2.62-4.78.3-9.26,1.81-13.44,4.53-4.33,2.77-7.6,6.24-9.91,10.42-2.26,4.23-3.37,8.65-3.27,13.38.15,4.78,1.56,9.21,4.28,13.44,4.63,7.25,11.77,11.17,21.49,11.88l-.96,10.42c-5.94-.15-11.47-1.61-16.66-4.38-5.18-2.82-9.51-6.89-12.93-12.28h0ZM1647.09,462.19l5.28,10.27-65.01,33.31-5.28-10.27,65.01-33.31ZM1610.1,550.25l-6.64-12.98,19.83-48.21,43.78,12.13,6.54,12.78-43.63-12.53-19.88,48.81h0ZM1625.3,594.13c-2.57-6.49-3.32-13.08-2.31-19.72,1.06-6.64,3.67-12.63,7.85-17.91,4.18-5.33,9.51-9.26,15.9-11.77,6.54-2.57,13.13-3.32,19.83-2.31,6.69,1.01,12.68,3.62,17.91,7.85,5.28,4.18,9.21,9.56,11.77,16.05,2.57,6.54,3.32,13.13,2.31,19.83s-3.62,12.68-7.75,17.96c-4.18,5.28-9.51,9.21-16,11.77-6.44,2.57-12.98,3.32-19.67,2.26-6.69-1.01-12.68-3.62-18.01-7.85-5.33-4.28-9.26-9.66-11.82-16.15h0ZM1635.21,590.2c1.76,4.58,4.53,8.3,8.25,11.17,3.72,2.92,7.95,4.68,12.68,5.33s9.46.05,14.19-1.81c4.83-1.91,8.81-4.68,11.82-8.35,3.07-3.67,4.98-7.85,5.74-12.48.75-4.68.2-9.26-1.56-13.84-1.86-4.63-4.63-8.4-8.3-11.22-3.72-2.87-7.95-4.58-12.68-5.18-4.78-.6-9.56.05-14.39,1.96-4.73,1.86-8.6,4.63-11.62,8.3s-4.93,7.8-5.69,12.38c-.75,4.63-.25,9.21,1.56,13.74h0ZM1715.52,629.25l13.44,47.3-9.96,2.82-10.27-36.18-60.33,17.11-3.12-11.12,70.25-19.93h0ZM1665.1,741.76c-1.26-6.89-.7-13.49,1.61-19.83,2.36-6.29,6.09-11.62,11.27-16,5.13-4.38,11.12-7.2,17.91-8.4,6.89-1.21,13.54-.65,19.88,1.66s11.67,6.04,16,11.22,7.09,11.22,8.35,18.06c1.21,6.89.7,13.54-1.61,19.88-2.36,6.39-6.04,11.72-11.17,16.1s-11.12,7.15-18.01,8.4c-6.79,1.21-13.33.65-19.73-1.66-6.34-2.31-11.72-6.09-16.1-11.32-4.38-5.18-7.2-11.22-8.4-18.11h0ZM1675.57,739.9c.86,4.78,2.82,9.01,5.89,12.58,3.12,3.52,6.89,6.14,11.37,7.7,4.53,1.56,9.26,1.91,14.29,1.06,5.13-.96,9.56-2.92,13.28-5.89,3.72-3.02,6.39-6.74,8.05-11.12,1.66-4.43,2.06-9.01,1.21-13.84-.91-4.93-2.87-9.16-5.94-12.68s-6.84-6.04-11.42-7.55c-4.53-1.51-9.36-1.86-14.49-.91-4.98.86-9.36,2.82-13.03,5.84-3.67,2.97-6.34,6.64-8,11.02-1.66,4.33-2.06,8.96-1.21,13.79h0ZM1750.19,839.63l1.51,58.32-73.06,1.86-.25-11.67,62.65-1.61-.86-35.07-62.7,1.56-.3-11.52,73.01-1.86h0Z" fill="currentColor"></path>
    <path d="M1747.37,972.83c-.86,6.84-3.32,12.78-7.3,17.81-4.03,5.03-9.11,8.71-15.25,11.07-6.14,2.31-12.73,3.07-19.78,2.16-7.04-.91-13.28-3.27-18.67-7.15-5.43-3.87-9.46-8.71-12.08-14.59s-3.52-12.18-2.67-18.97c.7-5.33,2.42-10.21,5.13-14.69,2.72-4.43,6.19-7.9,10.32-10.37l-37.19-4.73,1.46-11.47,99.23,12.63-1.36,10.67-11.62-1.46c3.82,3.32,6.59,7.55,8.3,12.78,1.71,5.18,2.21,10.62,1.46,16.3h0ZM1682.41,962.91c-.6,4.83,0,9.36,1.86,13.59,1.81,4.23,4.68,7.7,8.55,10.47,3.87,2.77,8.4,4.48,13.54,5.13,5.18.65,9.96.15,14.44-1.56,4.43-1.71,8.1-4.38,10.97-8s4.63-7.85,5.23-12.68c.6-4.38.1-8.6-1.41-12.68-1.46-4.08-4.13-7.55-7.9-10.47-3.72-2.87-8.65-4.73-14.69-5.48s-11.27-.25-15.7,1.56-7.85,4.48-10.32,8.05-3.98,7.6-4.58,12.08ZM1657.25,1051.02c1.56-6.79,4.63-12.63,9.26-17.51,4.63-4.93,10.16-8.35,16.61-10.37,6.49-1.96,13.08-2.21,19.83-.65,6.79,1.56,12.68,4.68,17.61,9.31,4.93,4.63,8.35,10.16,10.32,16.61,1.96,6.44,2.16,13.08.55,19.93-1.56,6.79-4.68,12.68-9.31,17.61s-10.11,8.4-16.55,10.42c-6.39,2.01-13.03,2.26-19.83.65-6.74-1.56-12.58-4.63-17.51-9.26s-8.4-10.21-10.37-16.71c-2.01-6.54-2.21-13.18-.6-20.03h0ZM1667.62,1053.44c-1.11,4.78-.96,9.41.45,13.89,1.46,4.48,3.92,8.35,7.45,11.57s7.75,5.38,12.73,6.54c5.03,1.16,9.91,1.11,14.49-.2,4.63-1.26,8.55-3.62,11.77-7.04,3.27-3.37,5.43-7.5,6.54-12.28,1.11-4.83.96-9.51-.45-13.94-1.46-4.43-3.98-8.25-7.55-11.42-3.57-3.22-7.9-5.38-12.93-6.54-4.98-1.16-9.76-1.06-14.29.25-4.58,1.31-8.5,3.62-11.72,6.99-3.22,3.32-5.38,7.4-6.49,12.18ZM1695.69,1189.3l-70.75-23.95,3.67-10.92,48.91,16.5-36.18-59.28,1.36-3.98,70.75,23.95-3.67,10.97-49.06-16.61,36.33,59.33-1.36,3.98h0ZM1635.21,1238.66c-3.12,2.97-6.54,4.78-10.27,5.48-3.77.65-7.5.15-11.27-1.56-6.29-2.82-10.27-7.4-11.93-13.69-1.61-6.29-.75-13.23,2.67-20.78,2.47-5.48,5.79-9.86,9.96-13.13,4.18-3.27,8.96-5.48,14.44-6.64l3.07,9.96c-4.03.91-7.55,2.47-10.47,4.63-2.97,2.16-5.38,5.33-7.25,9.41-2.11,4.68-2.62,8.71-1.61,12.18,1.01,3.47,3.22,5.99,6.69,7.55,3.17,1.46,6.34,1.41,9.46-.2,3.17-1.61,5.79-4.73,7.9-9.36l3.27-7.25,9.26,4.18-3.17,7.09c-1.76,3.82-2.26,7.09-1.51,9.81.75,2.72,2.62,4.73,5.54,6.04,2.82,1.26,5.54,1.26,8.1-.05,2.57-1.31,4.68-3.87,6.44-7.7,1.66-3.77,2.42-7.25,2.16-10.47-.25-3.22-1.21-6.54-2.87-9.91l9.51-4.28c2.31,4.13,3.62,8.71,3.92,13.69.3,5.03-.75,10.27-3.22,15.75-3.02,6.64-7.04,11.22-12.08,13.74s-10.37,2.47-16-.1c-3.02-1.36-5.43-3.22-7.3-5.69-1.86-2.42-3.02-5.33-3.47-8.71h0ZM1596.41,1311.82c-3.42,2.97-7.09,4.78-10.87,5.43-3.82.6-7.6-.1-11.22-2.21-5.64-3.22-9.06-7.9-10.27-14.04-1.21-6.09.15-12.58,4.08-19.42l16.91-29.39,63.35,36.38-15.05,26.17c-3.57,6.24-7.95,10.32-13.13,12.23-5.13,1.96-10.27,1.46-15.4-1.46-2.52-1.46-4.48-3.37-5.94-5.79-1.46-2.36-2.26-5.03-2.47-7.9h0ZM1616.74,1283.7l-9.36,16.25c-1.96,3.47-2.72,6.54-2.21,9.11.55,2.62,2.11,4.73,4.83,6.24,5.54,3.22,10.32,1.31,14.29-5.59l9.36-16.25-16.91-9.76ZM1577.34,1286.01c-2.36,4.13-3.27,7.9-2.67,11.32.55,3.37,2.36,5.94,5.43,7.7,2.92,1.71,5.89,1.86,8.91.55,3.02-1.31,5.74-4.08,8.1-8.25l10.77-18.72-19.78-11.32-10.77,18.72h0ZM1522.8,1348c4.08-5.69,9.16-9.91,15.3-12.68s12.58-3.82,19.27-3.17c6.74.6,12.93,2.92,18.57,6.89,5.69,4.08,9.96,9.16,12.73,15.35,2.82,6.14,3.87,12.58,3.22,19.27-.65,6.74-3.02,12.93-7.09,18.62-4.03,5.74-9.16,9.96-15.3,12.78-6.19,2.77-12.58,3.87-19.27,3.32-6.69-.6-12.93-2.92-18.62-6.99-5.64-3.98-9.81-9.06-12.63-15.25-2.82-6.14-3.87-12.63-3.22-19.37.65-6.79,3.02-13.03,7.04-18.77h0ZM1531.5,1354.19c-2.87,3.98-4.48,8.35-4.88,13.03-.35,4.68.45,9.21,2.47,13.54,2.01,4.28,5.08,7.95,9.26,10.92,4.23,2.97,8.76,4.78,13.49,5.33,4.78.55,9.31-.1,13.59-2.01,4.33-1.91,7.9-4.88,10.72-8.86,2.92-4.08,4.53-8.45,4.88-13.08.35-4.68-.5-9.16-2.57-13.44-2.11-4.33-5.28-8-9.51-11.02-4.18-2.92-8.6-4.68-13.28-5.23-4.73-.5-9.21.15-13.49,2.01-4.28,1.91-7.85,4.83-10.67,8.81h0ZM1450.39,1450.85l-22.69-21.64,7.95-8.35,15.3,14.59,39.65-41.56-15.3-14.59,7.95-8.35,22.69,21.64-5.69,5.94c.2,4.88,2.26,10.21,6.24,15.95,4.03,5.74,9.91,12.48,17.76,20.18l14.54,14.54-34.77,36.43-45.49-43.32-8.15,8.55h0ZM1516.56,1442.5c-7.25-7.2-12.93-13.84-17.16-19.93s-6.74-11.17-7.55-15.25l-25.36,26.57,38.04,36.23,19.22-20.18-7.2-7.45ZM1433.83,1553l-48.91-56.46,8.71-7.55,33.81,39-1.21-69.44,3.17-2.72,48.91,56.46-8.71,7.55-33.91-39.15,1.31,69.54-3.17,2.77h0ZM1389.5,1572.27l20.08-14.24,5.99,8.45-49.41,35.12-5.99-8.45,20.08-14.24-36.33-51.12,9.26-6.59,36.33,51.07h0ZM1271.66,1612.23l50.07-28.78c-4.18-5.89-9.56-9.51-16.05-10.82-6.54-1.31-12.93-.2-19.17,3.37-7.2,4.18-12.03,10.72-14.44,19.73l-9.76-3.37c1.31-5.38,3.57-10.27,6.74-14.69,3.17-4.43,7.25-8.05,12.28-10.97,6.24-3.57,12.73-5.38,19.52-5.43,6.79,0,13.13,1.61,18.97,4.98,5.84,3.32,10.52,8.05,14.04,14.19,3.47,6.09,5.28,12.48,5.33,19.22.05,6.69-1.56,12.93-4.78,18.72-3.27,5.79-7.9,10.42-13.84,13.84-5.38,3.12-10.97,4.73-16.81,4.83s-11.22-1.26-16.25-4.18c-4.98-2.87-9.11-7.09-12.28-12.63-1.41-2.47-2.57-5.08-3.57-8h0ZM1315.59,1622.99c5.28-3.07,8.91-7.4,10.87-12.93,2.01-5.59,2.01-11.42-.05-17.56l-40.15,23.1c3.32,5.59,7.7,8.96,13.18,10.16,5.48,1.16,10.87.25,16.15-2.77ZM1216.41,1683.03l-30.09-66.52,10.52-4.78,25.86,57.16,24.71-11.22-3.42-8.3c-4.88-11.82-8.3-21.64-10.11-29.34-1.86-7.75-2.06-14.04-.65-18.97,1.36-4.88,4.68-8.55,9.86-10.87,1.26-.6,2.57-.96,3.82-1.06l3.98,8.86c-1.16.35-2.11.65-2.82.96-4.28,1.96-5.84,6.69-4.63,14.19,1.21,7.55,4.78,18.22,10.67,32l7.45,17.51-45.14,20.38ZM1135.34,1712.71l-23.45-69.19,10.97-3.72,9.21,27.32c3.77-3.62,9.21-6.64,16.45-9.06,8.3-2.82,15.75-2.77,22.29.2,6.54,2.97,11.27,8.81,14.24,17.51l6.09,18.06-10.92,3.67-5.94-17.46c-3.98-11.82-12.18-15.65-24.61-11.47-2.47.86-5.03,2.01-7.7,3.47-2.67,1.51-4.88,3.07-6.64,4.73l10.92,32.25-10.92,3.67h0ZM1052.07,1734.1l-16.45-71.2,11.27-2.57,5.99,26.01,13.44-3.12,13.59-30.54,13.18-3.02-14.44,32.25c5.64.35,10.37,2.01,14.14,4.98,3.82,2.97,6.34,6.99,7.5,12.03,1.61,6.94.6,12.98-3.02,18.22-3.62,5.18-9.26,8.65-16.86,10.42l-28.33,6.54h0ZM1060.97,1721.42l16.35-3.77c4.48-1.06,7.75-2.97,9.76-5.79,2.01-2.87,2.57-6.19,1.66-10.11-.86-3.77-2.87-6.54-5.99-8.25-3.12-1.66-6.89-2.01-11.37-.96l-16.2,3.72,5.79,25.16h0Z" fill="currentColor"></path>
    <path d="M802.18,1679.25c20.08,0,36.38,16.3,36.38,36.38s-16.3,36.38-36.38,36.38-36.43-16.25-36.43-36.38,16.3-36.38,36.43-36.38Z" fill="currentColor" fill-rule="evenodd"></path>
  </symbol>
  <symbol xmlns="http://www.w3.org/2000/svg" viewBox="0 0 444.05 444.05" id="ic_close">
    <path d="M7.51,400.18l178.2-178.11L7.51,43.87C-2.5,33.86-2.5,17.52,7.51,7.51s26.35-10.01,36.36,0l178.2,178.2L400.18,7.51c10.01-10.01,26.35-10.01,36.36,0,10.01,10.01,10.01,26.35,0,36.36l-178.11,178.2,178.11,178.11c10.01,10.01,10.01,26.35,0,36.36-10.01,10.01-26.35,10.01-36.36,0l-178.11-178.11L43.87,436.54c-10.01,10.01-26.35,10.01-36.36,0s-10.01-26.35,0-36.36Z" fill="currentColor" fill-rule="evenodd"></path>
  </symbol>
  <symbol xmlns="http://www.w3.org/2000/svg" viewBox="0 0 856.95 854.99" id="ic_search">
    <path d="M320,59.39c66.45-3.2,132.23,17.71,182.36,57.64l18.53,15.5c9.9,8.4,16.77,17.65,25.08,26.93,2.47,2.73,5.11,6.17,7.55,9.46,32.15,43.4,51.15,92.94,54.47,150.82,2.44,42.58-5.84,82.22-19.79,117.46-18.03,45.55-51.45,87.89-89.74,116.37-93.38,69.45-214.66,72.86-313.77,11.04-16.89-10.51-21.32-15.71-33.92-26.11-7.9-6.52-6.43-5.9-13.19-12.8l-23.76-27.34c-32.57-42.55-50.98-94.06-54.5-150.82-3.64-58.41,13.8-116.58,43.4-162.83,4.32-6.75,9.37-13.83,14.21-19.82,2.94-3.64,5.08-6.11,7.63-9.43,7.46-9.75,16.62-17.77,25.81-26.16,44.72-40.88,105.95-66.86,169.61-69.92ZM617.73,508.89c15.33-24.2,27.99-53.39,36.38-81.96,27.78-94.5,10.16-205.67-47.07-284.67-7.72-10.69-26.11-34.56-35.94-42.9l-9.84-9.9c-19.23-16.71-34.33-29.07-56.97-42.49C448.38,13.85,382.84-3.54,314.33.6,210.67,6.86,118.79,59.16,60.29,142.29-1.91,230.62-18.88,354.01,23.03,455.68c13.54,32.8,22.96,49.07,42.11,76.17,14.3,20.23,22.17,25.9,37.38,42.37,4.64,5.05,6.43,5.84,10.28,9.43,45.31,42.29,111.68,71.97,176.51,80.81,80.37,10.92,155.55-7.55,222.35-48.39l23.61-16.03c4.38,3.02,66.6,66.19,72.47,72,24.34,24.17,47.72,48.01,72.12,72.15,24.34,24.05,48.04,47.78,72.12,72.15,21.2,21.44,37.35,44.61,68.89,37.26,17.8-4.17,32.1-19.35,35.24-37.38,4.11-23.7-7.61-36.3-20.56-49.39l-162.21-162.18c-23.96-23.76-48.31-47.4-71.53-71.59l15.92-24.17h0Z" fill="currentColor" fill-rule="evenodd"></path>
  </symbol>
  <symbol xmlns="http://www.w3.org/2000/svg" viewBox="0 0 922 462.54" id="ic_small_circles">
    <path d="M231.27,0c118.49,0,216.32,89.25,229.73,204.01V0c118.27,0,215.88,88.81,229.73,203.57V0c127.73,0,231.27,103.54,231.27,231.27s-103.54,231.27-231.27,231.27v-203.57c-13.85,114.76-111.46,203.57-229.73,203.57v-204.01c-13.41,114.98-111.24,204.01-229.73,204.01C103.54,462.54,0,359,0,231.27S103.54,0,231.27,0h0Z" fill="currentColor" fill-rule="evenodd"></path>
  </symbol>
</svg>